<?xml version="1.0" encoding="UTF-8"?><svg id="Layer_2" xmlns="http://www.w3.org/2000/svg" viewBox="0 0 100 100"><defs><style>.cls-1{fill:none;}.cls-1,.cls-2{stroke-width:0px;}.cls-2{fill:#f7bc16;}</style></defs><g id="Layer_1-2"><path class="cls-2" d="M20.58,21.16c-1.2.29-1.91,1.51-1.62,2.69.29,1.2,1.49,1.94,2.69,1.65l3.58-.89c.47-.11.96-.04,1.36.2.4.27.69.65.8,1.11l2.36,9.66s0,.09.02.13c0,.04.02.09.05.13l7.25,29.6c-1.09.65-2.02,1.54-2.69,2.67-1.09,1.76-1.4,3.85-.91,5.85.49,2,1.74,3.72,3.49,4.78,1.25.73,2.6,1.14,4.01,1.14.62,0,1.25-.09,1.87-.22,3.38-.85,5.72-3.83,5.88-7.14l24.68-6.03h.07s.07-.02.09-.04l5.88-1.42c1.2-.29,1.91-1.49,1.62-2.69-.29-1.2-1.49-1.94-2.69-1.62l-3.81.93-7.57-30.89c-.38-1.62-1.38-2.98-2.83-3.85-1.4-.87-3.09-1.11-4.72-.73l-5.9,1.45.91,3.81.13.53,1.25,5.14.51,2.11c.2.73-.02,1.54-.56,2.07-.53.56-1.31.78-2.07.62l-3.4-.73-2.65,2.23c-.42.33-.91.51-1.45.51-.22,0-.47-.04-.69-.11-.73-.24-1.27-.85-1.47-1.58l-.93-3.83-.86-3.48-.1-.43-.96-3.85-7.61,1.87-1.87-7.61c-.4-1.62-1.4-3.01-2.83-3.85-1.42-.87-3.11-1.14-4.74-.73l-3.58.87ZM38.18,70.43c.45-.76,1.16-1.29,2.02-1.49.27-.07.51-.11.78-.11.6,0,1.18.18,1.71.49.76.47,1.27,1.18,1.49,2.03.42,1.78-.67,3.56-2.43,3.98-1.76.42-3.54-.65-3.98-2.4-.2-.87-.07-1.74.4-2.49"/><polygon class="cls-2" points="51.76 29.84 51.34 28.15 43.41 30.08 43.81 31.77 44.26 33.6 44.46 34.42 44.46 34.42 45.66 39.41 46.22 41.68 49.73 38.74 54.18 39.72 53.47 36.83 52.4 32.49 52.29 32 51.76 29.84"/><rect class="cls-1" width="100" height="100"/></g></svg>