<?xml version="1.0" encoding="UTF-8"?><svg id="Layer_2" xmlns="http://www.w3.org/2000/svg" viewBox="0 0 100 100"><defs><style>.cls-1{fill:none;}.cls-1,.cls-2{stroke-width:0px;}.cls-2{fill:#1c75bc;}</style></defs><g id="Layer_1-2"><rect class="cls-1" width="100" height="100"/><path class="cls-2" d="M61.23,68.71c4.81.02,8.79-3.74,9.04-8.55v-.12l8.77-9.85c1.85-2.14,5.06-2.46,7.28-.71,2.2,1.82,2.51,5.07.69,7.27-.03.03-.06.07-.09.1l-17.5,20.06c-2.33,2.67-5.71,4.21-9.26,4.21h-26.31l-1.82,1.82c-1.53,1.53-4,1.54-5.54.04l-10.64-10.37c-1.58-1.54-1.59-4.07-.02-5.62l8.83-8.75c8.48-7.75,36.78-3.27,36.78-3.27,2.74,0,4.97,2.22,4.97,4.97,0,.05,0,.1,0,.16-.18,2.72-2.45,4.82-5.18,4.78h-9.37c-.96,0-1.85.66-2.01,1.61-.2,1.21.73,2.25,1.9,2.25h9.47Z"/><path class="cls-2" d="M51.68,32.52c1.27.72,2.6,1.34,3.97,1.85.59.23,1.17.47,1.75.73.69.3,1.34.68,1.92,1.16,1.01.69,1.27,2.08.58,3.09-.27.39-.66.69-1.11.85-1.05.44-2.19.59-3.32.43-1.86-.2-3.66-.74-5.32-1.59-.35-.21-.74-.34-1.15-.37-.93,0-1.21.93-1.37,1.44-.3.96-.57,1.94-.83,2.91-.43,1.59-.16,2.18,1.33,2.91,1.64.74,3.37,1.24,5.16,1.48.28.03.56.09.83.18.06.3.08.6.07.9v1.91c-.06.95.66,1.77,1.61,1.84.07,0,.13,0,.2,0h2.86c.91.05,1.7-.65,1.75-1.57,0-.08,0-.16,0-.24v-2.63c0-.59.14-.77.77-.95,2.05-.54,3.87-1.71,5.21-3.34,1.75-2.11,2.47-4.9,1.96-7.59-.57-2.87-2.4-5.34-4.98-6.74-1.45-.77-2.95-1.45-4.48-2.04l-.59-.24c-.9-.36-1.74-.84-2.5-1.44-.54-.39-.83-1.03-.77-1.69.13-.67.6-1.23,1.24-1.47.46-.18.95-.28,1.45-.29,2.04-.12,4.08.28,5.92,1.17,1.9.92,2.32-.46,2.47-1.05.25-.77.48-1.54.7-2.35l.26-.93c.33-.9-.13-1.89-1.03-2.22l-.75-.26c-1.3-.45-2.63-.77-3.97-1.05-.7-.14-.7-.33-.7-1.38,0-2.69-.21-3.09-2.84-3.09h-1.42c-1.54.05-1.96.5-2,2.01v1.61q0,1.13-1.13,1.54c-4.11,1.49-6.31,4.3-6.56,8.34-.22,3.4,1.36,6.09,4.81,8.16Z"/></g></svg>