<?xml version="1.0" encoding="UTF-8"?><svg id="Layer_2" xmlns="http://www.w3.org/2000/svg" viewBox="0 0 100 100"><defs><style>.cls-1{fill:none;}.cls-1,.cls-2{stroke-width:0px;}.cls-2{fill:#fff;}</style></defs><g id="Layer_1-2"><path class="cls-2" d="M72.91,27.03c0-3.45-2.83-6.28-6.28-6.28h-33.25c-3.46,0-6.28,2.83-6.28,6.28v45.94c0,3.45,2.83,6.28,6.28,6.28h33.25c3.45,0,6.28-2.83,6.28-6.28V27.03ZM39.72,30.57h23.42c1.15,0,2.09.94,2.09,2.09s-.94,2.09-2.09,2.09h-23.42c-1.15,0-2.09-.94-2.09-2.09s.94-2.09,2.09-2.09M39.72,41.71h15.46c1.15,0,2.09.94,2.09,2.09s-.94,2.09-2.09,2.09h-15.46c-1.15,0-2.09-.94-2.09-2.09s.94-2.09,2.09-2.09M39.72,52.85h10.03c1.15,0,2.09.94,2.09,2.09s-.94,2.09-2.09,2.09h-10.03c-1.15,0-2.09-.94-2.09-2.09s.94-2.09,2.09-2.09M61.25,68.17h-21.54c-1.15,0-2.09-.94-2.09-2.09s.94-2.09,2.09-2.09h21.54c1.15,0,2.09.94,2.09,2.09s-.94,2.09-2.09,2.09"/><rect class="cls-1" width="100" height="100"/></g></svg>