<?xml version="1.0" encoding="UTF-8"?>
<svg id="Capa_1" data-name="Capa 1" xmlns="http://www.w3.org/2000/svg" viewBox="0 0 238.5 49">
  <defs>
    <style>
      .cls-1 {
        fill: #d2072a;
      }

      .cls-1, .cls-2 {
        stroke-width: 0px;
      }

      .cls-2 {
        fill: #ffcb00;
      }
    </style>
  </defs>
  <polygon class="cls-2" points="212.8 3.9 212.8 45.1 25.7 45.1 25.7 3.9 212.8 3.9 212.8 3.9"/>
  <path class="cls-1" d="m58.6,11.3l-6,8.1h32.6c1.6,0,1.6.6.8,1.7-.8,1.1-2.2,3-3,4.2-.4.6-1.2,1.6,1.3,1.6h13.3s2.1-2.9,3.9-5.4c2.4-3.3.2-10.2-8.5-10.2h-34.5Z"/>
  <path class="cls-1" d="m50.2,37.7l12-16.3s13.3,0,14.9,0,1.6.6.8,1.7c-.8,1.1-2.2,3-3,4.1-.4.6-1.2,1.6,1.3,1.6h20c-1.7,2.3-7,8.8-16.7,8.8h-29.3Z"/>
  <path class="cls-1" d="m119,28.9l-6.5,8.9h-17.2s6.5-8.8,6.5-8.8h17.2Z"/>
  <polygon class="cls-1" points="145.3 26.9 103.3 26.9 114.8 11.3 131.9 11.3 125.3 20.2 133 20.2 139.6 11.3 156.8 11.3 145.3 26.9 145.3 26.9"/>
  <path class="cls-1" d="m143.8,28.9l-6.5,8.8h-17.2s6.5-8.8,6.5-8.8h17.2Z"/>
  <polygon class="cls-1" points="25.7 32.4 51 32.4 49.6 34.2 25.7 34.2 25.7 32.4 25.7 32.4"/>
  <polygon class="cls-1" points="25.7 28.9 53.6 28.9 52.2 30.8 25.7 30.8 25.7 28.9 25.7 28.9"/>
  <polygon class="cls-1" points="25.7 35.9 48.4 35.9 47.1 37.7 25.7 37.7 25.7 35.9 25.7 35.9"/>
  <polygon class="cls-1" points="212.8 34.2 187.6 34.2 189 32.4 212.8 32.4 212.8 34.2 212.8 34.2"/>
  <polygon class="cls-1" points="212.8 37.7 185 37.7 186.4 35.9 212.8 35.9 212.8 37.7 212.8 37.7"/>
  <polygon class="cls-1" points="191.5 28.9 212.8 28.9 212.8 30.8 190.2 30.8 191.5 28.9 191.5 28.9"/>
  <path class="cls-1" d="m180.5,11.3l-11.5,15.6h-18.2s11.5-15.6,11.5-15.6h18.2Z"/>
  <path class="cls-1" d="m149.4,28.9s-1.3,1.7-1.9,2.5c-2.2,2.9-.3,6.3,6.8,6.3h27.6l6.5-8.8h-39Z"/>
</svg>