<?xml version="1.0" encoding="UTF-8"?><svg id="Layer_2" xmlns="http://www.w3.org/2000/svg" xmlns:xlink="http://www.w3.org/1999/xlink" viewBox="0 0 500 180"><defs><style>.cls-1{mix-blend-mode:multiply;}.cls-1,.cls-2{isolation:isolate;}.cls-3{fill:none;}.cls-3,.cls-4,.cls-5,.cls-6,.cls-7,.cls-8{stroke-width:0px;}.cls-4{fill:url(#linear-gradient);}.cls-5{fill:#7197cf;}.cls-6{fill:#f7bc16;}.cls-7{fill:#fff;}.cls-8{fill:#1c75bc;}</style><linearGradient id="linear-gradient" x1="251.32" y1="57.32" x2="364.79" y2="57.32" gradientUnits="userSpaceOnUse"><stop offset=".52" stop-color="#7197cf"/><stop offset="1" stop-color="#f7bc16"/></linearGradient></defs><g id="Layer_1-2"><g class="cls-2"><path class="cls-6" d="M348.39,101.82c-.38,0-.77-.08-1.15-.24-8.27-3.65-13.61-11.85-13.61-20.89v-3.16c0-1.57,1.27-2.84,2.84-2.84s2.84,1.27,2.84,2.84v3.16c0,6.79,4.01,12.94,10.22,15.68,1.44.63,2.09,2.31,1.45,3.75-.47,1.06-1.51,1.7-2.6,1.7"/><path class="cls-6" d="M340.26,77.53c0-2.09-1.69-3.78-3.78-3.78s-3.78,1.69-3.78,3.78,1.69,3.78,3.78,3.78,3.78-1.69,3.78-3.78"/><path class="cls-6" d="M337.96,75.92h0c-.68,0-1.24-.55-1.24-1.24v-3.71c0-.68.55-1.24,1.24-1.24s1.24.55,1.24,1.24v3.71c0,.68-.55,1.24-1.24,1.24"/><path class="cls-6" d="M337.18,75.05h0c-.48.48-1.27.48-1.75,0l-2.63-2.63c-.48-.48-.48-1.27,0-1.75.48-.48,1.27-.48,1.75,0l2.63,2.63c.48.48.48,1.27,0,1.75"/><path class="cls-6" d="M404.05,122.39c-1.54,0-2.81-1.23-2.84-2.78l-.07-3.16c-.14-6.78-4.29-12.85-10.55-15.46-1.45-.6-2.14-2.27-1.53-3.72.6-1.45,2.27-2.13,3.72-1.53,8.34,3.47,13.86,11.55,14.05,20.59l.07,3.16c.03,1.57-1.21,2.87-2.78,2.9-.02,0-.04,0-.06,0"/><path class="cls-6" d="M400.27,119.63c.05,2.09,1.77,3.75,3.86,3.7,2.09-.04,3.75-1.77,3.7-3.86-.05-2.09-1.77-3.75-3.86-3.7-2.09.04-3.75,1.77-3.7,3.86"/><path class="cls-6" d="M403.45,117.17h0c.52.44.59,1.22.15,1.74l-2.39,2.85c-.44.52-1.22.59-1.74.15-.52-.44-.59-1.22-.15-1.74l2.39-2.85c.44-.52,1.22-.59,1.74-.15"/><path class="cls-5" d="M150.8,95.93v31.97c0,3.84-3.07,6.65-6.91,6.65-4.09,0-6.91-2.81-6.91-6.65v-29.41c0-7.29-2.94-12.28-11.26-12.28-9.59,0-12.79,5.63-12.79,13.17v28.52c0,3.84-2.94,6.65-6.91,6.65s-6.91-2.81-6.91-6.65v-46.55c0-3.84,3.07-6.91,6.91-6.91s6.91,3.07,6.91,6.91c2.43-3.71,7.8-7.67,16.37-7.67,17.39,0,21.49,11.13,21.49,22.25"/><path class="cls-5" d="M298.93,90.17c0,9.46,31.46,5.12,31.46,26.22,0,12.02-10.23,18.16-23.4,18.16-11,0-19.44-4.99-22.64-8.95-1.02-1.28-1.53-2.43-1.53-3.96,0-3.33,2.81-6.14,6.14-6.14,1.28,0,2.56.38,3.96,1.54,3.45,2.81,7.68,5.24,14.07,5.24,5.76,0,9.46-1.53,9.46-5.12,0-10.36-31.33-4.99-31.33-26.73,0-11.51,9.59-17.14,21.36-17.14,9.08,0,17.14,3.45,20.72,7.93.77,1.02,1.28,1.92,1.28,3.84,0,3.32-2.81,6.14-6.14,6.14-1.79,0-2.94-.77-4.35-1.79-2.81-2.05-6.27-4.09-11.51-4.09-4.73,0-7.55,1.66-7.55,4.86"/><path class="cls-5" d="M175.2,130.33l-20.46-46.3c-.26-.64-.51-1.53-.51-2.69,0-3.84,3.07-6.91,6.91-6.91s5.76,2.69,6.39,4.35l14.07,35.55,14.07-35.55c.64-1.66,2.56-4.35,6.39-4.35s6.91,3.07,6.91,6.91c0,1.15-.25,2.05-.51,2.69l-20.46,46.3c-1.15,2.56-3.45,4.22-6.39,4.22s-5.24-1.66-6.39-4.22"/><path class="cls-5" d="M226.24,127.65c0,3.84-3.07,6.91-6.91,6.91s-6.91-3.07-6.91-6.91v-46.3c0-3.84,3.07-6.91,6.91-6.91s6.91,3.07,6.91,6.91v46.3Z"/><g class="cls-1"><path class="cls-5" d="M213.02,64.29l10.77-13.69c1.78-2.28,5.07-2.16,7.61.38,2.79,2.66,2.53,5.7.51,7.6l-12.42,11.41c-2.15,1.9-4.18,1.52-5.83,0-2.03-1.9-2.03-4.18-.63-5.7"/></g><path class="cls-6" d="M350.89,147.97c-1.55,0-2.87-1.18-3.01-2.76-.15-1.66,1.08-3.14,2.75-3.28l2.55-.23c-.8-5.79-.21-11.69,1.75-17.25l.29-.83c.56-1.58,2.29-2.4,3.86-1.84,1.58.56,2.4,2.29,1.84,3.86l-.29.82c-1.96,5.55-2.28,11.52-.93,17.25.2.85.02,1.75-.49,2.47-.51.71-1.31,1.17-2.18,1.24l-5.87.52c-.09,0-.18.01-.27.01"/><path class="cls-6" d="M391.42,147.97c-.09,0-.18,0-.27-.01l-5.86-.52c-.88-.08-1.67-.53-2.19-1.25-.51-.71-.69-1.61-.49-2.47,1.35-5.73,1.03-11.7-.93-17.25l-.29-.82c-.56-1.58.27-3.31,1.84-3.86,1.57-.56,3.31.27,3.86,1.84l.29.82c1.96,5.56,2.56,11.46,1.75,17.25l2.55.23c1.66.15,2.89,1.62,2.75,3.28-.14,1.57-1.46,2.76-3.01,2.76"/><path class="cls-5" d="M66.72,73.04c21.61,0,25.58,16.63,25.58,25.45,0,4.73,0,10.23-7.8,10.23h-31.59c0,9.21,6.52,13.43,14.96,13.43,5.63,0,9.59-1.92,12.66-3.97,1.41-.9,2.43-1.41,4.09-1.41,3.32,0,6.01,2.68,6.01,6.01,0,2.05-1.02,3.71-2.17,4.73-2.17,2.05-8.95,7.03-20.59,7.03-17.78,0-28.77-9.59-28.77-30.95,0-19.57,10.23-30.57,27.62-30.57M53.29,97.21h25.32c0-6.27-3.58-12.41-11.89-12.41-7.42,0-12.79,4.22-13.43,12.41"/><path class="cls-6" d="M371.16,70.67c14.96,0,27.09,12.13,27.09,27.09s-12.13,27.09-27.09,27.09-27.09-12.13-27.09-27.09,12.13-27.09,27.09-27.09"/><path class="cls-6" d="M344.06,98.4h54.18c0,3.64-.52,7.23-1.53,10.69-1.49,5.12-4.43,9.69-8.31,13.34l-14.85,13.95c-1.35,1.27-3.46,1.27-4.81,0l-14.85-13.95c-3.88-3.65-6.82-8.23-8.31-13.34-1.01-3.46-1.53-7.06-1.53-10.69"/><path class="cls-7" d="M371.16,80.93c9.29,0,16.82,7.53,16.82,16.82s-7.53,16.82-16.82,16.82-16.82-7.53-16.82-16.82,7.53-16.82,16.82-16.82"/><path class="cls-8" d="M371.32,111.15c-6.9,0-12.52-5.61-12.52-12.52,0-.9.73-1.62,1.62-1.62s1.63.73,1.63,1.62c0,5.11,4.16,9.27,9.27,9.27s9.27-4.16,9.27-9.27c0-.9.73-1.62,1.63-1.62s1.62.73,1.62,1.62c0,6.9-5.62,12.52-12.52,12.52"/><path class="cls-6" d="M448.88,133.57l-19.06-25.58-4.09,3.2v18.42c0,3.84-3.07,6.65-6.91,6.65s-6.91-2.81-6.91-6.65V50.82c0-3.84,2.94-6.65,6.91-6.65s6.91,2.81,6.91,6.65v45.15l23.15-18.16c1.66-1.28,2.94-1.66,4.48-1.66,3.71,0,6.65,2.94,6.65,6.65,0,1.92-.9,3.96-2.56,5.24l-16.75,12.79,18.8,24.68c1.02,1.41,1.41,2.81,1.41,4.09,0,3.71-2.94,6.65-6.65,6.65-2.43,0-4.22-1.15-5.37-2.69"/><path class="cls-8" d="M379.13,90.21c0-1.37-1.11-2.48-2.48-2.48s-2.48,1.11-2.48,2.48,1.11,2.48,2.48,2.48,2.48-1.11,2.48-2.48"/><path class="cls-8" d="M367.7,90.21c0-1.37-1.11-2.48-2.48-2.48s-2.48,1.11-2.48,2.48,1.11,2.48,2.48,2.48,2.48-1.11,2.48-2.48"/><path class="cls-5" d="M256.24,80.77c-12.79,0-23.16,10.37-23.16,23.16s10.37,23.16,23.16,23.16,23.16-10.37,23.16-23.16-10.37-23.16-23.16-23.16M256.24,116.63c-7.02,0-12.71-5.69-12.71-12.71s5.69-12.71,12.71-12.71,12.71,5.69,12.71,12.71-5.69,12.71-12.71,12.71"/></g><path class="cls-4" d="M251.32,81.3c1.59-.34,3.23-.53,4.92-.53,3.21,0,6.27.66,9.05,1.84,6.34-21.23,26.03-36.76,49.29-36.76,12.45,0,24.22,4.41,33.55,12.46l-2.46,2.46c-.96.96-.38,2.62.97,2.76l16.34,1.79c1.03.11,1.91-.76,1.79-1.79l-1.79-16.34c-.15-1.36-1.8-1.94-2.76-.97l-2.3,2.3c-11.96-10.65-27.2-16.48-43.34-16.48-30.46,0-56.11,20.99-63.26,49.26"/><rect class="cls-3" width="500" height="180"/></g></svg>