<svg id="Capa_1" data-name="Capa 1" xmlns="http://www.w3.org/2000/svg" width="238.5" height="49" viewBox="0 0 238.5 49"><path d="M54.9,23.6l6.9,5.9a6.7,6.7,0,0,1,2.1,4.9,6.8,6.8,0,0,1-6.7,6.8H38l1.5-6.5H50.4a2.1,2.1,0,0,0,2.1-2.1,2,2,0,0,0-.9-1.8l-6.1-4.5a6.8,6.8,0,0,1,4-12.1H65.3L64,19.8H56.4A2.2,2.2,0,0,0,54.2,22a2.4,2.4,0,0,0,.7,1.6Z" style="fill:#c01818"/><path d="M80.9,35.6h0a2.1,2.1,0,0,1-2.1-2.2c0-.3,0-.5.1-.6l2.9-13h4.9L88,14.1H83.1l1.6-7H75.4l-1.6,7H68.7l-1.3,5.7h5.1L68.7,36.3c0,.3-.1.5-.1.8a4,4,0,0,0,4,4.1h8.1L82,35.5H80.9" style="fill:#c01818"/><path d="M183.6,35.6h.1a2.2,2.2,0,0,1-2.2-2.2,3.5,3.5,0,0,1,.1-.6l3-13h4.8l1.3-5.7h-4.8l1.6-7h-9.3l-1.7,7h-5.1l-1.3,5.7h5.2l-3.8,16.5a2.2,2.2,0,0,0-.1.8,4,4,0,0,0,4,4.1h8l1.3-5.7h-1.1" style="fill:#c01818"/><path d="M116.8,41.2a2,2,0,0,0,1.2-1.5v-.2h0l4.5-19.7h-3.8l1.3-5.7h3.8l.4-1.8v-.4a6.6,6.6,0,0,1,6.4-4.8h8.8l-1,4.5h-3.1a2.1,2.1,0,0,0-2.1,1.7h0l-.2.9H138l-1.2,5.7h-4.9l-4,17.7a4.7,4.7,0,0,1-4.5,3.7Z" style="fill:#c01818"/><path d="M99.2,34.9h0a3.8,3.8,0,0,1-1.9.5,3.4,3.4,0,0,1-3.4-3.5,3.5,3.5,0,0,1,3.4-3.5h6.6a9.8,9.8,0,0,1-4.7,6.5m16.4-17.3a3.5,3.5,0,0,0-3.5-3.5H91.4l-1.3,5.7h14.3a1,1,0,0,1,1.1,1v.3h0l-.6,2.5h-10A9.4,9.4,0,0,0,85.5,33v.7c.2,4.9,4.6,8.2,9.3,8.2h1.8a10.7,10.7,0,0,0,4.6-1.9,3.4,3.4,0,0,0,2.7,1.3h8.8a3.7,3.7,0,0,1-1.6-3,2.8,2.8,0,0,1,.1-.9l4.3-18.9h0a1.9,1.9,0,0,0,.1-.8" style="fill:#c01818"/><path d="M30.1,21.1l-.6,2.5H21.4l.4-1.9a2.1,2.1,0,0,1,2.1-1.9h5.2a1,1,0,0,1,1,1.1v.2m6.7-7H17.9a4.5,4.5,0,0,0-4.4,3.5L9,36.9a2.2,2.2,0,0,0-.1.8,3.5,3.5,0,0,0,3.5,3.5H34.9l1.5-6.5H21.5a2.2,2.2,0,0,1-2.1-2.2,1.1,1.1,0,0,1,.1-.5h0l.7-3.3H37.8l2.4-10.4v-.7a3.5,3.5,0,0,0-3.4-3.5" style="fill:#c01818"/><path d="M202,34.9h0a4.1,4.1,0,0,1-1.9.5,3.5,3.5,0,0,1-3.5-3.5,3.5,3.5,0,0,1,3.5-3.5h6.6a9.8,9.8,0,0,1-4.7,6.5m12.9-20.8H194.1l-1.3,5.7h14.4a1,1,0,0,1,1.1,1v.3h-.1l-.5,2.5H197.6a9.4,9.4,0,0,0-9.3,9.4v.7c.1,4.9,4.5,8.2,9.3,8.2h1.7a11.6,11.6,0,0,0,4.7-1.9,3.4,3.4,0,0,0,2.7,1.3h8.7a3.9,3.9,0,0,1-1.6-3,2.9,2.9,0,0,1,.2-.9l4.3-18.9h0c0-.2.1-.5.1-.8a3.5,3.5,0,0,0-3.5-3.5" style="fill:#c01818"/><path d="M157,21.1l-.5,2.5h-8.2l.5-1.9a2.2,2.2,0,0,1,2.1-1.9H156a1.1,1.1,0,0,1,1.1,1.1c0,.1,0,.1-.1.2m6.7-6.9H144.8a4.6,4.6,0,0,0-4.4,3.5L135.9,37v.7a3.5,3.5,0,0,0,3.4,3.5h22.6l1.4-6.5H148.5a2.2,2.2,0,0,1-2.2-2.1c0-.2.1-.4.1-.6h0l.7-3.3h17.6l2.4-10.4c0-.2.1-.4.1-.6a3.5,3.5,0,0,0-3.5-3.5" style="fill:#c01818"/><path d="M225,18.4h.7l1.1,1.8h.8l-1.2-1.9a1,1,0,0,0,1.1-1.1c0-.9-.5-1.3-1.6-1.3h-1.6v4.3h.7V18.4Zm0-.6V16.5h.9c.4,0,.9.1.9.6s-.5.7-1,.7Zm4.6.2a3.8,3.8,0,0,0-3.8-3.9A3.8,3.8,0,0,0,222,18a3.7,3.7,0,0,0,3.8,3.9,3.8,3.8,0,0,0,3.8-3.9m-.9,0a3,3,0,0,1-2.9,3.2,2.9,2.9,0,0,1-3-3.2,3,3,0,1,1,5.9,0" style="fill:#c01818"/></svg>