<?xml version="1.0" encoding="UTF-8"?><svg id="Layer_2" xmlns="http://www.w3.org/2000/svg" viewBox="0 0 100 100"><defs><style>.cls-1{fill:none;}.cls-1,.cls-2{stroke-width:0px;}.cls-2{fill:#010101;fill-rule:evenodd;}</style></defs><g id="Layer_1-2"><path class="cls-2" d="M43.36,65.89l4.67,12.25c.31.82,1.09,1.36,1.97,1.36s1.66-.54,1.97-1.36l4.67-12.25c9.56-2.85,16.54-11.72,16.54-22.21,0-12.79-10.38-23.17-23.18-23.17s-23.17,10.39-23.17,23.17c0,10.49,6.98,19.35,16.54,22.21M50,33.15c5.82,0,10.53,4.72,10.53,10.53s-4.72,10.53-10.53,10.53-10.53-4.72-10.53-10.53,4.72-10.53,10.53-10.53"/><rect class="cls-1" width="100" height="100"/></g></svg>