<?xml version="1.0" encoding="UTF-8"?><svg id="Layer_2" xmlns="http://www.w3.org/2000/svg" viewBox="0 0 100 100"><defs><style>.cls-1{fill:#010101;}.cls-1,.cls-2{stroke-width:0px;}.cls-2{fill:none;}</style></defs><g id="Layer_1-2"><path class="cls-1" d="M75.81,39.74l-22-18.36c-2.21-1.85-5.41-1.85-7.62,0l-22,18.36c-1.39,1.16-2.19,2.89-2.19,4.7v29.56c0,3.31,2.69,6,6,6h44c3.31,0,6-2.69,6-6v-29.56c0-1.81-.8-3.54-2.19-4.7M40.01,68.19h-7.75v-7.75h7.75v7.75ZM40.01,55.55h-7.75v-7.75h7.75v7.75ZM53.87,68.19h-7.75v-7.75h7.75v7.75ZM53.87,55.55h-7.75v-7.75h7.75v7.75Z"/><rect class="cls-2" width="100" height="100"/></g></svg>