<?xml version="1.0" encoding="UTF-8"?><svg id="Layer_2" xmlns="http://www.w3.org/2000/svg" viewBox="0 0 289.07 289.07"><defs><style>.cls-1{fill:none;}.cls-1,.cls-2,.cls-3,.cls-4{stroke-width:0px;}.cls-2{fill:#f7bc16;}.cls-5{isolation:isolate;}.cls-3{fill:#fff;}.cls-4{fill:#1c75bc;}</style></defs><g id="Layer_1-2"><g class="cls-5"><path class="cls-2" d="M83.67,124.87c-1.08,0-2.17-.22-3.21-.68-23.12-10.22-38.06-33.15-38.06-58.42v-8.83c0-4.4,3.56-7.96,7.95-7.96s7.96,3.56,7.96,7.96v8.83c0,18.98,11.22,36.2,28.58,43.87,4.02,1.77,5.84,6.47,4.06,10.49-1.31,2.97-4.23,4.74-7.28,4.74"/><path class="cls-2" d="M60.94,56.93c0-5.85-4.74-10.58-10.58-10.58s-10.58,4.74-10.58,10.58,4.74,10.58,10.58,10.58,10.58-4.74,10.58-10.58"/><path class="cls-2" d="M54.5,52.42h0c-1.91,0-3.46-1.55-3.46-3.46v-10.39c0-1.91,1.55-3.47,3.46-3.47s3.46,1.55,3.46,3.47v10.39c0,1.91-1.55,3.46-3.46,3.46"/><path class="cls-2" d="M52.34,49.98h0c-1.35,1.35-3.54,1.35-4.9,0l-7.35-7.35c-1.35-1.35-1.35-3.55,0-4.9,1.35-1.35,3.54-1.35,4.9,0l7.35,7.35c1.35,1.35,1.35,3.54,0,4.9"/><path class="cls-2" d="M239.4,182.41c-4.31,0-7.86-3.45-7.95-7.79l-.19-8.83c-.4-18.98-11.99-35.95-29.51-43.25-4.05-1.69-5.98-6.35-4.29-10.4,1.69-4.06,6.35-5.97,10.4-4.28,23.33,9.72,38.76,32.32,39.3,57.6l.19,8.83c.09,4.39-3.39,8.03-7.78,8.12-.06,0-.12,0-.18,0"/><path class="cls-2" d="M228.83,174.68c.13,5.84,4.96,10.48,10.81,10.35,5.84-.12,10.48-4.96,10.36-10.81-.13-5.84-4.96-10.48-10.81-10.35-5.84.12-10.48,4.96-10.35,10.81"/><path class="cls-2" d="M237.72,167.82h0c1.47,1.23,1.66,3.41.43,4.88l-6.68,7.96c-1.23,1.47-3.41,1.66-4.88.43-1.47-1.23-1.66-3.41-.43-4.88l6.68-7.96c1.23-1.47,3.41-1.66,4.88-.43"/><path class="cls-2" d="M90.69,253.96c-4.33,0-8.03-3.31-8.42-7.71-.42-4.66,3.02-8.77,7.68-9.19l7.14-.64c-2.25-16.21-.59-32.71,4.9-48.25l.82-2.31c1.56-4.41,6.4-6.72,10.8-5.16,4.41,1.56,6.72,6.4,5.16,10.81l-.82,2.31c-5.49,15.54-6.39,32.23-2.6,48.27.56,2.39.07,4.91-1.37,6.9-1.44,1.99-3.67,3.26-6.11,3.48l-16.41,1.47c-.25.02-.51.03-.76.03"/><path class="cls-2" d="M204.05,253.96c-.25,0-.51,0-.76-.03l-16.41-1.47c-2.45-.22-4.68-1.49-6.12-3.48-1.43-1.99-1.93-4.51-1.37-6.9,3.79-16.04,2.89-32.73-2.6-48.27l-.81-2.31c-1.56-4.41.75-9.25,5.16-10.81,4.4-1.56,9.25.75,10.8,5.16l.82,2.31c5.5,15.55,7.15,32.05,4.91,48.26l7.13.64c4.66.42,8.1,4.53,7.68,9.19-.4,4.4-4.09,7.71-8.42,7.71"/><path class="cls-2" d="M147.37,37.72c41.86,0,75.79,33.93,75.79,75.79s-33.93,75.79-75.79,75.79-75.79-33.93-75.79-75.79,33.93-75.79,75.79-75.79"/><path class="cls-2" d="M71.58,115.31h151.58c0,10.17-1.45,20.24-4.28,29.91-4.18,14.31-12.39,27.12-23.25,37.33l-41.53,39.02c-3.78,3.55-9.67,3.55-13.45,0l-41.53-39.02c-10.87-10.21-19.08-23.02-23.25-37.33-2.82-9.67-4.28-19.74-4.28-29.91"/><path class="cls-3" d="M147.37,66.44c25.99,0,47.06,21.07,47.06,47.06s-21.07,47.06-47.06,47.06-47.06-21.07-47.06-47.06,21.07-47.06,47.06-47.06"/><path class="cls-4" d="M147.82,150.98c-19.31,0-35.02-15.71-35.02-35.02,0-2.51,2.04-4.55,4.55-4.55s4.55,2.03,4.55,4.55c0,14.3,11.63,25.92,25.92,25.92s25.92-11.63,25.92-25.92c0-2.51,2.04-4.55,4.55-4.55s4.55,2.03,4.55,4.55c0,19.31-15.71,35.02-35.02,35.02"/><path class="cls-4" d="M169.68,92.4c0-3.83-3.1-6.93-6.93-6.93s-6.93,3.1-6.93,6.93,3.1,6.93,6.93,6.93,6.93-3.1,6.93-6.93"/><path class="cls-4" d="M137.71,92.4c0-3.83-3.1-6.93-6.93-6.93s-6.93,3.1-6.93,6.93,3.1,6.93,6.93,6.93,6.93-3.1,6.93-6.93"/></g><rect class="cls-1" width="289.07" height="289.07"/></g></svg>