<svg xmlns="http://www.w3.org/2000/svg" xmlns:xlink="http://www.w3.org/1999/xlink" width="800" zoomAndPan="magnify" viewBox="0 0 600 599.999999" height="800" preserveAspectRatio="xMidYMid meet" version="1.0"><defs><clipPath id="e72ce5707d"><path d="M 0 5.285156 L 332.628906 5.285156 L 332.628906 599.988281 L 0 599.988281 Z M 0 5.285156 " clip-rule="nonzero"/></clipPath></defs><g clip-path="url(#e72ce5707d)"><path fill="#7097cf" d="M -370.476562 194.117188 C -352.394531 158.429688 -310.433594 148.332031 -280.300781 126.300781 C -238.375 95.074219 -216.484375 15.574219 -147.113281 37.40625 C -98.601562 52.671875 -86.148438 84.503906 -15.152344 76.277344 C 64.445312 67.0625 96.582031 -12.109375 190.730469 8.785156 C 273.835938 22.5 388.527344 93.476562 301.578125 203.25 C 233.53125 281.671875 150.292969 357.03125 230.695312 436.453125 C 254.402344 459.871094 281.757812 488.601562 281.652344 517.320312 C 281.28125 618.5625 124.121094 618.898438 64.53125 560.972656 C 43.464844 542.664062 26.285156 518.191406 -0.628906 507.984375 C -53.101562 489.078125 -105.214844 525.289062 -158.246094 519.988281 C -191.296875 517.886719 -223.9375 494.046875 -224.265625 458.765625 C -225.902344 430.304688 -214.105469 401.234375 -223.484375 373.324219 C -250.375 297.480469 -427.671875 303.367188 -370.476562 194.117188 " fill-opacity="1" fill-rule="nonzero"/></g></svg>