<svg xmlns="http://www.w3.org/2000/svg" xmlns:xlink="http://www.w3.org/1999/xlink" width="800" zoomAndPan="magnify" viewBox="0 0 600 599.999999" height="800" preserveAspectRatio="xMidYMid meet" version="1.0"><defs><clipPath id="0e4e2cdffc"><path d="M 0 25.5 L 600 25.5 L 600 574.5 L 0 574.5 Z M 0 25.5 " clip-rule="nonzero"/></clipPath></defs><g clip-path="url(#0e4e2cdffc)"><path fill="#1075bb" d="M 599.621094 278.941406 C 599.871094 287.691406 599.621094 296.4375 598.871094 305.1875 C 597.246094 326.554688 593.621094 347.675781 587.996094 368.421875 C 583.746094 384.292969 579.25 399.914062 572.625 415.035156 C 564.878906 432.53125 557.503906 450.277344 547.757812 466.773438 C 536.632812 485.519531 523.886719 503.140625 507.765625 518.136719 C 494.519531 530.386719 479.898438 540.757812 464.273438 549.878906 C 449.902344 558.128906 434.78125 564.628906 418.660156 568.25 C 410.164062 570.25 401.414062 571.25 392.667969 572.375 C 379.167969 574.125 365.546875 574.5 352.050781 574 C 342.429688 573.625 332.929688 572.5 323.433594 571.25 C 310.433594 569.5 297.6875 567 285.066406 563.628906 C 270.195312 559.628906 255.824219 554.253906 241.574219 548.503906 C 211.957031 536.382812 183.589844 521.636719 156.46875 504.640625 C 142.097656 495.644531 127.976562 486.644531 114.105469 477.023438 C 96.609375 464.773438 80.488281 451.027344 65.867188 435.40625 C 53.242188 421.785156 42.371094 406.914062 33.125 390.917969 C 21.125 370.171875 12.628906 348.050781 6.753906 324.933594 C 4.128906 314.433594 2.378906 303.6875 1.378906 292.8125 C 0.628906 284.691406 0.128906 276.441406 0.378906 268.320312 C 0.878906 255.574219 2.253906 242.824219 4.628906 230.328125 C 7.378906 215.082031 11.378906 200.210938 16.378906 185.464844 C 23.625 164.09375 33.375 143.847656 45.996094 125.226562 C 56.867188 108.980469 68.988281 93.859375 83.238281 80.363281 C 94.734375 69.488281 107.480469 60.367188 121.351562 52.492188 C 133.851562 45.371094 146.722656 39.371094 160.34375 35.121094 C 172.339844 31.375 184.589844 28.75 197.210938 27.5 C 211.082031 26.125 224.828125 25.5 238.828125 25.875 C 246.949219 26.125 254.949219 27 262.945312 28 C 271.695312 29.125 280.316406 30.375 288.941406 31.75 C 309.558594 35.246094 329.554688 40.996094 348.675781 49.746094 C 354.925781 52.617188 361.046875 55.867188 367.046875 59.117188 C 374.421875 63.117188 382.292969 66.117188 390.167969 69.113281 C 404.789062 74.488281 419.910156 78.113281 435.40625 80.238281 C 439.53125 80.738281 443.78125 81.113281 447.902344 81.113281 C 449.902344 81.113281 451.902344 80.613281 453.777344 80.238281 C 461.777344 78.863281 469.773438 77.738281 477.773438 77.238281 C 488.019531 76.488281 498.140625 77.113281 508.015625 79.863281 C 527.136719 85.113281 543.757812 94.484375 557.003906 109.480469 C 567.5 121.351562 575.375 134.851562 581.125 149.597656 C 586.871094 164.09375 590.746094 179.214844 593.121094 194.585938 C 594.871094 205.582031 596.496094 216.707031 597.621094 227.828125 C 598.246094 233.828125 598.621094 239.949219 598.871094 246.074219 C 599.121094 256.574219 599.871094 267.695312 599.621094 278.941406 Z M 599.621094 278.941406 " fill-opacity="1" fill-rule="nonzero"/></g></svg>