<?xml version="1.0" encoding="UTF-8" standalone="no"?>
<svg
   width="284"
   height="25"
   viewBox="0 0 284 25"
   version="1.1"
   id="svg1"
   sodipodi:docname="wave.svg"
   xml:space="preserve"
   inkscape:version="1.3.2 (091e20e, 2023-11-25, custom)"
   xmlns:inkscape="http://www.inkscape.org/namespaces/inkscape"
   xmlns:sodipodi="http://sodipodi.sourceforge.net/DTD/sodipodi-0.dtd"
   xmlns="http://www.w3.org/2000/svg"
   xmlns:svg="http://www.w3.org/2000/svg"
   xmlns:rdf="http://www.w3.org/1999/02/22-rdf-syntax-ns#"
   xmlns:cc="http://creativecommons.org/ns#"
   xmlns:dc="http://purl.org/dc/elements/1.1/"><sodipodi:namedview
     id="namedview1"
     pagecolor="#ffffff"
     bordercolor="#000000"
     borderopacity="0.25"
     inkscape:showpageshadow="2"
     inkscape:pageopacity="0.0"
     inkscape:pagecheckerboard="0"
     inkscape:deskcolor="#d1d1d1"
     inkscape:zoom="5.0651409"
     inkscape:cx="167.02398"
     inkscape:cy="20.631213"
     inkscape:window-width="3440"
     inkscape:window-height="1361"
     inkscape:window-x="2391"
     inkscape:window-y="1320"
     inkscape:window-maximized="1"
     inkscape:current-layer="svg1"
     showgrid="true"><inkscape:grid
       id="grid1"
       units="px"
       originx="0"
       originy="0"
       spacingx="1"
       spacingy="1"
       empcolor="#0099e5"
       empopacity="0.30196078"
       color="#0099e5"
       opacity="0.14901961"
       empspacing="5"
       dotted="false"
       gridanglex="30"
       gridanglez="30"
       visible="true" /></sodipodi:namedview><defs
     id="defs1"><clipPath
       clipPathUnits="userSpaceOnUse"
       id="clipPath1"><path
         style="fill:#ff00ff"
         d="M -0.39485575,-0.39485575 0,12.0431 c 0,0 58.438651,-19.5453593 136.62009,0 78.18144,19.54536 148.07091,0.197428 148.07091,0.197428 l -0.39486,-12.63538375 z"
         id="path2" /></clipPath></defs><!-- Generator: Sketch 62 (91390) - https://sketch.com --><title
     id="title1">Path</title><desc
     id="desc1">Created with Sketch.</desc><g
     id="Page-1"
     stroke="none"
     stroke-width="1"
     fill="none"
     fill-rule="evenodd"
     transform="matrix(1.0013706,0,0,0.55711557,-4.6085881,-60.849172)"><g
       id="Group"
       fill="#ffffff"
       fill-rule="nonzero"><path
         d="m 284,11.08769 c 0,0 -7.31288,3.023916 -14.02469,3.326308 -6.81199,0.302391 -12.62222,0 -20.93686,-1.511958 -11.31993,-2.015944 -33.15838,-10.180516 -44.77884,-5.7454398 -11.62046,4.4350758 -12.12134,4.6366708 -18.03174,7.4589918 -6.61164,3.22551 -20.03528,9.67653 -36.66455,9.374138 C 131.8321,23.687339 99.675485,7.2573974 86.452205,8.0637749 85.049735,8.1645721 79.840564,8.8701524 75.933686,10.079719 72.126984,11.289285 66.517108,13.910012 58.903704,14.817186 55.69806,15.220375 50.589065,15.925955 44.67866,15.724361 43.176014,15.623564 38.367548,15.321172 32.657496,14.111606 26.947443,12.90204 21.638095,10.986893 16.82963,10.38211 10.116913,9.6607754 5.0153638,10.091311 2.2697408,10.480268 0.79504642,10.68918 0,11.08769 0,11.08769 V 0 h 284 z"
         id="Path"
         inkscape:label="Path" /></g></g><rect
     style="fill:#ffffff"
     id="rect1"
     width="284.69101"
     height="24.678484"
     x="-0.19742787"
     y="-0.19742787"
     clip-path="url(#clipPath1)"
     transform="matrix(0.99884782,-0.00117297,0.00117433,0.9999993,-0.08618076,0.16674202)" /><metadata
     id="metadata1"><rdf:RDF><cc:Work
         rdf:about=""><dc:title>Path</dc:title></cc:Work></rdf:RDF></metadata></svg>
