<svg xmlns="http://www.w3.org/2000/svg" xmlns:xlink="http://www.w3.org/1999/xlink" width="800" zoomAndPan="magnify" viewBox="0 0 600 599.999999" height="800" preserveAspectRatio="xMidYMid meet" version="1.0"><defs><clipPath id="e2fd5c8a16"><path d="M 7.914062 165 L 127 165 L 127 482 L 7.914062 482 Z M 7.914062 165 " clip-rule="nonzero"/></clipPath><clipPath id="898fcb524a"><path d="M 373 225 L 592.082031 225 L 592.082031 482 L 373 482 Z M 373 225 " clip-rule="nonzero"/></clipPath><clipPath id="c1a01df56a"><path d="M 71 416 L 186 416 L 186 530.886719 L 71 530.886719 Z M 71 416 " clip-rule="nonzero"/></clipPath><clipPath id="dccbb35b45"><path d="M 420 416 L 535 416 L 535 530.886719 L 420 530.886719 Z M 420 416 " clip-rule="nonzero"/></clipPath><clipPath id="ade7d9c5f6"><path d="M 7.914062 379 L 390 379 L 390 396 L 7.914062 396 Z M 7.914062 379 " clip-rule="nonzero"/></clipPath><clipPath id="96cb12ee5f"><path d="M 420 270 L 592.082031 270 L 592.082031 374 L 420 374 Z M 420 270 " clip-rule="nonzero"/></clipPath></defs><g clip-path="url(#e2fd5c8a16)"><path fill="#f9bd16" d="M 79.445312 481.804688 L 15.878906 481.804688 C 13.765625 481.804688 11.738281 480.964844 10.246094 479.472656 C 8.753906 477.976562 7.914062 475.953125 7.914062 473.839844 L 7.914062 173.472656 C 7.914062 171.359375 8.753906 169.332031 10.246094 167.835938 C 11.738281 166.34375 13.765625 165.503906 15.878906 165.503906 L 118.851562 165.503906 C 120.964844 165.503906 122.992188 166.34375 124.484375 167.835938 C 125.976562 169.332031 126.816406 171.359375 126.816406 173.472656 C 126.816406 175.582031 125.976562 177.609375 124.484375 179.105469 C 122.992188 180.597656 120.964844 181.4375 118.851562 181.4375 L 23.84375 181.4375 L 23.84375 465.875 L 79.445312 465.875 C 81.558594 465.875 83.585938 466.710938 85.078125 468.207031 C 86.574219 469.699219 87.414062 471.726562 87.414062 473.839844 C 87.414062 475.953125 86.574219 477.976562 85.078125 479.472656 C 83.585938 480.964844 81.558594 481.804688 79.445312 481.804688 Z M 79.445312 481.804688 " fill-opacity="1" fill-rule="nonzero"/></g><path fill="#f9bd16" d="M 381.460938 481.804688 L 177.691406 481.804688 C 175.582031 481.804688 173.554688 480.964844 172.058594 479.472656 C 170.566406 477.976562 169.726562 475.953125 169.726562 473.839844 C 169.726562 471.726562 170.566406 469.699219 172.058594 468.207031 C 173.554688 466.710938 175.582031 465.875 177.691406 465.875 L 373.496094 465.875 L 373.496094 181.4375 L 299.414062 181.4375 C 297.300781 181.4375 295.273438 180.597656 293.78125 179.105469 C 292.285156 177.609375 291.445312 175.582031 291.445312 173.472656 C 291.445312 171.359375 292.285156 169.332031 293.78125 167.835938 C 295.273438 166.34375 297.300781 165.503906 299.414062 165.503906 L 381.460938 165.503906 C 383.574219 165.503906 385.601562 166.34375 387.09375 167.835938 C 388.589844 169.332031 389.425781 171.359375 389.425781 173.472656 L 389.425781 473.839844 C 389.425781 475.953125 388.589844 477.976562 387.09375 479.472656 C 385.601562 480.964844 383.574219 481.804688 381.460938 481.804688 Z M 381.460938 481.804688 " fill-opacity="1" fill-rule="nonzero"/><g clip-path="url(#898fcb524a)"><path fill="#f9bd16" d="M 584.113281 481.820312 L 527.042969 481.820312 C 524.929688 481.820312 522.902344 480.980469 521.40625 479.488281 C 519.914062 477.992188 519.074219 475.964844 519.074219 473.855469 C 519.074219 471.742188 519.914062 469.714844 521.40625 468.222656 C 522.902344 466.726562 524.929688 465.886719 527.042969 465.886719 L 576.148438 465.886719 L 576.148438 367.6875 L 489.371094 241.769531 L 389.417969 241.769531 L 389.417969 465.886719 L 428.746094 465.886719 C 430.859375 465.886719 432.886719 466.726562 434.378906 468.222656 C 435.871094 469.714844 436.710938 471.742188 436.710938 473.855469 C 436.710938 475.964844 435.871094 477.992188 434.378906 479.488281 C 432.886719 480.980469 430.859375 481.820312 428.746094 481.820312 L 381.453125 481.820312 C 379.339844 481.820312 377.3125 480.980469 375.820312 479.488281 C 374.328125 477.992188 373.488281 475.964844 373.488281 473.855469 L 373.488281 233.804688 C 373.488281 231.691406 374.328125 229.667969 375.820312 228.171875 C 377.3125 226.679688 379.339844 225.839844 381.453125 225.839844 L 493.550781 225.839844 C 494.84375 225.839844 496.113281 226.152344 497.253906 226.753906 C 498.398438 227.351562 499.378906 228.222656 500.109375 229.285156 L 590.671875 360.6875 C 591.59375 362.015625 592.082031 363.59375 592.082031 365.207031 L 592.082031 473.855469 C 592.082031 475.964844 591.242188 477.992188 589.75 479.488281 C 588.25 480.980469 586.226562 481.820312 584.113281 481.820312 Z M 584.113281 481.820312 " fill-opacity="1" fill-rule="nonzero"/></g><g clip-path="url(#c1a01df56a)"><path fill="#f9bd16" d="M 128.574219 530.984375 C 117.28125 530.984375 106.242188 527.636719 96.851562 521.359375 C 87.460938 515.085938 80.140625 506.167969 75.820312 495.734375 C 71.496094 485.300781 70.367188 473.820312 72.570312 462.742188 C 74.773438 451.667969 80.210938 441.492188 88.195312 433.507812 C 96.179688 425.519531 106.355469 420.082031 117.433594 417.878906 C 128.507812 415.675781 139.988281 416.804688 150.421875 421.128906 C 160.855469 425.449219 169.773438 432.769531 176.050781 442.160156 C 182.324219 451.546875 185.671875 462.585938 185.671875 473.882812 C 185.65625 489.019531 179.636719 503.535156 168.929688 514.238281 C 158.226562 524.945312 143.710938 530.964844 128.574219 530.984375 Z M 128.574219 432.714844 C 120.429688 432.714844 112.472656 435.128906 105.699219 439.652344 C 98.929688 444.175781 93.652344 450.605469 90.539062 458.128906 C 87.421875 465.648438 86.605469 473.929688 88.195312 481.914062 C 89.785156 489.898438 93.703125 497.234375 99.460938 502.992188 C 105.21875 508.75 112.554688 512.671875 120.542969 514.261719 C 128.527344 515.847656 136.804688 515.035156 144.328125 511.917969 C 151.851562 508.800781 158.28125 503.523438 162.804688 496.753906 C 167.328125 489.984375 169.742188 482.023438 169.742188 473.882812 C 169.730469 462.96875 165.386719 452.503906 157.671875 444.785156 C 149.953125 437.066406 139.488281 432.726562 128.574219 432.714844 Z M 128.574219 432.714844 " fill-opacity="1" fill-rule="nonzero"/></g><g clip-path="url(#dccbb35b45)"><path fill="#f9bd16" d="M 477.894531 530.984375 C 466.601562 530.984375 455.5625 527.636719 446.171875 521.359375 C 436.78125 515.085938 429.460938 506.167969 425.140625 495.734375 C 420.816406 485.300781 419.6875 473.820312 421.890625 462.742188 C 424.09375 451.667969 429.53125 441.492188 437.515625 433.507812 C 445.5 425.519531 455.675781 420.082031 466.753906 417.878906 C 477.828125 415.675781 489.308594 416.804688 499.742188 421.128906 C 510.179688 425.449219 519.097656 432.769531 525.371094 442.160156 C 531.644531 451.546875 534.996094 462.585938 534.996094 473.882812 C 534.976562 489.019531 528.957031 503.535156 518.25 514.238281 C 507.546875 524.945312 493.03125 530.964844 477.894531 530.984375 Z M 477.894531 432.714844 C 469.75 432.714844 461.792969 435.128906 455.023438 439.652344 C 448.25 444.175781 442.972656 450.605469 439.859375 458.128906 C 436.742188 465.648438 435.925781 473.929688 437.515625 481.914062 C 439.105469 489.898438 443.023438 497.234375 448.78125 502.992188 C 454.539062 508.75 461.875 512.671875 469.863281 514.261719 C 477.847656 515.847656 486.125 515.035156 493.648438 511.917969 C 501.171875 508.800781 507.601562 503.523438 512.125 496.753906 C 516.648438 489.984375 519.0625 482.023438 519.0625 473.882812 C 519.050781 462.96875 514.707031 452.503906 506.992188 444.785156 C 499.273438 437.066406 488.808594 432.726562 477.894531 432.714844 Z M 477.894531 432.714844 " fill-opacity="1" fill-rule="nonzero"/></g><g clip-path="url(#ade7d9c5f6)"><path fill="#f9bd16" d="M 381.453125 395.308594 L 15.878906 395.308594 C 13.765625 395.308594 11.738281 394.46875 10.246094 392.976562 C 8.753906 391.480469 7.914062 389.457031 7.914062 387.34375 C 7.914062 385.230469 8.753906 383.203125 10.246094 381.710938 C 11.738281 380.214844 13.765625 379.375 15.878906 379.375 L 381.453125 379.375 C 383.566406 379.375 385.59375 380.214844 387.085938 381.710938 C 388.578125 383.203125 389.417969 385.230469 389.417969 387.34375 C 389.417969 389.457031 388.578125 391.480469 387.085938 392.976562 C 385.59375 394.46875 383.566406 395.308594 381.453125 395.308594 Z M 381.453125 395.308594 " fill-opacity="1" fill-rule="nonzero"/></g><g clip-path="url(#96cb12ee5f)"><path fill="#f9bd16" d="M 584.113281 373.175781 L 428.746094 373.175781 C 426.632812 373.175781 424.605469 372.335938 423.113281 370.839844 C 421.617188 369.347656 420.78125 367.320312 420.78125 365.207031 L 420.78125 278.097656 C 420.78125 275.984375 421.617188 273.957031 423.113281 272.464844 C 424.605469 270.96875 426.632812 270.128906 428.746094 270.128906 L 524.105469 270.128906 C 526.21875 270.128906 528.242188 270.96875 529.738281 272.464844 C 531.230469 273.957031 532.070312 275.984375 532.070312 278.097656 C 532.070312 280.207031 531.230469 282.234375 529.738281 283.730469 C 528.242188 285.222656 526.21875 286.0625 524.105469 286.0625 L 436.710938 286.0625 L 436.710938 357.242188 L 584.113281 357.242188 C 586.226562 357.242188 588.25 358.082031 589.75 359.574219 C 591.242188 361.070312 592.082031 363.09375 592.082031 365.207031 C 592.082031 367.320312 591.242188 369.347656 589.75 370.839844 C 588.25 372.335938 586.226562 373.175781 584.113281 373.175781 Z M 584.113281 373.175781 " fill-opacity="1" fill-rule="nonzero"/></g><path fill="#f9bd16" d="M 84.121094 231.304688 L 63.195312 231.304688 C 61.082031 231.304688 59.058594 230.464844 57.5625 228.96875 C 56.070312 227.476562 55.230469 225.449219 55.230469 223.335938 C 55.230469 221.222656 56.070312 219.199219 57.5625 217.703125 C 59.058594 216.210938 61.082031 215.371094 63.195312 215.371094 L 84.121094 215.371094 C 86.234375 215.371094 88.257812 216.210938 89.753906 217.703125 C 91.246094 219.199219 92.085938 221.222656 92.085938 223.335938 C 92.085938 225.449219 91.246094 227.476562 89.753906 228.96875 C 88.257812 230.464844 86.234375 231.304688 84.121094 231.304688 Z M 84.121094 231.304688 " fill-opacity="1" fill-rule="nonzero"/><path fill="#f9bd16" d="M 228.355469 343.515625 L 189.855469 343.515625 C 187.742188 343.515625 185.714844 342.675781 184.222656 341.183594 C 182.726562 339.6875 181.886719 337.664062 181.886719 335.550781 L 181.886719 312.464844 C 172.894531 310.082031 164.265625 306.496094 156.230469 301.804688 L 139.945312 318.132812 C 138.449219 319.625 136.425781 320.464844 134.316406 320.46875 L 134.304688 320.46875 C 132.195312 320.46875 130.167969 319.632812 128.675781 318.140625 L 101.484375 291.003906 C 100.746094 290.261719 100.15625 289.386719 99.753906 288.417969 C 99.355469 287.453125 99.148438 286.414062 99.148438 285.371094 C 99.148438 284.324219 99.351562 283.285156 99.753906 282.320312 C 100.152344 281.351562 100.742188 280.472656 101.480469 279.734375 L 117.835938 263.375 C 113.085938 255.34375 109.472656 246.699219 107.097656 237.675781 L 84.121094 237.675781 C 82.007812 237.675781 79.980469 236.835938 78.488281 235.34375 C 76.992188 233.847656 76.152344 231.824219 76.152344 229.710938 L 76.152344 191.261719 C 76.152344 189.148438 76.992188 187.121094 78.488281 185.628906 C 79.980469 184.132812 82.007812 183.296875 84.121094 183.296875 L 107.109375 183.296875 C 108.277344 178.894531 109.75 174.582031 111.507812 170.382812 C 113.300781 165.976562 115.394531 161.703125 117.773438 157.582031 L 101.480469 141.292969 C 99.988281 139.796875 99.148438 137.769531 99.148438 135.660156 C 99.148438 133.546875 99.988281 131.519531 101.480469 130.027344 L 128.671875 102.835938 C 130.167969 101.34375 132.191406 100.503906 134.304688 100.503906 L 134.316406 100.503906 C 135.363281 100.507812 136.402344 100.714844 137.367188 101.117188 C 138.335938 101.519531 139.214844 102.109375 139.953125 102.851562 L 156.25 119.234375 C 164.28125 114.550781 172.90625 110.960938 181.886719 108.566406 L 181.886719 85.476562 C 181.886719 83.363281 182.726562 81.335938 184.222656 79.84375 C 185.714844 78.347656 187.742188 77.507812 189.855469 77.507812 L 228.355469 77.507812 C 230.46875 77.507812 232.496094 78.347656 233.988281 79.84375 C 235.484375 81.335938 236.324219 83.363281 236.324219 85.476562 L 236.324219 108.5625 C 245.292969 110.957031 253.910156 114.519531 261.949219 119.160156 L 278.273438 102.835938 C 279.796875 101.398438 281.8125 100.597656 283.90625 100.597656 C 286 100.597656 288.015625 101.398438 289.539062 102.835938 L 316.726562 130.027344 C 318.222656 131.523438 319.058594 133.546875 319.058594 135.660156 C 319.058594 137.773438 318.222656 139.800781 316.726562 141.292969 L 300.433594 157.585938 C 302.824219 161.71875 304.9375 166 306.769531 170.410156 C 308.492188 174.605469 309.941406 178.910156 311.101562 183.296875 L 334.195312 183.296875 C 336.308594 183.296875 338.335938 184.132812 339.832031 185.628906 C 341.324219 187.121094 342.164062 189.148438 342.164062 191.261719 L 342.164062 229.710938 C 342.164062 231.824219 341.324219 233.847656 339.832031 235.34375 C 338.335938 236.835938 336.308594 237.675781 334.195312 237.675781 L 311.109375 237.675781 C 308.703125 246.695312 305.105469 255.351562 300.417969 263.421875 L 316.726562 279.734375 C 317.464844 280.476562 318.050781 281.355469 318.453125 282.320312 C 318.851562 283.289062 319.058594 284.324219 319.058594 285.371094 C 319.058594 286.417969 318.851562 287.453125 318.449219 288.421875 C 318.046875 289.386719 317.460938 290.265625 316.71875 291.003906 L 289.53125 318.140625 C 288.035156 319.632812 286.011719 320.472656 283.898438 320.46875 L 283.890625 320.46875 C 281.777344 320.46875 279.753906 319.625 278.261719 318.128906 L 261.980469 301.804688 C 253.949219 306.5 245.316406 310.085938 236.324219 312.46875 L 236.324219 335.550781 C 236.324219 337.664062 235.484375 339.6875 233.988281 341.183594 C 232.496094 342.675781 230.46875 343.515625 228.355469 343.515625 Z M 197.820312 327.585938 L 220.390625 327.585938 L 220.390625 306.128906 C 220.390625 304.285156 221.03125 302.496094 222.203125 301.070312 C 223.375 299.644531 225.007812 298.671875 226.816406 298.3125 C 238.222656 296.058594 249.066406 291.550781 258.714844 285.0625 C 260.246094 284.035156 262.089844 283.574219 263.925781 283.757812 C 265.761719 283.941406 267.476562 284.753906 268.78125 286.058594 L 283.914062 301.234375 L 299.820312 285.359375 L 284.695312 270.230469 C 283.398438 268.933594 282.589844 267.230469 282.402344 265.40625 C 282.21875 263.582031 282.667969 261.75 283.675781 260.21875 C 290.148438 250.503906 294.660156 239.617188 296.957031 228.171875 C 297.316406 226.359375 298.289062 224.730469 299.714844 223.558594 C 301.140625 222.386719 302.929688 221.746094 304.777344 221.746094 L 326.230469 221.746094 L 326.230469 199.230469 L 304.777344 199.230469 C 302.933594 199.230469 301.148438 198.589844 299.722656 197.417969 C 298.296875 196.25 297.324219 194.621094 296.964844 192.8125 C 295.855469 187.230469 294.207031 181.765625 292.046875 176.5 C 289.785156 171.027344 286.996094 165.789062 283.710938 160.859375 C 282.683594 159.328125 282.222656 157.484375 282.402344 155.648438 C 282.582031 153.8125 283.394531 152.09375 284.699219 150.789062 L 299.828125 135.660156 L 283.90625 119.738281 L 268.773438 134.867188 C 267.484375 136.160156 265.785156 136.972656 263.964844 137.160156 C 262.144531 137.347656 260.316406 136.90625 258.785156 135.90625 C 249.082031 129.484375 238.226562 125.003906 226.816406 122.710938 C 225.007812 122.355469 223.375 121.378906 222.203125 119.953125 C 221.03125 118.527344 220.390625 116.742188 220.390625 114.894531 L 220.390625 93.441406 L 197.820312 93.441406 L 197.820312 114.894531 C 197.820312 116.742188 197.179688 118.527344 196.007812 119.953125 C 194.835938 121.378906 193.203125 122.355469 191.394531 122.710938 C 179.984375 124.996094 169.136719 129.503906 159.472656 135.980469 C 157.9375 136.996094 156.097656 137.453125 154.265625 137.265625 C 152.433594 137.082031 150.71875 136.265625 149.421875 134.960938 L 134.285156 119.75 L 118.375 135.660156 L 133.507812 150.792969 C 134.816406 152.09375 135.625 153.8125 135.808594 155.648438 C 135.988281 157.484375 135.523438 159.328125 134.496094 160.859375 C 131.21875 165.769531 128.449219 171 126.230469 176.472656 C 124.023438 181.738281 122.355469 187.210938 121.25 192.8125 C 120.890625 194.621094 119.914062 196.246094 118.488281 197.417969 C 117.066406 198.585938 115.277344 199.226562 113.433594 199.226562 L 92.085938 199.226562 L 92.085938 221.742188 L 113.433594 221.742188 C 115.28125 221.742188 117.070312 222.386719 118.496094 223.558594 C 119.921875 224.730469 120.894531 226.363281 121.25 228.175781 C 123.476562 239.582031 128.007812 250.414062 134.566406 260.007812 C 135.613281 261.542969 136.089844 263.390625 135.917969 265.238281 C 135.742188 267.085938 134.929688 268.816406 133.617188 270.128906 L 118.386719 285.363281 L 134.292969 301.238281 L 149.429688 286.0625 C 150.730469 284.753906 152.449219 283.941406 154.285156 283.757812 C 156.121094 283.578125 157.964844 284.039062 159.496094 285.066406 C 169.144531 291.550781 179.988281 296.054688 191.394531 298.316406 C 193.203125 298.675781 194.835938 299.648438 196.007812 301.074219 C 197.179688 302.5 197.820312 304.289062 197.820312 306.132812 Z M 244.5 181.4375 C 242.425781 181.441406 240.433594 180.632812 238.945312 179.183594 C 235.738281 176.09375 232.058594 173.535156 228.046875 171.601562 C 226.53125 170.847656 224.960938 170.207031 223.347656 169.683594 C 214.21875 166.394531 204.230469 166.367188 195.085938 169.609375 C 193.394531 170.160156 191.746094 170.828125 190.152344 171.609375 C 186.144531 173.539062 182.46875 176.097656 179.265625 179.183594 C 177.746094 180.621094 175.71875 181.402344 173.625 181.359375 C 171.535156 181.316406 169.542969 180.449219 168.085938 178.949219 C 166.625 177.449219 165.8125 175.433594 165.828125 173.34375 C 165.839844 171.25 166.679688 169.246094 168.15625 167.765625 C 172.574219 163.5 177.644531 159.964844 183.171875 157.289062 C 185.363281 156.214844 187.628906 155.296875 189.945312 154.53125 C 202.433594 150.207031 216.015625 150.234375 228.484375 154.609375 C 230.753906 155.347656 232.96875 156.253906 235.105469 157.320312 C 240.609375 159.988281 245.65625 163.511719 250.054688 167.761719 C 251.191406 168.867188 251.972656 170.285156 252.296875 171.835938 C 252.621094 173.390625 252.476562 175 251.882812 176.46875 C 251.285156 177.9375 250.265625 179.195312 248.949219 180.082031 C 247.632812 180.964844 246.085938 181.4375 244.5 181.4375 Z M 244.5 181.4375 " fill-opacity="1" fill-rule="nonzero"/><path fill="#f9bd16" d="M 209.132812 269.753906 C 202.519531 269.769531 195.953125 268.640625 189.726562 266.421875 C 187.351562 265.671875 185.054688 264.703125 182.863281 263.527344 C 171.121094 257.773438 161.640625 248.257812 155.925781 236.492188 C 154.828125 234.316406 153.886719 232.0625 153.109375 229.746094 C 148.769531 217.230469 148.785156 203.617188 153.148438 191.109375 C 153.933594 188.734375 154.917969 186.425781 156.089844 184.214844 C 159.082031 177.992188 163.210938 172.378906 168.257812 167.667969 C 169.800781 166.246094 171.84375 165.496094 173.941406 165.574219 C 176.035156 165.648438 178.019531 166.550781 179.453125 168.078125 C 180.890625 169.609375 181.664062 171.640625 181.609375 173.738281 C 181.554688 175.835938 180.675781 177.828125 179.164062 179.277344 C 175.46875 182.742188 172.457031 186.867188 170.28125 191.441406 C 169.441406 193.03125 168.738281 194.6875 168.179688 196.394531 C 165.015625 205.480469 165.003906 215.367188 168.136719 224.464844 C 168.699219 226.140625 169.375 227.777344 170.171875 229.359375 C 174.386719 238.074219 181.417969 245.117188 190.125 249.351562 C 191.636719 250.164062 193.222656 250.832031 194.863281 251.34375 C 203.992188 254.632812 213.980469 254.660156 223.128906 251.417969 C 224.691406 250.953125 226.207031 250.335938 227.65625 249.574219 C 236.503906 245.347656 243.675781 238.273438 248.027344 229.484375 C 248.785156 227.960938 249.433594 226.386719 249.964844 224.769531 C 251.617188 220.1875 252.464844 215.355469 252.464844 210.488281 C 252.472656 205.726562 251.664062 201 250.070312 196.515625 C 249.554688 194.847656 248.890625 193.222656 248.09375 191.667969 C 245.867188 187.019531 242.796875 182.820312 239.046875 179.277344 C 238.273438 178.566406 237.648438 177.707031 237.210938 176.75 C 236.773438 175.792969 236.527344 174.761719 236.488281 173.710938 C 236.453125 172.660156 236.621094 171.609375 236.992188 170.625 C 237.363281 169.640625 237.921875 168.738281 238.644531 167.972656 C 239.363281 167.203125 240.230469 166.589844 241.1875 166.15625 C 242.148438 165.726562 243.183594 165.492188 244.234375 165.460938 C 245.289062 165.433594 246.335938 165.613281 247.316406 165.992188 C 248.296875 166.371094 249.195312 166.941406 249.953125 167.667969 C 255.082031 172.488281 259.28125 178.207031 262.339844 184.542969 C 263.476562 186.75 264.417969 189.050781 265.160156 191.417969 C 267.332031 197.539062 268.429688 203.992188 268.398438 210.488281 C 268.417969 217.089844 267.289062 223.648438 265.058594 229.867188 C 264.3125 232.132812 263.40625 234.34375 262.34375 236.480469 C 256.511719 248.347656 246.890625 257.925781 235 263.707031 C 232.847656 264.847656 230.59375 265.78125 228.265625 266.496094 C 222.121094 268.671875 215.648438 269.773438 209.132812 269.753906 Z M 209.132812 269.753906 " fill-opacity="1" fill-rule="nonzero"/><path fill="#f9bd16" d="M 454.976562 202.90625 C 453.910156 202.90625 452.851562 202.6875 451.867188 202.273438 C 450.882812 201.855469 449.996094 201.246094 449.25 200.476562 L 415.824219 165.925781 C 405.527344 155.121094 399.78125 140.765625 399.78125 125.839844 C 399.78125 110.910156 405.527344 96.554688 415.824219 85.75 C 420.882812 80.460938 426.957031 76.25 433.6875 73.371094 C 440.417969 70.496094 447.660156 69.011719 454.976562 69.011719 C 462.296875 69.011719 469.539062 70.496094 476.269531 73.371094 C 483 76.25 489.074219 80.460938 494.132812 85.75 C 504.429688 96.554688 510.171875 110.910156 510.171875 125.839844 C 510.171875 140.765625 504.429688 155.121094 494.132812 165.925781 L 460.703125 200.476562 C 459.960938 201.242188 459.070312 201.855469 458.085938 202.273438 C 457.101562 202.6875 456.046875 202.902344 454.976562 202.90625 Z M 454.976562 84.945312 C 449.796875 84.949219 444.667969 86.003906 439.90625 88.046875 C 435.148438 90.089844 430.847656 93.074219 427.273438 96.828125 C 419.824219 104.648438 415.664062 115.035156 415.664062 125.839844 C 415.664062 136.640625 419.824219 147.03125 427.273438 154.851562 L 454.976562 183.480469 L 482.683594 154.851562 C 490.132812 147.027344 494.292969 136.640625 494.292969 125.839844 C 494.292969 115.035156 490.132812 104.648438 482.683594 96.828125 C 479.109375 93.074219 474.808594 90.089844 470.046875 88.046875 C 465.285156 86.003906 460.160156 84.949219 454.976562 84.945312 Z M 454.976562 84.945312 " fill-opacity="1" fill-rule="nonzero"/><path fill="#f9bd16" d="M 454.976562 141.929688 C 465.675781 141.929688 474.351562 133.257812 474.351562 122.558594 C 474.351562 111.859375 465.675781 103.183594 454.976562 103.183594 C 444.277344 103.183594 435.605469 111.859375 435.605469 122.558594 C 435.605469 133.257812 444.277344 141.929688 454.976562 141.929688 Z M 454.976562 141.929688 " fill-opacity="1" fill-rule="nonzero"/></svg>