<svg xmlns="http://www.w3.org/2000/svg" xmlns:xlink="http://www.w3.org/1999/xlink" width="800" zoomAndPan="magnify" viewBox="0 0 600 599.999999" height="800" preserveAspectRatio="xMidYMid meet" version="1.0"><defs><clipPath id="a39a92175e"><path d="M 93 17 L 508.855469 17 L 508.855469 590.371094 L 93 590.371094 Z M 93 17 " clip-rule="nonzero"/></clipPath></defs><g clip-path="url(#a39a92175e)"><path fill="#f9bd16" d="M 186.546875 163.453125 C 185.730469 162.3125 184.941406 161.15625 184.175781 159.980469 C 183.410156 158.804688 182.675781 157.609375 181.964844 156.398438 C 181.253906 155.191406 180.574219 153.964844 179.917969 152.722656 C 179.265625 151.480469 178.640625 150.226562 178.042969 148.957031 C 177.449219 147.6875 176.882812 146.40625 176.34375 145.109375 C 175.804688 143.8125 175.296875 142.507812 174.820312 141.1875 C 174.339844 139.867188 173.894531 138.539062 173.476562 137.199219 C 173.058594 135.859375 172.671875 134.511719 172.316406 133.15625 C 171.960938 131.800781 171.636719 130.433594 171.34375 129.0625 C 171.050781 127.691406 170.789062 126.3125 170.558594 124.929688 C 170.328125 123.546875 170.128906 122.15625 169.960938 120.765625 C 169.792969 119.371094 169.660156 117.976562 169.554688 116.578125 C 169.453125 115.179688 169.382812 113.777344 169.339844 112.375 C 169.300781 110.972656 169.296875 109.570312 169.320312 108.167969 C 169.34375 106.765625 169.402344 105.363281 169.492188 103.964844 C 169.578125 102.566406 169.699219 101.167969 169.851562 99.773438 C 170.003906 98.378906 170.191406 96.988281 170.40625 95.601562 C 170.621094 94.214844 170.871094 92.835938 171.148438 91.460938 C 171.429688 90.085938 171.738281 88.71875 172.082031 87.359375 C 172.421875 85.996094 172.792969 84.644531 173.199219 83.300781 C 173.601562 81.957031 174.035156 80.625 174.5 79.300781 C 174.964844 77.976562 175.457031 76.664062 175.984375 75.363281 C 176.507812 74.0625 177.0625 72.773438 177.644531 71.5 C 178.226562 70.222656 178.839844 68.960938 179.480469 67.714844 C 180.121094 66.464844 180.789062 65.234375 181.488281 64.015625 C 182.183594 62.800781 182.910156 61.597656 183.660156 60.414062 C 184.414062 59.230469 185.191406 58.0625 185.996094 56.914062 C 186.804688 55.765625 187.632812 54.636719 188.492188 53.527344 C 189.347656 52.414062 190.230469 51.324219 191.136719 50.253906 C 192.042969 49.183594 192.972656 48.136719 193.929688 47.109375 C 194.882812 46.078125 195.863281 45.074219 196.863281 44.089844 C 197.863281 43.109375 198.886719 42.148438 199.929688 41.210938 C 200.972656 40.277344 202.039062 39.363281 203.125 38.476562 C 204.210938 37.589844 205.316406 36.726562 206.445312 35.886719 C 207.570312 35.050781 208.714844 34.242188 209.875 33.457031 C 211.039062 32.671875 212.21875 31.914062 213.414062 31.179688 C 214.613281 30.449219 215.824219 29.746094 217.054688 29.070312 C 218.285156 28.394531 219.527344 27.75 220.789062 27.128906 C 222.046875 26.511719 223.320312 25.921875 224.605469 25.359375 C 225.890625 24.800781 227.1875 24.269531 228.5 23.769531 C 229.808594 23.265625 231.128906 22.796875 232.460938 22.355469 C 233.792969 21.914062 235.136719 21.503906 236.484375 21.125 C 237.835938 20.746094 239.195312 20.394531 240.558594 20.078125 C 241.925781 19.761719 243.300781 19.472656 244.679688 19.21875 C 246.058594 18.964844 247.441406 18.742188 248.832031 18.550781 C 250.222656 18.359375 251.617188 18.199219 253.011719 18.070312 C 254.410156 17.941406 255.808594 17.847656 257.210938 17.78125 C 258.609375 17.71875 260.011719 17.6875 261.417969 17.6875 C 262.820312 17.6875 264.222656 17.71875 265.621094 17.78125 C 267.023438 17.847656 268.421875 17.941406 269.820312 18.070312 C 271.214844 18.199219 272.609375 18.359375 274 18.550781 C 275.390625 18.742188 276.773438 18.964844 278.152344 19.21875 C 279.53125 19.472656 280.90625 19.761719 282.273438 20.078125 C 283.636719 20.394531 284.996094 20.746094 286.347656 21.125 C 287.695312 21.503906 289.039062 21.914062 290.371094 22.355469 C 291.703125 22.796875 293.023438 23.265625 294.332031 23.769531 C 295.644531 24.269531 296.941406 24.800781 298.226562 25.359375 C 299.511719 25.921875 300.785156 26.511719 302.042969 27.128906 C 303.304688 27.75 304.546875 28.394531 305.777344 29.070312 C 307.007812 29.746094 308.21875 30.449219 309.417969 31.179688 C 310.613281 31.914062 311.792969 32.671875 312.957031 33.457031 C 314.117188 34.242188 315.261719 35.050781 316.386719 35.886719 C 317.515625 36.726562 318.621094 37.589844 319.707031 38.476562 C 320.792969 39.363281 321.859375 40.277344 322.902344 41.210938 C 323.945312 42.148438 324.96875 43.109375 325.96875 44.089844 C 326.96875 45.074219 327.949219 46.078125 328.902344 47.109375 C 329.859375 48.136719 330.789062 49.183594 331.695312 50.253906 C 332.601562 51.324219 333.484375 52.414062 334.339844 53.527344 C 335.199219 54.636719 336.027344 55.765625 336.835938 56.914062 C 337.640625 58.0625 338.417969 59.230469 339.171875 60.414062 C 339.921875 61.597656 340.648438 62.800781 341.34375 64.015625 C 342.042969 65.234375 342.710938 66.464844 343.351562 67.714844 C 343.992188 68.960938 344.605469 70.222656 345.1875 71.5 C 345.769531 72.773438 346.324219 74.0625 346.847656 75.363281 C 347.375 76.664062 347.867188 77.976562 348.332031 79.300781 C 348.796875 80.625 349.230469 81.957031 349.632812 83.300781 C 350.039062 84.644531 350.410156 85.996094 350.75 87.359375 C 351.09375 88.71875 351.402344 90.085938 351.683594 91.460938 C 351.960938 92.835938 352.210938 94.214844 352.425781 95.601562 C 352.640625 96.988281 352.828125 98.378906 352.980469 99.773438 C 353.132812 101.167969 353.253906 102.566406 353.34375 103.964844 C 353.429688 105.363281 353.488281 106.765625 353.511719 108.167969 C 353.535156 109.570312 353.53125 110.972656 353.492188 112.375 C 353.453125 113.777344 353.378906 115.179688 353.277344 116.578125 C 353.171875 117.976562 353.039062 119.371094 352.871094 120.765625 C 352.703125 122.15625 352.503906 123.546875 352.273438 124.929688 C 352.042969 126.3125 351.78125 127.691406 351.488281 129.0625 C 351.195312 130.433594 350.871094 131.800781 350.515625 133.15625 C 350.160156 134.511719 349.773438 135.859375 349.355469 137.199219 C 348.9375 138.539062 348.492188 139.867188 348.011719 141.1875 C 347.535156 142.507812 347.027344 143.8125 346.488281 145.109375 C 345.949219 146.40625 345.382812 147.6875 344.789062 148.957031 C 344.191406 150.226562 343.566406 151.480469 342.914062 152.722656 C 342.257812 153.964844 341.578125 155.191406 340.867188 156.398438 C 340.15625 157.609375 339.421875 158.804688 338.65625 159.980469 C 337.890625 161.15625 337.101562 162.3125 336.285156 163.453125 C 335.941406 163.929688 335.554688 164.371094 335.125 164.769531 C 334.695312 165.171875 334.230469 165.523438 333.730469 165.835938 C 333.230469 166.144531 332.707031 166.398438 332.15625 166.605469 C 331.605469 166.8125 331.039062 166.960938 330.460938 167.054688 C 329.882812 167.152344 329.296875 167.1875 328.710938 167.167969 C 328.125 167.148438 327.542969 167.070312 326.972656 166.9375 C 326.398438 166.800781 325.847656 166.613281 325.3125 166.371094 C 324.777344 166.125 324.273438 165.832031 323.796875 165.492188 C 323.316406 165.148438 322.878906 164.761719 322.476562 164.332031 C 322.078125 163.902344 321.722656 163.4375 321.410156 162.941406 C 321.101562 162.441406 320.84375 161.917969 320.636719 161.367188 C 320.429688 160.816406 320.28125 160.25 320.183594 159.671875 C 320.089844 159.09375 320.050781 158.507812 320.070312 157.921875 C 320.089844 157.335938 320.167969 156.753906 320.300781 156.183594 C 320.433594 155.609375 320.625 155.058594 320.867188 154.523438 C 321.109375 153.988281 321.402344 153.480469 321.742188 153.003906 C 323.058594 151.164062 324.289062 149.273438 325.433594 147.320312 C 326.578125 145.371094 327.628906 143.371094 328.589844 141.324219 C 329.550781 139.277344 330.414062 137.191406 331.183594 135.066406 C 331.953125 132.941406 332.625 130.785156 333.199219 128.597656 C 333.773438 126.410156 334.242188 124.199219 334.613281 121.96875 C 334.984375 119.738281 335.253906 117.496094 335.421875 115.242188 C 335.585938 112.988281 335.648438 110.730469 335.609375 108.46875 C 335.566406 106.207031 335.425781 103.953125 335.179688 101.707031 C 334.929688 99.457031 334.582031 97.226562 334.132812 95.011719 C 333.683594 92.796875 333.132812 90.605469 332.480469 88.441406 C 331.828125 86.273438 331.082031 84.144531 330.234375 82.046875 C 329.390625 79.949219 328.453125 77.894531 327.417969 75.882812 C 326.382812 73.871094 325.261719 71.914062 324.050781 70.003906 C 322.835938 68.097656 321.539062 66.246094 320.160156 64.457031 C 318.777344 62.667969 317.316406 60.945312 315.777344 59.289062 C 314.238281 57.632812 312.628906 56.046875 310.945312 54.539062 C 309.261719 53.03125 307.511719 51.601562 305.695312 50.25 C 303.882812 48.902344 302.011719 47.640625 300.082031 46.460938 C 298.152344 45.28125 296.171875 44.195312 294.140625 43.199219 C 292.113281 42.199219 290.042969 41.296875 287.929688 40.488281 C 285.820312 39.683594 283.675781 38.972656 281.496094 38.359375 C 279.320312 37.75 277.121094 37.238281 274.898438 36.828125 C 272.675781 36.414062 270.4375 36.105469 268.183594 35.902344 C 265.933594 35.695312 263.675781 35.589844 261.414062 35.589844 C 259.15625 35.589844 256.898438 35.695312 254.648438 35.902344 C 252.394531 36.105469 250.15625 36.414062 247.933594 36.828125 C 245.710938 37.238281 243.511719 37.75 241.335938 38.359375 C 239.15625 38.972656 237.011719 39.683594 234.902344 40.488281 C 232.789062 41.296875 230.71875 42.199219 228.691406 43.199219 C 226.660156 44.195312 224.679688 45.28125 222.75 46.460938 C 220.820312 47.640625 218.949219 48.902344 217.136719 50.25 C 215.320312 51.601562 213.570312 53.03125 211.886719 54.539062 C 210.203125 56.046875 208.59375 57.632812 207.054688 59.289062 C 205.515625 60.945312 204.054688 62.667969 202.671875 64.457031 C 201.292969 66.246094 199.996094 68.097656 198.78125 70.003906 C 197.570312 71.914062 196.449219 73.871094 195.414062 75.882812 C 194.378906 77.894531 193.441406 79.949219 192.597656 82.046875 C 191.75 84.144531 191.003906 86.273438 190.351562 88.441406 C 189.699219 90.605469 189.148438 92.796875 188.699219 95.011719 C 188.25 97.226562 187.902344 99.457031 187.652344 101.707031 C 187.40625 103.953125 187.265625 106.207031 187.222656 108.46875 C 187.183594 110.730469 187.246094 112.988281 187.410156 115.242188 C 187.578125 117.496094 187.847656 119.738281 188.21875 121.96875 C 188.589844 124.199219 189.058594 126.410156 189.632812 128.597656 C 190.207031 130.785156 190.878906 132.941406 191.648438 135.066406 C 192.417969 137.191406 193.28125 139.277344 194.242188 141.324219 C 195.203125 143.371094 196.253906 145.371094 197.398438 147.320312 C 198.542969 149.273438 199.773438 151.164062 201.089844 153.003906 C 201.425781 153.480469 201.710938 153.988281 201.949219 154.519531 C 202.183594 155.054688 202.367188 155.605469 202.496094 156.175781 C 202.625 156.746094 202.699219 157.324219 202.714844 157.90625 C 202.730469 158.488281 202.691406 159.070312 202.59375 159.644531 C 202.496094 160.222656 202.34375 160.78125 202.136719 161.328125 C 201.929688 161.875 201.671875 162.394531 201.359375 162.890625 C 201.050781 163.386719 200.699219 163.847656 200.300781 164.273438 C 199.898438 164.699219 199.464844 165.082031 198.988281 165.421875 C 198.515625 165.765625 198.011719 166.054688 197.480469 166.296875 C 196.949219 166.539062 196.398438 166.730469 195.832031 166.863281 C 195.261719 167 194.6875 167.078125 194.105469 167.097656 C 193.519531 167.121094 192.941406 167.085938 192.363281 166.996094 C 191.785156 166.902344 191.222656 166.757812 190.675781 166.554688 C 190.128906 166.355469 189.605469 166.101562 189.105469 165.796875 C 188.605469 165.496094 188.140625 165.144531 187.710938 164.75 C 187.28125 164.355469 186.894531 163.921875 186.546875 163.453125 Z M 496.648438 293.074219 C 494.621094 290.984375 492.40625 289.117188 490.003906 287.472656 C 487.605469 285.824219 485.0625 284.433594 482.382812 283.292969 C 479.707031 282.15625 476.941406 281.292969 474.089844 280.707031 C 471.234375 280.121094 468.355469 279.824219 465.445312 279.816406 C 460.945312 279.8125 456.558594 280.5 452.277344 281.878906 C 448 283.261719 444.035156 285.265625 440.386719 287.898438 L 440.386719 287.6875 C 440.390625 285.714844 440.253906 283.75 439.984375 281.796875 C 439.714844 279.84375 439.3125 277.917969 438.777344 276.019531 C 438.242188 274.121094 437.578125 272.269531 436.789062 270.464844 C 436 268.65625 435.089844 266.914062 434.058594 265.230469 C 433.027344 263.550781 431.886719 261.949219 430.636719 260.421875 C 429.382812 258.898438 428.035156 257.46875 426.585938 256.128906 C 425.136719 254.792969 423.601562 253.558594 421.984375 252.433594 C 420.367188 251.304688 418.675781 250.296875 416.917969 249.402344 C 415.164062 248.507812 413.351562 247.738281 411.488281 247.09375 C 409.625 246.449219 407.726562 245.933594 405.789062 245.550781 C 403.855469 245.167969 401.90625 244.917969 399.9375 244.804688 C 397.96875 244.691406 396 244.710938 394.035156 244.867188 C 392.066406 245.023438 390.121094 245.316406 388.195312 245.742188 C 386.269531 246.164062 384.382812 246.722656 382.535156 247.40625 C 380.683594 248.089844 378.890625 248.898438 377.152344 249.832031 C 375.414062 250.761719 373.75 251.808594 372.15625 252.972656 C 372.058594 252.042969 371.933594 251.113281 371.777344 250.191406 C 371.621094 249.269531 371.433594 248.351562 371.21875 247.441406 C 371.003906 246.53125 370.757812 245.628906 370.480469 244.734375 C 370.207031 243.839844 369.902344 242.953125 369.566406 242.078125 C 369.234375 241.203125 368.875 240.34375 368.484375 239.492188 C 368.09375 238.640625 367.675781 237.800781 367.234375 236.980469 C 366.789062 236.15625 366.316406 235.347656 365.820312 234.554688 C 365.324219 233.761719 364.800781 232.984375 364.253906 232.226562 C 363.703125 231.46875 363.132812 230.726562 362.535156 230.007812 C 361.941406 229.285156 361.320312 228.582031 360.679688 227.902344 C 360.035156 227.222656 359.371094 226.5625 358.6875 225.925781 C 358 225.289062 357.296875 224.671875 356.570312 224.082031 C 355.84375 223.492188 355.101562 222.925781 354.335938 222.382812 C 353.574219 221.839844 352.796875 221.320312 352 220.828125 C 351.203125 220.339844 350.390625 219.875 349.5625 219.433594 C 348.738281 218.996094 347.898438 218.585938 347.042969 218.203125 C 346.1875 217.816406 345.324219 217.460938 344.445312 217.136719 C 343.570312 216.808594 342.683594 216.511719 341.785156 216.242188 C 340.890625 215.972656 339.984375 215.734375 339.074219 215.523438 C 338.160156 215.3125 337.242188 215.132812 336.320312 214.984375 C 335.394531 214.835938 334.46875 214.714844 333.535156 214.625 C 332.605469 214.535156 331.671875 214.476562 330.734375 214.449219 C 329.800781 214.421875 328.863281 214.425781 327.929688 214.457031 C 326.992188 214.492188 326.058594 214.554688 325.128906 214.648438 C 324.199219 214.742188 323.269531 214.867188 322.347656 215.023438 C 321.425781 215.175781 320.507812 215.363281 319.597656 215.578125 C 318.683594 215.792969 317.78125 216.035156 316.886719 216.308594 C 315.992188 216.582031 315.105469 216.886719 314.230469 217.21875 C 313.355469 217.550781 312.492188 217.910156 311.640625 218.296875 C 310.789062 218.6875 309.953125 219.101562 309.128906 219.542969 C 308.304688 219.988281 307.492188 220.457031 306.699219 220.953125 C 305.90625 221.449219 305.128906 221.96875 304.371094 222.515625 L 304.371094 109.808594 C 304.371094 108.402344 304.300781 107 304.164062 105.597656 C 304.023438 104.199219 303.820312 102.808594 303.542969 101.429688 C 303.269531 100.050781 302.929688 98.6875 302.519531 97.339844 C 302.113281 95.992188 301.636719 94.671875 301.101562 93.371094 C 300.5625 92.070312 299.960938 90.800781 299.296875 89.5625 C 298.632812 88.320312 297.914062 87.113281 297.128906 85.945312 C 296.347656 84.773438 295.511719 83.648438 294.621094 82.558594 C 293.726562 81.472656 292.785156 80.429688 291.789062 79.4375 C 290.792969 78.441406 289.753906 77.496094 288.664062 76.605469 C 287.578125 75.710938 286.449219 74.875 285.28125 74.09375 C 284.109375 73.3125 282.90625 72.589844 281.664062 71.925781 C 280.421875 71.265625 279.152344 70.664062 277.851562 70.125 C 276.554688 69.585938 275.230469 69.113281 273.882812 68.703125 C 272.539062 68.296875 271.175781 67.953125 269.796875 67.679688 C 268.414062 67.40625 267.027344 67.199219 265.625 67.0625 C 264.226562 66.921875 262.820312 66.855469 261.414062 66.855469 C 260.007812 66.855469 258.605469 66.921875 257.207031 67.0625 C 255.804688 67.199219 254.414062 67.40625 253.035156 67.679688 C 251.65625 67.953125 250.292969 68.296875 248.945312 68.703125 C 247.601562 69.113281 246.277344 69.585938 244.976562 70.125 C 243.675781 70.664062 242.40625 71.265625 241.167969 71.925781 C 239.925781 72.589844 238.722656 73.3125 237.550781 74.09375 C 236.382812 74.875 235.253906 75.710938 234.164062 76.605469 C 233.078125 77.496094 232.035156 78.441406 231.042969 79.4375 C 230.046875 80.429688 229.105469 81.472656 228.210938 82.558594 C 227.320312 83.648438 226.480469 84.773438 225.699219 85.945312 C 224.917969 87.113281 224.195312 88.320312 223.53125 89.5625 C 222.871094 90.800781 222.269531 92.070312 221.730469 93.371094 C 221.191406 94.671875 220.71875 95.992188 220.3125 97.339844 C 219.902344 98.6875 219.5625 100.050781 219.285156 101.429688 C 219.011719 102.808594 218.804688 104.199219 218.667969 105.597656 C 218.53125 107 218.460938 108.402344 218.460938 109.808594 L 218.460938 374.078125 L 180.941406 336.53125 C 165.859375 321.460938 146.492188 315.75 127.824219 320.878906 C 111.5 325.375 98.507812 337.820312 94.75 352.609375 C 91.261719 366.296875 95.714844 379.96875 107.261719 391.113281 C 120.386719 403.761719 140.824219 440.027344 158.871094 472.039062 C 173.59375 498.15625 186.316406 520.726562 195.117188 531.082031 C 200.363281 537.296875 206.035156 543.101562 212.128906 548.492188 C 218.222656 553.882812 224.675781 558.804688 231.484375 563.253906 C 238.296875 567.707031 245.394531 571.636719 252.777344 575.054688 C 260.164062 578.46875 267.757812 581.332031 275.558594 583.636719 C 290.117188 587.941406 304.988281 590.101562 320.167969 590.125 C 328.792969 590.125 337.355469 589.402344 345.859375 587.957031 C 354.363281 586.511719 362.683594 584.367188 370.824219 581.515625 C 408.996094 568.152344 441.550781 539.84375 464.996094 499.640625 C 491.550781 454.09375 506.152344 394.679688 508.398438 323.0625 C 508.484375 320.292969 508.289062 317.546875 507.816406 314.820312 C 507.34375 312.09375 506.605469 309.441406 505.59375 306.863281 C 504.585938 304.289062 503.328125 301.839844 501.820312 299.515625 C 500.3125 297.195312 498.589844 295.046875 496.648438 293.074219 Z M 496.648438 293.074219 " fill-opacity="1" fill-rule="nonzero"/></g></svg>