<svg xmlns="http://www.w3.org/2000/svg" xmlns:xlink="http://www.w3.org/1999/xlink" width="800" zoomAndPan="magnify" viewBox="0 0 600 599.999999" height="800" preserveAspectRatio="xMidYMid meet" version="1.0"><defs><clipPath id="9570ca2d1e"><path d="M 3.222656 188.652344 L 404 188.652344 L 404 588.59375 L 3.222656 588.59375 Z M 3.222656 188.652344 " clip-rule="nonzero"/></clipPath><clipPath id="1479f7c78f"><path d="M 306.175781 11.09375 L 596.78125 11.09375 L 596.78125 298 L 306.175781 298 Z M 306.175781 11.09375 " clip-rule="nonzero"/></clipPath></defs><g clip-path="url(#9570ca2d1e)"><path fill="#f9bd16" d="M 351.464844 434.25 L 370.023438 451.835938 C 370.640625 452.46875 371.210938 454.503906 371.035156 455.253906 C 369.074219 460.3125 366.839844 465.3125 364.394531 470.128906 C 361.808594 475.21875 358.882812 480.285156 355.738281 485.109375 C 355.300781 485.628906 353.570312 486.664062 352.226562 486.421875 L 327.328125 481.835938 C 318.214844 480.144531 306.585938 483.847656 299.746094 490.40625 C 296.257812 493.753906 292.488281 497.003906 288.574219 500.039062 C 280.878906 505.96875 275.679688 516.636719 275.929688 525.96875 L 276.597656 551.035156 C 276.585938 551.941406 275.523438 553.828125 274.851562 554.246094 C 269.511719 556.652344 264.054688 558.765625 258.648438 560.527344 C 253.539062 562.195312 248.238281 563.632812 243.011719 564.78125 L 242.96875 564.785156 C 241.90625 564.785156 240.167969 563.898438 239.703125 563.269531 L 225.523438 542.710938 C 222.078125 537.714844 215.003906 529.335938 206.289062 529.335938 C 206.085938 529.335938 205.800781 529.34375 205.601562 529.351562 C 198.683594 529.722656 191.699219 529.167969 184.570312 528.21875 C 175.160156 526.960938 163.566406 530.910156 157.25 537.585938 L 140.21875 555.554688 C 139.855469 555.910156 138.472656 556.566406 136.828125 556.578125 C 131.785156 554.613281 126.769531 552.371094 121.929688 549.921875 C 118.398438 548.125 114.730469 546.046875 110.382812 543.363281 L 109.027344 542.542969 C 108.289062 542.097656 107.558594 541.65625 107.058594 541.363281 C 106.929688 541.195312 106.765625 540.996094 106.59375 540.808594 C 105.855469 539.71875 105.582031 538.25 105.65625 537.75 L 110.011719 514.066406 C 111.707031 504.839844 108.15625 493.5 101.386719 486.496094 C 97.660156 482.636719 94.113281 478.503906 90.851562 474.242188 C 85.136719 466.742188 74.746094 461.503906 65.578125 461.503906 C 65.472656 461.503906 65.03125 461.511719 64.917969 461.515625 L 40.769531 462.171875 C 39.882812 462.167969 38.023438 461.121094 37.605469 460.457031 C 35.429688 455.539062 33.472656 450.425781 31.78125 445.253906 C 29.992188 439.769531 28.488281 434.125 27.316406 428.542969 C 27.246094 427.648438 28.15625 425.675781 28.886719 425.132812 L 48.359375 411.710938 C 56.09375 406.386719 61.597656 395.84375 61.738281 386.125 C 61.839844 380.578125 62.277344 375.019531 63.019531 369.589844 C 64.339844 359.9375 60.515625 348.691406 53.71875 342.25 L 36.609375 326.023438 C 35.964844 325.378906 35.382812 323.277344 35.558594 322.507812 C 37.59375 317.136719 39.960938 311.785156 42.585938 306.605469 C 45.066406 301.734375 47.785156 296.976562 50.609375 292.558594 C 51.042969 292.054688 52.644531 291.269531 54.019531 291.269531 L 54.027344 291.269531 L 77.464844 295.585938 C 86.613281 297.289062 98.214844 293.566406 105.042969 286.992188 C 109.027344 283.164062 113.265625 279.550781 117.644531 276.25 C 125.433594 270.371094 130.703125 259.71875 130.457031 250.335938 L 129.804688 226.320312 C 129.816406 225.4375 130.847656 223.578125 131.496094 223.171875 C 136.492188 220.972656 141.609375 219.015625 146.722656 217.351562 C 152.148438 215.574219 157.800781 214.066406 163.488281 212.875 C 164.570312 212.875 166.351562 213.78125 166.839844 214.441406 L 180.636719 234.464844 C 184.859375 240.582031 191.539062 247.871094 199.386719 247.867188 C 199.339844 247.890625 199.832031 247.863281 200.019531 247.851562 C 207.179688 247.5 214.429688 248.117188 221.8125 249.167969 C 231.214844 250.496094 242.875 246.589844 249.214844 239.898438 L 266.03125 222.144531 C 266.402344 221.769531 267.832031 221.089844 269.550781 221.085938 C 275.035156 223.171875 280.386719 225.539062 285.46875 228.125 C 290.273438 230.5625 295.03125 233.285156 299.464844 236.140625 C 299.574219 236.273438 299.683594 236.398438 299.796875 236.523438 C 299.804688 236.535156 299.816406 236.550781 299.824219 236.5625 C 299.867188 236.640625 299.914062 236.722656 299.96875 236.800781 C 300.65625 237.929688 300.84375 239.195312 300.796875 239.566406 L 296.265625 264.183594 C 294.554688 273.367188 298.039062 284.707031 304.726562 291.761719 C 308.195312 295.425781 311.484375 299.300781 314.519531 303.300781 C 320.242188 310.808594 330.625 316.054688 339.78125 316.054688 C 339.886719 316.054688 340.328125 316.046875 340.4375 316.046875 L 365.433594 315.367188 C 366.347656 315.371094 368.257812 316.433594 368.683594 317.109375 C 371.070312 322.417969 373.183594 327.875 374.96875 333.363281 C 376.628906 338.417969 378.070312 343.699219 379.230469 348.960938 C 379.304688 349.824219 378.425781 351.746094 377.714844 352.269531 L 356.773438 366.707031 C 349.074219 372.007812 343.535156 382.496094 343.285156 392.203125 C 343.15625 397.042969 342.765625 402.007812 342.121094 406.929688 C 340.820312 416.59375 344.671875 427.832031 351.464844 434.25 Z M 370.445312 386.554688 L 391.382812 372.121094 C 400.109375 366.121094 405.011719 353.980469 402.789062 343.886719 C 401.429688 337.730469 399.777344 331.660156 397.878906 325.871094 C 395.832031 319.59375 393.40625 313.320312 390.664062 307.230469 C 386.511719 297.980469 375.898438 291.265625 365.433594 291.265625 C 365.324219 291.265625 364.914062 291.269531 364.800781 291.273438 L 339.78125 291.953125 C 338.269531 291.953125 334.925781 290.3125 333.707031 288.71875 C 330.160156 284.039062 326.296875 279.492188 322.226562 275.1875 C 320.84375 273.730469 319.699219 270.011719 319.964844 268.566406 L 324.503906 243.910156 C 325.648438 237.613281 324.296875 230.628906 320.796875 224.675781 C 320.679688 224.464844 320.5625 224.261719 320.433594 224.0625 C 319.820312 223.085938 319.183594 222.152344 318.558594 221.386719 C 318.257812 220.996094 317.925781 220.625 317.699219 220.378906 C 317.09375 219.683594 316.488281 219.023438 315.9375 218.523438 C 314.867188 217.523438 313.765625 216.648438 312.597656 215.90625 C 307.34375 212.550781 301.894531 209.433594 296.394531 206.636719 C 290.554688 203.667969 284.40625 200.953125 278.109375 198.554688 C 268.605469 194.9375 255.566406 198.132812 248.53125 205.566406 L 231.714844 223.324219 C 231.046875 224.035156 228.300781 225.226562 225.207031 225.308594 C 217.65625 224.230469 210.113281 223.679688 202.78125 223.671875 C 202.109375 222.945312 201.296875 221.964844 200.480469 220.785156 L 186.699219 200.777344 C 180.835938 192.25 168.492188 187.1875 158.570312 189.277344 C 151.988281 190.660156 145.484375 192.398438 139.25 194.4375 C 133.386719 196.34375 127.515625 198.589844 121.785156 201.109375 C 112.359375 205.257812 105.449219 216.355469 105.714844 226.945312 L 106.363281 250.980469 C 106.402344 252.402344 104.703125 255.820312 103.128906 257.007812 C 97.988281 260.882812 93.019531 265.125 88.339844 269.617188 C 87.242188 270.675781 84.367188 272.164062 81.828125 271.886719 L 58.390625 267.566406 C 48.074219 265.6875 35.863281 270.90625 30.382812 279.464844 C 27.0625 284.644531 23.941406 290.101562 21.101562 295.6875 C 18.078125 301.640625 15.363281 307.792969 13.015625 313.984375 C 9.378906 323.621094 12.410156 336.332031 20.042969 343.53125 L 37.136719 359.738281 C 38.171875 360.726562 39.410156 364.363281 39.140625 366.3125 C 38.269531 372.671875 37.765625 379.183594 37.640625 385.722656 C 37.613281 387.6875 35.859375 391.054688 34.683594 391.863281 L 15.214844 405.289062 C 6.535156 411.261719 1.59375 423.359375 3.714844 433.394531 C 5.074219 439.910156 6.808594 446.421875 8.875 452.734375 C 10.8125 458.667969 13.058594 464.542969 15.546875 470.175781 C 19.6875 479.597656 30.726562 486.445312 41.402344 486.265625 L 65.578125 485.605469 C 67.097656 485.605469 70.453125 487.238281 71.695312 488.867188 C 75.527344 493.875 79.679688 498.710938 84.054688 503.234375 C 85.417969 504.65625 86.5625 508.300781 86.308594 509.707031 L 81.957031 533.378906 C 80.566406 540.859375 82.777344 549.453125 87.566406 555.605469 C 87.730469 555.824219 88.039062 556.191406 88.3125 556.507812 C 88.953125 557.304688 89.652344 558.066406 90.375 558.75 C 91.398438 559.722656 92.507812 560.605469 93.742188 561.421875 C 94.671875 562.027344 95.621094 562.601562 96.574219 563.175781 L 97.746094 563.890625 C 102.664062 566.917969 106.878906 569.308594 111.03125 571.417969 C 116.574219 574.222656 122.304688 576.78125 128.097656 579.042969 C 137.605469 582.734375 150.679688 579.570312 157.714844 572.132812 L 174.75 554.160156 C 175.53125 553.332031 178.394531 552.105469 181.285156 552.105469 C 181.316406 552.105469 181.351562 552.105469 181.386719 552.105469 C 188.78125 553.089844 196.125 553.496094 203.339844 553.535156 C 204.011719 554.226562 204.855469 555.195312 205.679688 556.386719 L 219.859375 576.953125 C 224.78125 584.09375 234.070312 588.886719 242.96875 588.886719 C 244.71875 588.886719 246.4375 588.703125 248.074219 588.34375 C 254.179688 587.003906 260.25 585.355469 266.113281 583.445312 C 272.351562 581.410156 278.613281 578.980469 284.738281 576.226562 C 294.140625 571.996094 301 560.867188 300.691406 550.375 L 300.023438 525.320312 C 299.984375 523.832031 301.664062 520.378906 303.3125 519.109375 C 307.921875 515.535156 312.335938 511.730469 316.429688 507.800781 C 317.527344 506.742188 320.433594 505.375 322.96875 505.542969 L 347.867188 510.121094 C 349.320312 510.390625 350.84375 510.523438 352.386719 510.523438 C 361.691406 510.523438 371.132812 505.628906 375.871094 498.351562 C 379.542969 492.71875 382.910156 486.898438 385.882812 481.039062 C 388.6875 475.515625 391.253906 469.773438 393.5 463.984375 C 397.246094 454.359375 394.28125 441.621094 386.605469 434.347656 L 368.023438 416.742188 C 366.960938 415.738281 365.730469 412.152344 366.011719 410.109375 C 366.769531 404.324219 367.230469 398.511719 367.378906 392.820312 C 367.429688 390.824219 369.25 387.378906 370.445312 386.554688 " fill-opacity="1" fill-rule="nonzero"/></g><path fill="#f9bd16" d="M 261.929688 418.765625 C 253.851562 434.652344 240.105469 446.433594 223.214844 451.941406 C 216.46875 454.148438 209.515625 455.257812 202.542969 455.257812 C 173.640625 455.257812 148.199219 436.773438 139.226562 409.25 C 133.707031 392.339844 135.101562 374.289062 143.167969 358.425781 C 151.234375 342.558594 164.992188 330.789062 181.925781 325.265625 C 188.636719 323.066406 195.589844 321.953125 202.582031 321.953125 C 231.484375 321.953125 256.929688 340.441406 265.902344 367.953125 C 271.414062 384.835938 270 402.886719 261.929688 418.765625 Z M 202.582031 297.851562 C 193.039062 297.851562 183.5625 299.371094 174.441406 302.355469 C 151.402344 309.863281 132.667969 325.898438 121.6875 347.503906 C 110.699219 369.109375 108.789062 393.695312 116.316406 416.726562 C 128.527344 454.191406 163.179688 479.359375 202.542969 479.359375 C 212.0625 479.359375 221.53125 477.84375 230.691406 474.855469 C 253.699219 467.355469 272.421875 451.308594 283.410156 429.6875 C 294.402344 408.0625 296.324219 383.480469 288.8125 360.476562 C 276.601562 323.019531 241.945312 297.851562 202.582031 297.851562 " fill-opacity="1" fill-rule="nonzero"/><g clip-path="url(#1479f7c78f)"><path fill="#f9bd16" d="M 570.171875 180.027344 C 569.140625 184.933594 567.824219 189.917969 566.332031 194.648438 C 566.007812 195.265625 564.699219 196.199219 564.058594 196.3125 L 546.960938 197.675781 C 538.605469 198.347656 528.894531 203.765625 523.324219 210.863281 C 520.941406 213.914062 518.277344 216.882812 515.410156 219.683594 C 508.988281 225.945312 504.65625 236.195312 504.878906 244.601562 L 505.335938 261.390625 C 505.300781 262.125 504.488281 263.585938 504.074219 263.902344 C 499.039062 266.160156 493.902344 268.148438 488.796875 269.8125 C 483.953125 271.386719 478.960938 272.746094 474.179688 273.808594 L 474.171875 285.835938 L 474.171875 273.808594 C 473.367188 273.808594 471.980469 273.117188 471.609375 272.664062 L 461.921875 258.597656 C 457.164062 251.695312 447.636719 245.96875 438.753906 244.675781 C 434.8125 244.097656 430.882812 243.261719 427.078125 242.1875 C 424.257812 241.382812 421.152344 240.980469 417.84375 240.980469 C 414 240.980469 406.605469 241.5625 400.226562 245.476562 L 385.652344 254.425781 C 385.53125 254.484375 385 254.652344 384.195312 254.652344 L 383.191406 254.589844 C 383.09375 254.550781 382.902344 254.480469 382.730469 254.417969 C 378.753906 251.5 374.816406 248.296875 371.035156 244.910156 C 367.027344 241.304688 363.125 237.402344 359.710938 233.660156 C 359.699219 233.640625 359.425781 233.042969 359.417969 233.023438 C 359.261719 232.492188 359.1875 231.917969 359.199219 231.402344 C 359.214844 230.882812 359.292969 230.558594 359.296875 230.539062 L 366.839844 214.636719 C 370.550781 206.851562 371.074219 196.441406 368.125 189.375 C 367.292969 187.355469 366.523438 185.308594 365.835938 183.191406 C 365.085938 180.886719 364.433594 178.578125 363.882812 176.246094 C 361.980469 168.304688 355.390625 159.914062 347.875 155.847656 L 332.070312 147.289062 C 331.476562 146.898438 330.660156 145.523438 330.597656 145.039062 C 331.152344 139.953125 331.96875 134.851562 333.027344 129.863281 C 334.117188 124.6875 335.550781 119.359375 337.207031 114.21875 C 337.546875 113.589844 338.898438 112.632812 339.570312 112.523438 L 358.007812 111.046875 C 366.304688 110.378906 376.023438 105.0625 381.636719 98.121094 C 383.714844 95.554688 385.917969 93.117188 388.226562 90.824219 C 394.542969 84.511719 398.804688 74.289062 398.589844 65.945312 L 398.074219 47.253906 C 398.109375 46.542969 398.890625 45.144531 399.289062 44.84375 C 403.972656 42.785156 408.796875 40.9375 413.621094 39.363281 C 418.785156 37.683594 424.113281 36.257812 429.273438 35.160156 C 430.085938 35.160156 431.550781 35.894531 431.933594 36.363281 L 442.476562 51.667969 C 447.21875 58.535156 456.714844 64.277344 465.609375 65.628906 C 468.75 66.097656 471.957031 66.757812 475.121094 67.59375 C 483.511719 69.820312 494.867188 68.351562 501.832031 64.070312 L 517.457031 54.46875 C 517.59375 54.398438 518.171875 54.207031 519.035156 54.207031 C 519.8125 54.207031 520.320312 54.371094 520.265625 54.308594 C 524.667969 57.488281 528.96875 60.953125 533.023438 64.589844 C 536.847656 68.019531 540.507812 71.65625 543.660156 75.011719 C 543.71875 75.148438 543.867188 75.507812 543.929688 75.644531 C 544.269531 76.6875 544.183594 77.777344 544.089844 78.046875 L 536.390625 94.242188 C 532.722656 101.96875 532.355469 112.632812 535.515625 120.238281 C 536.457031 122.46875 537.289062 124.757812 538.03125 126.988281 C 538.695312 129.0625 539.28125 131.148438 539.777344 133.308594 C 541.554688 140.839844 548.09375 148.980469 555.683594 153.085938 L 571.183594 161.480469 C 571.792969 161.878906 572.632812 163.292969 572.691406 163.828125 C 572.148438 169.230469 571.300781 174.679688 570.171875 180.027344 Z M 582.683594 140.300781 L 567.160156 131.894531 C 565.507812 131 563.570312 128.648438 563.253906 127.847656 C 562.617188 125.082031 561.847656 122.332031 560.945312 119.515625 C 559.972656 116.578125 558.910156 113.699219 557.753906 110.957031 C 557.324219 109.785156 557.335938 106.324219 558.160156 104.585938 L 565.855469 88.398438 C 568.660156 82.5 569.039062 74.964844 566.707031 67.777344 C 566.636719 67.5625 566.4375 67.019531 566.355469 66.808594 C 566.140625 66.273438 565.925781 65.742188 565.867188 65.640625 C 565.558594 64.914062 565.195312 64.214844 564.835938 63.574219 L 564.371094 62.730469 C 564.261719 62.535156 564.144531 62.351562 564.023438 62.160156 C 563.3125 61.070312 562.539062 60.042969 561.738281 59.175781 C 557.792969 54.84375 553.554688 50.632812 549.125 46.652344 C 544.421875 42.4375 539.457031 38.4375 534.359375 34.761719 C 526.457031 29.066406 513.359375 28.710938 504.894531 33.902344 L 489.222656 43.53125 C 488.699219 43.847656 486.617188 44.554688 483.835938 44.554688 C 482.382812 44.554688 481.511719 44.351562 481.261719 44.289062 C 477.242188 43.226562 473.171875 42.390625 469.203125 41.800781 C 466.847656 41.4375 463.207031 39.277344 462.320312 37.984375 L 451.769531 22.671875 C 446.0625 14.414062 434.121094 9.511719 424.496094 11.550781 C 418.308594 12.851562 412.140625 14.5 406.148438 16.449219 C 400.558594 18.273438 394.984375 20.40625 389.578125 22.789062 C 380.421875 26.820312 373.714844 37.578125 373.980469 47.847656 L 374.496094 66.585938 C 374.535156 68.167969 372.871094 72.097656 371.222656 73.75 C 368.332031 76.613281 365.535156 79.707031 362.902344 82.957031 C 361.398438 84.824219 357.660156 86.894531 356.078125 87.019531 L 337.640625 88.496094 C 327.460938 89.316406 317.460938 97.082031 314.367188 106.570312 C 312.363281 112.71875 310.710938 118.886719 309.445312 124.878906 C 308.222656 130.636719 307.28125 136.539062 306.636719 142.414062 C 305.550781 152.367188 311.523438 163.558594 320.542969 168.449219 L 336.402344 177.042969 C 338.074219 177.949219 340.109375 180.703125 340.4375 181.835938 C 341.132812 184.777344 341.96875 187.734375 342.917969 190.648438 C 343.789062 193.328125 344.769531 195.957031 345.785156 198.398438 C 346.09375 199.492188 345.898438 202.550781 345.074219 204.289062 L 337.523438 220.210938 C 336.027344 223.351562 335.21875 226.882812 335.109375 230.707031 C 335.015625 233.765625 335.414062 236.828125 336.292969 239.8125 C 336.347656 239.992188 336.585938 240.71875 336.648438 240.902344 C 337.035156 242.015625 337.492188 243.09375 338.054688 244.230469 C 338.15625 244.445312 338.496094 245.09375 338.613281 245.304688 C 339.484375 246.851562 340.421875 248.179688 341.511719 249.402344 C 345.765625 254.136719 350.277344 258.65625 354.9375 262.847656 C 359.398438 266.839844 364.035156 270.605469 368.695312 274.015625 C 369.734375 274.777344 370.886719 275.460938 372.046875 276.035156 C 372.621094 276.320312 373.25 276.585938 374.378906 277.023438 C 374.546875 277.089844 375.085938 277.285156 375.261719 277.347656 C 376.207031 277.667969 377.203125 277.921875 377.890625 278.0625 C 378.078125 278.109375 378.355469 278.171875 378.546875 278.210938 C 379.570312 278.414062 380.621094 278.554688 381.761719 278.652344 C 387.707031 279.144531 393.589844 277.835938 398.203125 275.003906 L 412.832031 266.019531 C 413.3125 265.722656 415.234375 265.082031 417.84375 265.082031 C 419.359375 265.082031 420.265625 265.308594 420.515625 265.375 C 425.335938 266.738281 430.296875 267.796875 435.273438 268.519531 C 437.597656 268.859375 441.191406 270.992188 442.070312 272.269531 L 451.757812 286.339844 C 456.527344 293.261719 465.535156 297.910156 474.171875 297.910156 C 475.859375 297.910156 477.519531 297.734375 479.136719 297.382812 C 484.90625 296.113281 490.664062 294.546875 496.257812 292.730469 C 502.175781 290.800781 508.125 288.5 513.953125 285.882812 C 523.035156 281.796875 529.6875 271.019531 529.429688 260.800781 L 528.972656 243.957031 C 528.929688 242.394531 530.570312 238.5625 532.246094 236.929688 C 535.886719 233.367188 539.273438 229.59375 542.300781 225.71875 C 543.75 223.875 547.363281 221.824219 548.886719 221.703125 L 565.976562 220.335938 C 576.179688 219.523438 586.175781 211.710938 589.222656 202.148438 C 591.03125 196.453125 592.558594 190.675781 593.753906 185 C 595.0625 178.8125 596.046875 172.5 596.671875 166.246094 C 597.679688 156.300781 591.660156 145.144531 582.683594 140.300781 " fill-opacity="1" fill-rule="nonzero"/></g><path fill="#f9bd16" d="M 484.3125 171.585938 C 479.9375 180.226562 472.4375 186.648438 463.226562 189.65625 C 459.519531 190.859375 455.71875 191.472656 451.925781 191.472656 C 436.167969 191.472656 422.289062 181.386719 417.394531 166.375 C 414.386719 157.167969 415.160156 147.332031 419.566406 138.664062 C 423.964844 130 431.464844 123.578125 440.664062 120.574219 C 444.359375 119.367188 448.160156 118.761719 451.957031 118.761719 C 467.714844 118.761719 481.585938 128.84375 486.480469 143.859375 C 489.492188 153.078125 488.722656 162.917969 484.3125 171.585938 Z M 451.957031 94.660156 C 445.617188 94.660156 439.304688 95.667969 433.195312 97.660156 C 417.871094 102.660156 405.398438 113.34375 398.078125 127.75 C 390.757812 142.148438 389.484375 158.523438 394.480469 173.847656 C 402.621094 198.808594 425.707031 215.570312 451.925781 215.570312 C 458.25 215.570312 464.554688 214.5625 470.6875 212.570312 C 486.046875 207.558594 498.519531 196.871094 505.800781 182.5 C 513.128906 168.105469 514.40625 151.726562 509.390625 136.386719 C 501.261719 111.429688 478.179688 94.660156 451.957031 94.660156 " fill-opacity="1" fill-rule="nonzero"/></svg>