<svg xmlns="http://www.w3.org/2000/svg" xmlns:xlink="http://www.w3.org/1999/xlink" width="800" zoomAndPan="magnify" viewBox="0 0 600 599.999999" height="800" preserveAspectRatio="xMidYMid meet" version="1.0"><path fill="#f9bd16" d="M 587.683594 368.0625 L 333.574219 113.964844 C 332.367188 112.773438 330.828125 111.894531 329.058594 111.492188 L 180.121094 78.007812 C 176.960938 77.042969 173.367188 77.820312 170.867188 80.320312 C 165.074219 86.113281 159.296875 91.890625 153.503906 97.679688 C 151.394531 95.210938 149.207031 92.707031 146.980469 90.238281 C 142.425781 85.164062 137.726562 80.175781 133.097656 75.546875 L 132.535156 75.03125 C 125.566406 68.089844 118.539062 61.609375 111.597656 55.65625 L 111.382812 55.472656 C 93 39.703125 75.148438 27.761719 60.53125 21.09375 C 43.328125 13.246094 29.203125 12.46875 21.183594 20.488281 C 11.855469 29.816406 14.644531 47.867188 26.703125 69.511719 C 37.0625 88.136719 54.382812 110.542969 76.15625 132.332031 C 83.542969 139.71875 91 146.574219 98.375 152.839844 C 92.597656 158.632812 86.804688 164.410156 81.027344 170.203125 C 78.871094 172.371094 77.824219 175.5625 78.542969 178.769531 L 112.042969 327.71875 C 112.328125 329.617188 113.191406 331.441406 114.65625 332.894531 L 368.753906 586.992188 C 372.378906 590.613281 378.242188 590.613281 381.863281 586.992188 L 587.683594 381.167969 C 591.308594 377.546875 591.308594 371.683594 587.683594 368.0625 Z M 89.25 119.226562 C 68.597656 98.558594 52.371094 77.648438 42.839844 60.542969 C 35.441406 47.234375 31.917969 37.492188 33.886719 34.128906 L 34.375 33.667969 C 34.75 33.292969 35.253906 33.035156 35.898438 32.890625 C 38.902344 32.417969 44.882812 34.257812 52.871094 37.894531 L 56.738281 39.761719 L 61.308594 42.21875 C 69.847656 46.976562 79.316406 53.371094 89.21875 61.160156 L 89.894531 61.695312 C 93.015625 64.164062 96.191406 66.765625 99.378906 69.496094 L 99.597656 69.671875 C 106.179688 75.304688 112.863281 81.484375 119.515625 88.109375 L 120.003906 88.640625 C 124.632812 93.269531 129.101562 98.011719 133.242188 102.609375 C 135.742188 105.386719 138.128906 108.128906 140.382812 110.789062 C 130.753906 120.417969 121.125 130.0625 111.496094 139.691406 C 104.167969 133.511719 96.691406 126.65625 89.25 119.226562 Z M 568.023438 374.617188 L 375.308594 567.332031 L 129.621094 321.65625 L 97.699219 179.703125 L 112.890625 164.511719 C 122.058594 171.4375 130.871094 177.257812 138.976562 181.773438 C 141.273438 183.050781 143.53125 184.214844 145.746094 185.277344 C 146.707031 192.925781 150.128906 200.328125 155.992188 206.191406 L 156.035156 206.191406 C 163.0625 213.21875 172.261719 216.738281 181.445312 216.738281 C 190.65625 216.738281 199.871094 213.21875 206.898438 206.191406 C 213.925781 199.164062 217.445312 189.949219 217.445312 180.738281 C 217.445312 171.523438 213.925781 162.3125 206.898438 155.285156 C 200.328125 148.714844 191.863281 145.222656 183.269531 144.792969 C 181.015625 143.84375 178.398438 143.773438 175.984375 144.820312 C 175.640625 144.964844 175.324219 145.136719 175.007812 145.324219 C 168.050781 146.589844 161.382812 149.894531 156.007812 155.285156 C 152.816406 158.476562 150.371094 162.097656 148.621094 165.976562 C 148.390625 165.847656 148.1875 165.734375 147.957031 165.617188 C 141.1875 161.851562 133.816406 157.023438 126.113281 151.289062 L 180.410156 96.992188 L 322.347656 128.910156 Z M 169.097656 168.390625 C 170.59375 166.898438 172.289062 165.761719 174.101562 164.929688 C 174.734375 167.128906 175.105469 169.109375 175.222656 170.847656 C 175.335938 172.675781 175.238281 173.839844 174.878906 174.199219 C 173.484375 175.59375 170.175781 175.375 165.433594 173.808594 C 166.28125 171.839844 167.488281 170 169.097656 168.390625 Z M 187.984375 187.304688 C 192.339844 182.949219 194.148438 176.957031 193.691406 169.699219 C 193.660156 169.210938 193.605469 168.707031 193.546875 168.203125 C 193.617188 168.277344 193.703125 168.335938 193.777344 168.40625 C 197.183594 171.8125 198.894531 176.28125 198.894531 180.75 C 198.894531 185.222656 197.183594 189.691406 193.777344 193.097656 C 190.371094 196.503906 185.898438 198.199219 181.429688 198.199219 C 176.945312 198.199219 172.476562 196.503906 169.085938 193.097656 C 168.925781 192.9375 168.796875 192.765625 168.640625 192.609375 C 176.773438 193.5 183.429688 191.859375 187.984375 187.304688 Z M 368.398438 474.746094 L 475.324219 367.832031 C 478.945312 364.210938 484.808594 364.210938 488.433594 367.832031 C 492.054688 371.453125 492.054688 377.316406 488.433594 380.941406 L 381.503906 487.851562 C 377.882812 491.476562 372.019531 491.476562 368.398438 487.851562 C 364.773438 484.230469 364.773438 478.367188 368.398438 474.746094 Z M 334.320312 443.761719 L 441.25 336.847656 C 444.871094 333.226562 450.734375 333.226562 454.355469 336.847656 C 457.976562 340.46875 457.976562 346.332031 454.355469 349.953125 L 347.425781 456.867188 C 343.804688 460.488281 337.941406 460.488281 334.320312 456.867188 C 330.699219 453.261719 330.699219 447.382812 334.320312 443.761719 Z M 301.566406 287.75 C 308.882812 280.695312 318.367188 277.171875 327.839844 277.171875 C 337.523438 277.171875 347.226562 280.867188 354.597656 288.226562 L 354.628906 288.226562 C 362.015625 295.613281 365.695312 305.328125 365.695312 315.03125 C 365.695312 324.714844 362 334.417969 354.628906 341.789062 L 354.339844 342.078125 L 366.183594 353.921875 C 369.375 357.109375 369.375 362.300781 366.183594 365.488281 C 362.992188 368.679688 357.804688 368.679688 354.613281 365.488281 L 342.785156 353.660156 L 342.511719 353.933594 L 341.980469 354.421875 C 334.664062 361.480469 325.179688 365 315.707031 365 C 306.023438 365 296.320312 361.308594 288.949219 353.949219 L 288.917969 353.949219 C 285.714844 350.746094 285.714844 345.570312 288.917969 342.378906 C 292.109375 339.1875 297.296875 339.1875 300.488281 342.378906 C 304.65625 346.5625 310.175781 348.644531 315.707031 348.644531 C 321.082031 348.644531 326.445312 346.675781 330.570312 342.753906 L 336.90625 336.402344 C 336.9375 336.371094 336.949219 336.328125 336.980469 336.300781 C 337.007812 336.269531 337.035156 336.257812 337.078125 336.226562 L 343.042969 330.25 C 347.226562 326.082031 349.308594 320.5625 349.308594 315.015625 C 349.308594 309.496094 347.210938 303.964844 343.042969 299.796875 C 338.875 295.613281 333.34375 293.515625 327.808594 293.515625 C 322.433594 293.515625 317.074219 295.484375 312.949219 299.40625 L 312.589844 299.796875 L 300.472656 311.910156 C 293.101562 319.285156 283.386719 322.976562 273.671875 322.976562 C 263.984375 322.976562 254.28125 319.285156 246.910156 311.910156 L 246.882812 311.882812 C 239.507812 304.507812 235.816406 294.808594 235.816406 285.121094 C 235.816406 275.421875 239.507812 265.691406 246.882812 258.316406 L 247.167969 258.03125 L 235.324219 246.1875 C 232.148438 242.996094 232.164062 237.824219 235.355469 234.648438 C 238.546875 231.46875 243.71875 231.484375 246.894531 234.675781 L 258.695312 246.488281 L 258.980469 246.203125 L 259.515625 245.726562 C 266.828125 238.671875 276.316406 235.136719 285.785156 235.136719 C 295.488281 235.136719 305.21875 238.828125 312.589844 246.203125 C 315.78125 249.390625 315.78125 254.582031 312.589844 257.769531 C 309.398438 260.960938 304.210938 260.960938 301.019531 257.769531 C 296.839844 253.589844 291.320312 251.503906 285.785156 251.503906 C 280.410156 251.503906 275.050781 253.472656 270.910156 257.398438 L 258.4375 269.886719 C 254.253906 274.070312 252.167969 279.589844 252.167969 285.121094 C 252.167969 290.65625 254.253906 296.1875 258.421875 300.371094 C 262.605469 304.539062 268.121094 306.621094 273.671875 306.621094 C 279.1875 306.621094 284.722656 304.523438 288.90625 300.355469 L 301.019531 288.238281 Z M 301.566406 287.75 " fill-opacity="1" fill-rule="nonzero"/></svg>