<svg xmlns="http://www.w3.org/2000/svg" xmlns:xlink="http://www.w3.org/1999/xlink" width="800" zoomAndPan="magnify" viewBox="0 0 600 599.999999" height="800" preserveAspectRatio="xMidYMid meet" version="1.0"><defs><clipPath id="368cc032ed"><path d="M 9.703125 9.703125 L 590.203125 9.703125 L 590.203125 590.203125 L 9.703125 590.203125 Z M 9.703125 9.703125 " clip-rule="nonzero"/></clipPath><clipPath id="89ce1ed1d7"><path d="M 244 97 L 501 97 L 501 590.203125 L 244 590.203125 Z M 244 97 " clip-rule="nonzero"/></clipPath></defs><g clip-path="url(#368cc032ed)"><path fill="#f9bd16" d="M 558.203125 590.246094 C 575.894531 590.246094 590.242188 575.898438 590.242188 558.203125 L 590.242188 41.746094 C 590.242188 24.046875 575.894531 9.703125 558.203125 9.703125 L 41.746094 9.703125 C 24.042969 9.703125 9.703125 24.046875 9.703125 41.746094 L 9.703125 558.203125 C 9.703125 575.898438 24.042969 590.246094 41.746094 590.246094 Z M 558.203125 590.246094 " fill-opacity="1" fill-rule="nonzero"/></g><g clip-path="url(#89ce1ed1d7)"><path fill="#ffffff" d="M 410.265625 590.246094 L 410.265625 365.429688 L 485.726562 365.429688 L 497.027344 277.8125 L 410.265625 277.8125 L 410.265625 221.875 C 410.265625 196.507812 417.308594 179.222656 453.6875 179.222656 L 500.082031 179.199219 L 500.082031 100.839844 C 492.054688 99.773438 464.515625 97.386719 432.476562 97.386719 C 365.582031 97.386719 319.789062 138.214844 319.789062 213.199219 L 319.789062 277.8125 L 244.132812 277.8125 L 244.132812 365.429688 L 319.789062 365.429688 L 319.789062 590.242188 L 410.265625 590.242188 Z M 410.265625 590.246094 " fill-opacity="1" fill-rule="nonzero"/></g></svg>