<svg xmlns="http://www.w3.org/2000/svg" xmlns:xlink="http://www.w3.org/1999/xlink" width="800" zoomAndPan="magnify" viewBox="0 0 600 599.999999" height="800" preserveAspectRatio="xMidYMid meet" version="1.0"><defs><clipPath id="eb05c06255"><path d="M 7.839844 7.839844 L 592.089844 7.839844 L 592.089844 592.089844 L 7.839844 592.089844 Z M 7.839844 7.839844 " clip-rule="nonzero"/></clipPath></defs><g clip-path="url(#eb05c06255)"><path fill="#f9bd16" d="M 592.199219 503.398438 C 592.199219 552.4375 552.445312 592.1875 503.40625 592.1875 L 96.679688 592.1875 C 47.640625 592.1875 7.894531 552.4375 7.894531 503.398438 L 7.894531 96.679688 C 7.894531 47.640625 47.640625 7.890625 96.679688 7.890625 L 503.40625 7.890625 C 552.445312 7.890625 592.199219 47.640625 592.199219 96.679688 Z M 592.199219 503.398438 " fill-opacity="1" fill-rule="nonzero"/></g><path fill="#ffffff" d="M 177.769531 137.414062 L 430.359375 137.414062 C 454.355469 137.414062 473.976562 157.035156 473.976562 181.035156 L 473.976562 433.632812 C 473.976562 457.621094 454.355469 477.230469 430.359375 477.230469 L 177.769531 477.230469 C 153.769531 477.230469 134.132812 457.621094 134.132812 433.632812 L 134.132812 181.035156 C 134.132812 157.035156 153.769531 137.414062 177.769531 137.414062 Z M 381.703125 175.152344 C 373.277344 175.152344 366.402344 182.0625 366.402344 190.476562 L 366.402344 227.078125 C 366.402344 235.507812 373.277344 242.386719 381.703125 242.386719 L 420.109375 242.386719 C 428.519531 242.386719 435.410156 235.507812 435.410156 227.078125 L 435.410156 190.476562 C 435.410156 182.0625 428.519531 175.152344 420.109375 175.152344 Z M 435.558594 281.117188 L 405.652344 281.117188 C 408.492188 290.382812 410.027344 300.140625 410.027344 310.296875 C 410.027344 366.808594 362.714844 412.640625 304.375 412.640625 C 246.046875 412.640625 198.730469 366.808594 198.730469 310.296875 C 198.730469 300.140625 200.285156 290.382812 203.109375 281.117188 L 171.910156 281.117188 L 171.910156 424.683594 C 171.910156 432.117188 177.980469 438.15625 185.410156 438.15625 L 422.0625 438.15625 C 429.496094 438.15625 435.558594 432.117188 435.558594 424.683594 Z M 304.375 240.460938 C 266.695312 240.460938 236.132812 270.054688 236.132812 306.597656 C 236.132812 343.109375 266.695312 372.730469 304.375 372.730469 C 342.070312 372.730469 372.636719 343.109375 372.636719 306.597656 C 372.636719 270.054688 342.070312 240.460938 304.375 240.460938 Z M 304.375 240.460938 " fill-opacity="1" fill-rule="nonzero"/></svg>