<svg xmlns="http://www.w3.org/2000/svg" xmlns:xlink="http://www.w3.org/1999/xlink" width="800" zoomAndPan="magnify" viewBox="0 0 600 599.999999" height="800" preserveAspectRatio="xMidYMid meet" version="1.0"><defs><clipPath id="1e373a719a"><path d="M 500 170 L 593.40625 170 L 593.40625 203 L 500 203 Z M 500 170 " clip-rule="nonzero"/></clipPath><clipPath id="fa137a072d"><path d="M 398 6.90625 L 431 6.90625 L 431 101 L 398 101 Z M 398 6.90625 " clip-rule="nonzero"/></clipPath><clipPath id="da415ce8c5"><path d="M 6.90625 398 L 101 398 L 101 431 L 6.90625 431 Z M 6.90625 398 " clip-rule="nonzero"/></clipPath><clipPath id="ca97c53e5b"><path d="M 170 500 L 203 500 L 203 593.40625 L 170 593.40625 Z M 170 500 " clip-rule="nonzero"/></clipPath></defs><path fill="#f9bd16" d="M 522.949219 477.722656 C 567.796875 411.644531 561.054688 320.78125 502.535156 262.261719 L 475.171875 234.90625 C 462.671875 222.429688 442.433594 222.421875 429.929688 234.917969 C 417.4375 247.417969 417.4375 267.667969 429.929688 280.167969 L 457.300781 307.511719 C 490.671875 340.882812 496.59375 390.960938 476.039062 430.820312 L 455.386719 410.160156 C 442.886719 397.667969 422.644531 397.667969 410.144531 410.160156 C 397.652344 422.660156 397.652344 442.910156 410.144531 455.402344 L 430.796875 476.046875 C 390.925781 496.585938 340.855469 490.660156 307.503906 457.292969 L 280.140625 429.9375 C 267.640625 417.464844 247.402344 417.453125 234.898438 429.949219 C 222.40625 442.449219 222.40625 462.699219 234.898438 475.199219 L 262.269531 502.542969 C 295.382812 535.671875 338.894531 552.226562 382.402344 552.226562 C 415.730469 552.226562 449.042969 542.40625 477.707031 522.957031 L 529.675781 574.917969 C 535.921875 581.171875 544.105469 584.292969 552.292969 584.292969 C 560.476562 584.292969 568.664062 581.171875 574.917969 574.917969 C 587.410156 562.425781 587.410156 542.167969 574.917969 529.683594 L 522.949219 477.722656 " fill-opacity="1" fill-rule="nonzero"/><path fill="#f9bd16" d="M 320.046875 170.257812 C 332.539062 182.75 352.789062 182.742188 365.28125 170.265625 C 377.78125 157.773438 377.78125 137.515625 365.28125 125.015625 L 337.933594 97.660156 C 305.835938 65.570312 263.183594 47.90625 217.800781 47.898438 L 217.777344 47.898438 C 183.261719 47.898438 150.347656 58.1875 122.441406 77.207031 L 70.53125 25.289062 C 58.03125 12.785156 37.789062 12.785156 25.289062 25.289062 C 12.796875 37.773438 12.796875 58.03125 25.289062 70.523438 L 77.253906 122.488281 C 32.410156 188.558594 39.148438 279.425781 97.644531 337.945312 L 125.015625 365.296875 C 131.261719 371.535156 139.445312 374.664062 147.632812 374.664062 C 155.816406 374.664062 164.003906 371.535156 170.25 365.289062 C 182.75 352.789062 182.75 332.539062 170.25 320.039062 L 142.886719 292.691406 C 109.535156 259.324219 103.609375 209.253906 124.15625 169.390625 L 144.800781 190.042969 C 151.046875 196.289062 159.234375 199.417969 167.417969 199.417969 C 175.605469 199.417969 183.789062 196.289062 190.035156 190.042969 C 202.539062 177.558594 202.539062 157.304688 190.035156 144.800781 L 169.339844 124.117188 C 184.203125 116.410156 200.574219 111.878906 217.800781 111.878906 C 246.089844 111.878906 272.683594 122.894531 292.699219 142.894531 L 320.046875 170.257812 " fill-opacity="1" fill-rule="nonzero"/><g clip-path="url(#1e373a719a)"><path fill="#f9bd16" d="M 577.246094 170.050781 L 516.078125 170.050781 C 507.246094 170.050781 500.078125 177.214844 500.078125 186.042969 C 500.078125 194.878906 507.246094 202.042969 516.078125 202.042969 L 577.246094 202.042969 C 586.082031 202.042969 593.242188 194.878906 593.242188 186.042969 C 593.242188 177.214844 586.082031 170.050781 577.246094 170.050781 " fill-opacity="1" fill-rule="nonzero"/></g><path fill="#f9bd16" d="M 475.527344 140.667969 C 479.628906 140.667969 483.707031 139.109375 486.832031 135.988281 L 530.070312 92.734375 C 536.316406 86.488281 536.316406 76.363281 530.070312 70.117188 C 523.824219 63.871094 513.699219 63.871094 507.453125 70.117188 L 464.214844 113.363281 C 457.96875 119.617188 457.96875 129.734375 464.214844 135.988281 C 467.335938 139.109375 471.417969 140.667969 475.527344 140.667969 " fill-opacity="1" fill-rule="nonzero"/><g clip-path="url(#fa137a072d)"><path fill="#f9bd16" d="M 414.164062 100.113281 C 423 100.113281 430.160156 92.949219 430.160156 84.113281 L 430.160156 22.953125 C 430.160156 14.125 423 6.960938 414.164062 6.960938 C 405.332031 6.960938 398.171875 14.125 398.171875 22.953125 L 398.171875 84.113281 C 398.171875 92.949219 405.332031 100.113281 414.164062 100.113281 " fill-opacity="1" fill-rule="nonzero"/></g><g clip-path="url(#da415ce8c5)"><path fill="#f9bd16" d="M 100.105469 414.164062 C 100.105469 405.324219 92.941406 398.164062 84.113281 398.164062 L 22.960938 398.164062 C 14.125 398.164062 6.960938 405.324219 6.960938 414.164062 C 6.960938 422.992188 14.125 430.152344 22.960938 430.152344 L 84.113281 430.152344 C 92.941406 430.152344 100.105469 422.992188 100.105469 414.164062 " fill-opacity="1" fill-rule="nonzero"/></g><path fill="#f9bd16" d="M 113.347656 464.214844 L 70.109375 507.46875 C 63.863281 513.714844 63.863281 523.839844 70.109375 530.085938 C 73.238281 533.214844 77.320312 534.773438 81.421875 534.773438 C 85.523438 534.773438 89.609375 533.214844 92.734375 530.085938 L 135.972656 486.839844 C 142.21875 480.585938 142.21875 470.46875 135.972656 464.214844 C 129.71875 457.96875 119.601562 457.96875 113.347656 464.214844 " fill-opacity="1" fill-rule="nonzero"/><g clip-path="url(#ca97c53e5b)"><path fill="#f9bd16" d="M 186.042969 500.09375 C 177.207031 500.09375 170.042969 507.253906 170.042969 516.09375 L 170.042969 577.253906 C 170.042969 586.082031 177.207031 593.242188 186.042969 593.242188 C 194.871094 593.242188 202.035156 586.082031 202.035156 577.253906 L 202.035156 516.09375 C 202.035156 507.253906 194.871094 500.09375 186.042969 500.09375 " fill-opacity="1" fill-rule="nonzero"/></g></svg>