<svg xmlns="http://www.w3.org/2000/svg" xmlns:xlink="http://www.w3.org/1999/xlink" width="800" zoomAndPan="magnify" viewBox="0 0 600 599.999999" height="800" preserveAspectRatio="xMidYMid meet" version="1.0"><defs><clipPath id="aaf6c0c6bb"><path d="M 307 6.90625 L 593.40625 6.90625 L 593.40625 293 L 307 293 Z M 307 6.90625 " clip-rule="nonzero"/></clipPath></defs><path fill="#f9bd16" d="M 491.691406 284.910156 C 491.035156 285.027344 490.394531 285.210938 489.773438 285.453125 C 489.152344 285.699219 488.5625 286 488 286.359375 C 487.441406 286.71875 486.921875 287.132812 486.441406 287.59375 C 485.960938 288.058594 485.53125 288.5625 485.148438 289.109375 C 484.769531 289.65625 484.445312 290.238281 484.179688 290.847656 C 483.910156 291.460938 483.707031 292.089844 483.566406 292.742188 C 483.421875 293.394531 483.34375 294.054688 483.332031 294.71875 C 483.320312 295.386719 483.375 296.050781 483.492188 296.707031 C 484.15625 300.378906 484.726562 304.066406 485.203125 307.769531 C 485.675781 311.472656 486.058594 315.183594 486.34375 318.90625 C 486.632812 322.628906 486.824219 326.355469 486.921875 330.085938 C 487.019531 333.816406 487.019531 337.546875 486.925781 341.28125 C 486.832031 345.011719 486.644531 348.738281 486.363281 352.460938 C 486.078125 356.183594 485.699219 359.894531 485.226562 363.597656 C 484.753906 367.300781 484.1875 370.988281 483.527344 374.664062 C 482.867188 378.335938 482.113281 381.992188 481.269531 385.628906 C 480.421875 389.261719 479.484375 392.875 478.453125 396.460938 C 477.421875 400.050781 476.300781 403.609375 475.089844 407.140625 C 473.875 410.671875 472.574219 414.167969 471.183594 417.632812 C 469.796875 421.097656 468.316406 424.523438 466.753906 427.910156 C 465.1875 431.300781 463.539062 434.648438 461.800781 437.953125 C 460.066406 441.257812 458.25 444.515625 456.347656 447.730469 C 454.445312 450.941406 452.464844 454.101562 450.402344 457.214844 C 448.339844 460.324219 446.199219 463.382812 443.980469 466.382812 C 441.761719 469.386719 439.46875 472.328125 437.097656 475.214844 C 434.730469 478.101562 432.289062 480.921875 429.777344 483.683594 C 427.265625 486.445312 424.683594 489.140625 422.035156 491.769531 C 419.386719 494.398438 416.671875 496.960938 413.890625 499.449219 C 411.109375 501.941406 408.269531 504.359375 405.367188 506.707031 C 402.460938 509.050781 399.5 511.324219 396.480469 513.519531 C 393.464844 515.714844 390.390625 517.832031 387.261719 519.871094 C 384.136719 521.910156 380.960938 523.867188 377.734375 525.742188 C 374.507812 527.621094 371.234375 529.414062 367.914062 531.125 C 364.597656 532.832031 361.238281 534.457031 357.835938 535.996094 C 354.4375 537.535156 351 538.988281 347.523438 540.351562 C 344.050781 541.714844 340.542969 542.988281 337.003906 544.175781 C 333.460938 545.359375 329.894531 546.453125 326.300781 547.457031 C 322.703125 548.460938 319.085938 549.371094 315.441406 550.1875 C 311.800781 551.007812 308.140625 551.734375 304.460938 552.367188 C 300.78125 552.996094 297.089844 553.535156 293.382812 553.980469 C 289.675781 554.425781 285.960938 554.773438 282.238281 555.027344 C 278.515625 555.28125 274.785156 555.441406 271.054688 555.507812 C 267.320312 555.570312 263.589844 555.542969 259.859375 555.417969 C 256.128906 555.292969 252.402344 555.070312 248.683594 554.753906 C 244.964844 554.441406 241.253906 554.03125 237.554688 553.527344 C 233.859375 553.023438 230.175781 552.425781 226.507812 551.730469 C 222.839844 551.039062 219.191406 550.253906 215.5625 549.378906 C 211.933594 548.5 208.332031 547.53125 204.75 546.46875 C 201.171875 545.40625 197.625 544.253906 194.105469 543.011719 C 190.582031 541.769531 187.097656 540.4375 183.644531 539.019531 C 180.191406 537.597656 176.78125 536.089844 173.402344 534.496094 C 170.027344 532.902344 166.695312 531.226562 163.40625 529.460938 C 160.117188 527.699219 156.875 525.851562 153.679688 523.921875 C 150.480469 521.992188 147.335938 519.984375 144.242188 517.894531 C 141.152344 515.804688 138.113281 513.636719 135.128906 511.394531 C 132.148438 509.148438 129.222656 506.832031 126.359375 504.4375 C 123.492188 502.046875 120.691406 499.582031 117.953125 497.042969 C 115.214844 494.507812 112.539062 491.90625 109.933594 489.234375 C 107.328125 486.558594 104.789062 483.824219 102.324219 481.023438 C 99.855469 478.222656 97.460938 475.359375 95.140625 472.433594 C 92.820312 469.511719 90.574219 466.53125 88.40625 463.492188 C 86.234375 460.457031 84.144531 457.363281 82.132812 454.21875 C 80.121094 451.074219 78.191406 447.882812 76.34375 444.640625 C 74.492188 441.398438 72.726562 438.109375 71.046875 434.777344 C 69.367188 431.445312 67.769531 428.070312 66.261719 424.65625 C 64.75 421.242188 63.328125 417.792969 61.996094 414.304688 C 60.660156 410.820312 59.417969 407.300781 58.261719 403.75 C 57.109375 400.203125 56.046875 396.625 55.074219 393.019531 C 54.101562 389.417969 53.222656 385.789062 52.433594 382.140625 C 51.644531 378.492188 50.953125 374.824219 50.351562 371.140625 C 49.75 367.457031 49.246094 363.761719 48.832031 360.050781 C 48.421875 356.339844 48.101562 352.621094 47.878906 348.894531 C 47.65625 345.171875 47.53125 341.441406 47.496094 337.707031 C 47.464844 333.976562 47.527344 330.242188 47.683594 326.515625 C 47.84375 322.785156 48.09375 319.0625 48.441406 315.34375 C 48.789062 311.628906 49.230469 307.921875 49.765625 304.230469 C 50.304688 300.535156 50.933594 296.855469 51.65625 293.195312 C 52.378906 289.53125 53.195312 285.890625 54.105469 282.269531 C 55.015625 278.652344 56.015625 275.054688 57.105469 271.484375 C 58.199219 267.917969 59.382812 264.378906 60.65625 260.867188 C 61.925781 257.359375 63.289062 253.882812 64.738281 250.445312 C 66.1875 247.003906 67.722656 243.605469 69.347656 240.242188 C 70.96875 236.882812 72.675781 233.5625 74.46875 230.289062 C 76.261719 227.015625 78.136719 223.789062 80.09375 220.609375 C 82.050781 217.429688 84.085938 214.300781 86.199219 211.226562 C 88.316406 208.152344 90.507812 205.132812 92.78125 202.167969 C 95.050781 199.207031 97.394531 196.300781 99.808594 193.457031 C 102.226562 190.613281 104.714844 187.832031 107.277344 185.113281 C 109.835938 182.398438 112.460938 179.746094 115.15625 177.164062 C 117.851562 174.582031 120.609375 172.066406 123.433594 169.625 C 126.253906 167.183594 129.136719 164.8125 132.082031 162.515625 C 135.023438 160.222656 138.023438 158 141.082031 155.859375 C 144.136719 153.714844 147.246094 151.652344 150.40625 149.667969 C 153.570312 147.683594 156.777344 145.78125 160.039062 143.957031 C 163.296875 142.136719 166.597656 140.402344 169.945312 138.746094 C 173.292969 137.09375 176.679688 135.527344 180.105469 134.046875 C 183.535156 132.566406 186.996094 131.175781 190.492188 129.871094 C 193.992188 128.570312 197.519531 127.355469 201.078125 126.230469 C 204.640625 125.109375 208.226562 124.074219 211.835938 123.132812 C 215.449219 122.191406 219.082031 121.34375 222.738281 120.589844 C 226.394531 119.832031 230.066406 119.171875 233.757812 118.601562 C 237.445312 118.03125 241.148438 117.558594 244.859375 117.175781 C 248.574219 116.796875 252.292969 116.511719 256.023438 116.320312 C 259.75 116.132812 263.480469 116.035156 267.214844 116.035156 C 275.277344 116.035156 283.316406 116.472656 291.332031 117.34375 C 291.996094 117.425781 292.664062 117.4375 293.332031 117.382812 C 294.003906 117.332031 294.660156 117.214844 295.304688 117.03125 C 295.949219 116.847656 296.570312 116.601562 297.167969 116.296875 C 297.765625 115.988281 298.328125 115.628906 298.851562 115.210938 C 299.378906 114.792969 299.855469 114.328125 300.289062 113.816406 C 300.722656 113.300781 301.101562 112.753906 301.425781 112.164062 C 301.75 111.578125 302.011719 110.964844 302.214844 110.324219 C 302.417969 109.683594 302.554688 109.03125 302.628906 108.363281 C 302.703125 107.699219 302.710938 107.03125 302.648438 106.363281 C 302.589844 105.691406 302.46875 105.039062 302.277344 104.394531 C 302.089844 103.75 301.839844 103.132812 301.527344 102.535156 C 301.214844 101.941406 300.847656 101.386719 300.425781 100.863281 C 300.003906 100.34375 299.535156 99.867188 299.015625 99.4375 C 298.5 99.011719 297.949219 98.636719 297.355469 98.316406 C 296.765625 98 296.152344 97.742188 295.507812 97.542969 C 294.867188 97.347656 294.214844 97.214844 293.546875 97.148438 C 284.792969 96.195312 276.015625 95.71875 267.214844 95.714844 C 263.140625 95.71875 259.074219 95.828125 255.007812 96.039062 C 250.941406 96.25 246.882812 96.566406 242.832031 96.984375 C 238.78125 97.402344 234.742188 97.921875 230.71875 98.546875 C 226.695312 99.171875 222.691406 99.898438 218.703125 100.722656 C 214.714844 101.550781 210.753906 102.480469 206.8125 103.511719 C 202.875 104.539062 198.964844 105.667969 195.082031 106.898438 C 191.199219 108.128906 187.351562 109.453125 183.535156 110.878906 C 179.722656 112.304688 175.945312 113.824219 172.210938 115.441406 C 168.472656 117.058594 164.78125 118.773438 161.128906 120.578125 C 157.480469 122.382812 153.878906 124.28125 150.324219 126.269531 C 146.773438 128.257812 143.273438 130.335938 139.824219 132.503906 C 136.378906 134.667969 132.988281 136.921875 129.65625 139.261719 C 126.324219 141.601562 123.050781 144.027344 119.84375 146.53125 C 116.632812 149.039062 113.492188 151.625 110.414062 154.292969 C 107.335938 156.957031 104.328125 159.703125 101.390625 162.519531 C 98.453125 165.339844 95.589844 168.234375 92.800781 171.199219 C 90.007812 174.164062 87.296875 177.199219 84.660156 180.304688 C 82.027344 183.40625 79.472656 186.578125 76.996094 189.808594 C 74.523438 193.042969 72.132812 196.339844 69.824219 199.695312 C 67.519531 203.050781 65.300781 206.464844 63.167969 209.933594 C 61.035156 213.402344 58.992188 216.921875 57.039062 220.496094 C 55.085938 224.066406 53.226562 227.6875 51.457031 231.355469 C 49.6875 235.023438 48.011719 238.734375 46.433594 242.484375 C 44.851562 246.238281 43.371094 250.03125 41.984375 253.859375 C 40.597656 257.6875 39.308594 261.546875 38.117188 265.441406 C 36.929688 269.335938 35.839844 273.257812 34.847656 277.207031 C 33.859375 281.15625 32.96875 285.128906 32.179688 289.125 C 31.394531 293.121094 30.707031 297.132812 30.125 301.160156 C 29.539062 305.191406 29.058594 309.234375 28.683594 313.289062 C 28.304688 317.34375 28.03125 321.402344 27.859375 325.472656 C 27.691406 329.539062 27.621094 333.609375 27.660156 337.683594 C 27.695312 341.753906 27.835938 345.820312 28.082031 349.886719 C 28.324219 353.949219 28.671875 358.007812 29.121094 362.054688 C 29.574219 366.101562 30.125 370.132812 30.78125 374.152344 C 31.4375 378.171875 32.195312 382.171875 33.054688 386.148438 C 33.914062 390.128906 34.875 394.085938 35.9375 398.015625 C 36.996094 401.949219 38.15625 405.851562 39.417969 409.722656 C 40.675781 413.59375 42.035156 417.433594 43.492188 421.234375 C 44.945312 425.039062 46.496094 428.800781 48.144531 432.523438 C 49.792969 436.25 51.53125 439.929688 53.367188 443.5625 C 55.199219 447.199219 57.125 450.785156 59.144531 454.320312 C 61.160156 457.859375 63.265625 461.34375 65.460938 464.773438 C 67.65625 468.203125 69.9375 471.574219 72.304688 474.886719 C 74.667969 478.203125 77.117188 481.453125 79.652344 484.640625 C 82.183594 487.832031 84.792969 490.953125 87.484375 494.007812 C 90.175781 497.066406 92.945312 500.050781 95.785156 502.964844 C 98.628906 505.878906 101.546875 508.722656 104.53125 511.488281 C 107.519531 514.253906 110.578125 516.941406 113.703125 519.554688 C 116.828125 522.164062 120.015625 524.691406 123.269531 527.140625 C 126.523438 529.589844 129.835938 531.953125 133.210938 534.234375 C 136.585938 536.511719 140.015625 538.703125 143.5 540.808594 C 146.988281 542.914062 150.523438 544.929688 154.113281 546.851562 C 157.699219 548.777344 161.335938 550.609375 165.015625 552.347656 C 168.699219 554.089844 172.421875 555.734375 176.1875 557.28125 C 179.953125 558.832031 183.753906 560.285156 187.59375 561.640625 C 191.433594 562.996094 195.304688 564.253906 199.210938 565.414062 C 203.113281 566.574219 207.042969 567.632812 211 568.589844 C 214.957031 569.546875 218.9375 570.40625 222.9375 571.160156 C 226.941406 571.917969 230.957031 572.570312 234.992188 573.121094 C 239.027344 573.675781 243.070312 574.121094 247.128906 574.46875 C 251.1875 574.8125 255.25 575.054688 259.320312 575.191406 C 263.390625 575.332031 267.460938 575.363281 271.53125 575.296875 C 275.601562 575.226562 279.667969 575.054688 283.730469 574.777344 C 287.792969 574.5 291.847656 574.121094 295.890625 573.640625 C 299.933594 573.15625 303.960938 572.570312 307.976562 571.882812 C 311.988281 571.195312 315.980469 570.40625 319.953125 569.511719 C 323.925781 568.621094 327.875 567.628906 331.796875 566.539062 C 335.71875 565.445312 339.613281 564.253906 343.472656 562.960938 C 347.335938 561.671875 351.164062 560.285156 354.953125 558.796875 C 358.746094 557.3125 362.496094 555.730469 366.207031 554.054688 C 369.917969 552.378906 373.582031 550.609375 377.203125 548.742188 C 380.824219 546.878906 384.394531 544.925781 387.914062 542.878906 C 391.4375 540.835938 394.902344 538.703125 398.316406 536.480469 C 401.726562 534.257812 405.082031 531.949219 408.375 529.558594 C 411.671875 527.164062 414.902344 524.691406 418.070312 522.132812 C 421.238281 519.574219 424.339844 516.9375 427.375 514.222656 C 430.410156 511.507812 433.371094 508.71875 436.265625 505.851562 C 439.15625 502.984375 441.972656 500.046875 444.714844 497.035156 C 447.457031 494.027344 450.121094 490.949219 452.707031 487.804688 C 455.292969 484.65625 457.796875 481.449219 460.21875 478.175781 C 462.640625 474.902344 464.980469 471.570312 467.230469 468.175781 C 469.484375 464.785156 471.648438 461.339844 473.726562 457.835938 C 475.804688 454.332031 477.789062 450.78125 479.683594 447.175781 C 481.582031 443.574219 483.382812 439.921875 485.09375 436.226562 C 486.804688 432.53125 488.417969 428.796875 489.9375 425.019531 C 491.457031 421.242188 492.878906 417.425781 494.207031 413.578125 C 495.53125 409.726562 496.757812 405.84375 497.886719 401.933594 C 499.011719 398.019531 500.039062 394.082031 500.96875 390.117188 C 501.894531 386.152344 502.71875 382.164062 503.441406 378.160156 C 504.167969 374.152344 504.789062 370.128906 505.308594 366.089844 C 505.828125 362.050781 506.242188 358 506.554688 353.941406 C 506.867188 349.882812 507.078125 345.816406 507.183594 341.746094 C 507.289062 337.675781 507.289062 333.605469 507.1875 329.535156 C 507.085938 325.464844 506.882812 321.398438 506.574219 317.339844 C 506.265625 313.277344 505.851562 309.230469 505.335938 305.191406 C 504.824219 301.148438 504.203125 297.125 503.484375 293.121094 C 503.367188 292.460938 503.1875 291.824219 502.941406 291.203125 C 502.699219 290.582031 502.398438 289.988281 502.039062 289.429688 C 501.675781 288.867188 501.265625 288.34375 500.804688 287.863281 C 500.339844 287.382812 499.835938 286.953125 499.289062 286.570312 C 498.742188 286.191406 498.160156 285.867188 497.550781 285.597656 C 496.9375 285.332031 496.304688 285.128906 495.652344 284.984375 C 495.003906 284.84375 494.34375 284.765625 493.675781 284.753906 C 493.007812 284.738281 492.347656 284.792969 491.691406 284.910156 Z M 491.691406 284.910156 " fill-opacity="1" fill-rule="nonzero"/><path fill="#f9bd16" d="M 81.574219 335.765625 C 81.578125 332.730469 81.660156 329.695312 81.8125 326.664062 C 81.964844 323.628906 82.195312 320.601562 82.496094 317.582031 C 82.796875 314.558594 83.171875 311.546875 83.621094 308.542969 C 84.070312 305.539062 84.59375 302.550781 85.191406 299.574219 C 85.785156 296.59375 86.457031 293.632812 87.195312 290.6875 C 87.9375 287.746094 88.75 284.820312 89.632812 281.914062 C 90.519531 279.007812 91.472656 276.128906 92.5 273.269531 C 93.527344 270.410156 94.621094 267.578125 95.785156 264.773438 C 96.949219 261.972656 98.179688 259.195312 99.480469 256.453125 C 100.78125 253.707031 102.148438 250.996094 103.582031 248.320312 C 105.015625 245.644531 106.511719 243.003906 108.074219 240.398438 C 109.636719 237.792969 111.261719 235.230469 112.953125 232.707031 C 114.640625 230.183594 116.390625 227.703125 118.199219 225.261719 C 120.007812 222.824219 121.875 220.429688 123.804688 218.085938 C 125.730469 215.738281 127.714844 213.4375 129.753906 211.191406 C 131.792969 208.941406 133.886719 206.742188 136.035156 204.59375 C 138.183594 202.449219 140.378906 200.355469 142.628906 198.316406 C 144.878906 196.273438 147.179688 194.292969 149.527344 192.367188 C 151.875 190.4375 154.265625 188.570312 156.703125 186.761719 C 159.144531 184.953125 161.625 183.203125 164.148438 181.515625 C 166.671875 179.828125 169.238281 178.203125 171.839844 176.640625 C 174.445312 175.078125 177.085938 173.578125 179.765625 172.148438 C 182.441406 170.714844 185.152344 169.347656 187.894531 168.046875 C 190.640625 166.746094 193.414062 165.515625 196.21875 164.351562 C 199.023438 163.1875 201.855469 162.09375 204.714844 161.066406 C 207.574219 160.042969 210.453125 159.085938 213.359375 158.203125 C 216.265625 157.320312 219.191406 156.507812 222.132812 155.765625 C 225.078125 155.023438 228.039062 154.355469 231.019531 153.761719 C 233.996094 153.164062 236.988281 152.644531 239.988281 152.195312 C 242.992188 151.746094 246.003906 151.371094 249.027344 151.066406 C 252.050781 150.765625 255.078125 150.539062 258.109375 150.386719 C 261.140625 150.234375 264.175781 150.152344 267.214844 150.148438 C 267.878906 150.148438 268.539062 150.085938 269.195312 149.953125 C 269.847656 149.824219 270.484375 149.632812 271.101562 149.375 C 271.71875 149.121094 272.304688 148.808594 272.855469 148.4375 C 273.410156 148.066406 273.925781 147.644531 274.398438 147.171875 C 274.867188 146.703125 275.289062 146.1875 275.660156 145.632812 C 276.03125 145.078125 276.34375 144.496094 276.597656 143.878906 C 276.855469 143.261719 277.046875 142.625 277.175781 141.972656 C 277.308594 141.316406 277.371094 140.65625 277.371094 139.988281 C 277.371094 139.324219 277.308594 138.664062 277.175781 138.007812 C 277.046875 137.355469 276.855469 136.71875 276.597656 136.101562 C 276.34375 135.484375 276.03125 134.902344 275.660156 134.347656 C 275.289062 133.792969 274.867188 133.277344 274.398438 132.804688 C 273.925781 132.335938 273.410156 131.914062 272.855469 131.542969 C 272.304688 131.171875 271.71875 130.859375 271.101562 130.605469 C 270.484375 130.347656 269.847656 130.15625 269.195312 130.027344 C 268.539062 129.894531 267.878906 129.832031 267.214844 129.832031 C 263.84375 129.832031 260.472656 129.914062 257.105469 130.078125 C 253.738281 130.246094 250.378906 130.492188 247.023438 130.824219 C 243.667969 131.15625 240.324219 131.566406 236.988281 132.0625 C 233.652344 132.558594 230.332031 133.132812 227.027344 133.792969 C 223.71875 134.449219 220.429688 135.1875 217.160156 136.007812 C 213.890625 136.828125 210.640625 137.726562 207.417969 138.703125 C 204.191406 139.683594 200.992188 140.742188 197.816406 141.875 C 194.640625 143.011719 191.496094 144.226562 188.382812 145.515625 C 185.269531 146.804688 182.1875 148.171875 179.140625 149.613281 C 176.09375 151.054688 173.082031 152.570312 170.109375 154.160156 C 167.136719 155.75 164.203125 157.410156 161.3125 159.144531 C 158.421875 160.878906 155.574219 162.679688 152.769531 164.554688 C 149.96875 166.429688 147.210938 168.367188 144.503906 170.378906 C 141.796875 172.386719 139.140625 174.460938 136.535156 176.597656 C 133.929688 178.738281 131.375 180.9375 128.878906 183.203125 C 126.382812 185.46875 123.941406 187.792969 121.554688 190.175781 C 119.171875 192.558594 116.847656 195 114.585938 197.5 C 112.320312 199.996094 110.121094 202.550781 107.980469 205.15625 C 105.84375 207.761719 103.769531 210.417969 101.761719 213.125 C 99.753906 215.835938 97.8125 218.589844 95.941406 221.394531 C 94.066406 224.195312 92.265625 227.042969 90.53125 229.9375 C 88.800781 232.828125 87.140625 235.761719 85.550781 238.734375 C 83.960938 241.707031 82.445312 244.71875 81.003906 247.765625 C 79.5625 250.8125 78.199219 253.894531 76.910156 257.007812 C 75.617188 260.125 74.40625 263.269531 73.269531 266.441406 C 72.136719 269.617188 71.078125 272.816406 70.101562 276.042969 C 69.121094 279.269531 68.222656 282.519531 67.402344 285.789062 C 66.585938 289.058594 65.847656 292.347656 65.191406 295.652344 C 64.53125 298.960938 63.957031 302.28125 63.460938 305.617188 C 62.96875 308.949219 62.554688 312.296875 62.226562 315.652344 C 61.894531 319.003906 61.648438 322.367188 61.484375 325.734375 C 61.316406 329.101562 61.234375 332.46875 61.234375 335.84375 C 61.238281 339.214844 61.320312 342.582031 61.484375 345.949219 C 61.652344 349.316406 61.898438 352.679688 62.230469 356.03125 C 62.5625 359.386719 62.972656 362.734375 63.46875 366.066406 C 63.964844 369.402344 64.542969 372.722656 65.199219 376.027344 C 65.855469 379.335938 66.597656 382.625 67.414062 385.894531 C 68.234375 389.164062 69.132812 392.414062 70.113281 395.636719 C 71.09375 398.863281 72.148438 402.0625 73.285156 405.238281 C 74.421875 408.414062 75.636719 411.554688 76.925781 414.671875 C 78.21875 417.785156 79.582031 420.867188 81.023438 423.914062 C 82.46875 426.960938 83.984375 429.972656 85.570312 432.945312 C 87.160156 435.917969 88.824219 438.851562 90.558594 441.742188 C 92.289062 444.632812 94.09375 447.480469 95.96875 450.28125 C 97.839844 453.085938 99.78125 455.839844 101.789062 458.546875 C 103.800781 461.253906 105.871094 463.914062 108.011719 466.519531 C 110.152344 469.125 112.351562 471.675781 114.617188 474.171875 C 116.882812 476.671875 119.207031 479.109375 121.589844 481.496094 C 123.972656 483.878906 126.414062 486.203125 128.914062 488.464844 C 131.414062 490.730469 133.964844 492.929688 136.570312 495.066406 C 139.175781 497.207031 141.835938 499.28125 144.542969 501.289062 C 147.25 503.296875 150.007812 505.234375 152.808594 507.109375 C 155.613281 508.980469 158.460938 510.785156 161.351562 512.515625 C 164.246094 514.25 167.175781 515.910156 170.152344 517.5 C 173.125 519.085938 176.136719 520.601562 179.183594 522.042969 C 182.230469 523.484375 185.3125 524.847656 188.425781 526.136719 C 191.542969 527.429688 194.6875 528.640625 197.859375 529.777344 C 201.035156 530.910156 204.234375 531.96875 207.460938 532.945312 C 210.6875 533.921875 213.9375 534.820312 217.207031 535.640625 C 220.476562 536.460938 223.765625 537.195312 227.074219 537.855469 C 230.378906 538.511719 233.699219 539.085938 237.035156 539.582031 C 240.371094 540.074219 243.714844 540.488281 247.070312 540.816406 C 250.425781 541.148438 253.785156 541.394531 257.152344 541.558594 C 260.519531 541.722656 263.890625 541.804688 267.261719 541.804688 C 270.632812 541.804688 274 541.722656 277.367188 541.554688 C 280.734375 541.390625 284.097656 541.140625 287.453125 540.808594 C 290.808594 540.480469 294.152344 540.066406 297.484375 539.570312 C 300.820312 539.074219 304.140625 538.496094 307.449219 537.839844 C 310.753906 537.179688 314.042969 536.441406 317.3125 535.621094 C 320.582031 534.804688 323.832031 533.902344 327.054688 532.925781 C 330.28125 531.945312 333.480469 530.886719 336.65625 529.75 C 339.832031 528.613281 342.972656 527.402344 346.089844 526.109375 C 349.203125 524.820312 352.285156 523.453125 355.332031 522.011719 C 358.378906 520.570312 361.390625 519.054688 364.363281 517.464844 C 367.335938 515.875 370.265625 514.210938 373.15625 512.476562 C 376.050781 510.742188 378.894531 508.941406 381.699219 507.066406 C 384.5 505.191406 387.257812 503.25 389.964844 501.242188 C 392.671875 499.234375 395.328125 497.160156 397.933594 495.019531 C 400.539062 492.882812 403.089844 490.679688 405.589844 488.414062 C 408.085938 486.152344 410.527344 483.828125 412.910156 481.441406 C 415.292969 479.058594 417.617188 476.617188 419.878906 474.117188 C 422.144531 471.621094 424.34375 469.066406 426.480469 466.460938 C 428.621094 463.855469 430.691406 461.195312 432.699219 458.488281 C 434.707031 455.78125 436.648438 453.023438 438.519531 450.21875 C 440.394531 447.417969 442.195312 444.570312 443.929688 441.675781 C 445.660156 438.785156 447.320312 435.851562 448.910156 432.878906 C 450.5 429.90625 452.011719 426.894531 453.453125 423.847656 C 454.894531 420.796875 456.257812 417.71875 457.550781 414.601562 C 458.839844 411.488281 460.050781 408.34375 461.1875 405.167969 C 462.320312 401.992188 463.378906 398.792969 464.355469 395.566406 C 465.332031 392.339844 466.230469 389.09375 467.050781 385.820312 C 467.867188 382.550781 468.605469 379.261719 469.261719 375.957031 C 469.917969 372.648438 470.496094 369.328125 470.988281 365.992188 C 471.480469 362.660156 471.894531 359.3125 472.222656 355.957031 C 472.554688 352.605469 472.800781 349.242188 472.964844 345.875 C 473.128906 342.507812 473.210938 339.136719 473.210938 335.765625 C 473.210938 335.101562 473.144531 334.441406 473.015625 333.785156 C 472.886719 333.132812 472.691406 332.496094 472.4375 331.878906 C 472.183594 331.261719 471.867188 330.679688 471.5 330.125 C 471.128906 329.570312 470.707031 329.054688 470.234375 328.582031 C 469.761719 328.113281 469.25 327.691406 468.695312 327.320312 C 468.140625 326.949219 467.554688 326.636719 466.9375 326.382812 C 466.324219 326.125 465.6875 325.933594 465.035156 325.804688 C 464.378906 325.671875 463.71875 325.609375 463.050781 325.609375 C 462.382812 325.609375 461.722656 325.671875 461.070312 325.804688 C 460.414062 325.933594 459.78125 326.125 459.164062 326.382812 C 458.546875 326.636719 457.960938 326.949219 457.40625 327.320312 C 456.851562 327.691406 456.339844 328.113281 455.867188 328.582031 C 455.394531 329.054688 454.976562 329.570312 454.605469 330.125 C 454.234375 330.679688 453.921875 331.261719 453.664062 331.878906 C 453.410156 332.496094 453.21875 333.132812 453.085938 333.785156 C 452.957031 334.441406 452.890625 335.101562 452.890625 335.765625 C 452.871094 338.792969 452.773438 341.8125 452.605469 344.832031 C 452.433594 347.851562 452.191406 350.867188 451.871094 353.875 C 451.554688 356.882812 451.164062 359.878906 450.699219 362.871094 C 450.238281 365.859375 449.699219 368.832031 449.089844 371.796875 C 448.480469 374.757812 447.800781 377.703125 447.046875 380.632812 C 446.292969 383.5625 445.46875 386.472656 444.574219 389.359375 C 443.679688 392.25 442.714844 395.113281 441.679688 397.957031 C 440.644531 400.796875 439.539062 403.613281 438.367188 406.402344 C 437.195312 409.1875 435.953125 411.945312 434.644531 414.671875 C 433.339844 417.402344 431.964844 420.09375 430.527344 422.753906 C 429.085938 425.414062 427.582031 428.039062 426.015625 430.625 C 424.449219 433.210938 422.820312 435.757812 421.125 438.265625 C 419.433594 440.773438 417.683594 443.234375 415.871094 445.65625 C 414.058594 448.078125 412.1875 450.453125 410.257812 452.785156 C 408.332031 455.113281 406.347656 457.394531 404.308594 459.628906 C 402.265625 461.863281 400.171875 464.042969 398.027344 466.175781 C 395.878906 468.304688 393.683594 470.382812 391.433594 472.40625 C 389.1875 474.429688 386.890625 476.394531 384.546875 478.308594 C 382.203125 480.21875 379.8125 482.070312 377.378906 483.867188 C 374.945312 485.660156 372.46875 487.394531 369.949219 489.066406 C 367.429688 490.742188 364.871094 492.351562 362.273438 493.898438 C 359.671875 495.449219 357.039062 496.933594 354.367188 498.351562 C 351.699219 499.769531 348.996094 501.125 346.257812 502.410156 C 343.519531 503.699219 340.753906 504.917969 337.957031 506.070312 C 335.160156 507.222656 332.339844 508.308594 329.488281 509.320312 C 326.640625 510.335938 323.765625 511.28125 320.871094 512.152344 C 317.976562 513.027344 315.0625 513.832031 312.125 514.5625 C 309.191406 515.292969 306.242188 515.953125 303.273438 516.539062 C 300.308594 517.128906 297.328125 517.640625 294.335938 518.082031 C 291.34375 518.523438 288.34375 518.894531 285.332031 519.1875 C 282.324219 519.484375 279.308594 519.703125 276.285156 519.851562 C 273.265625 520 270.242188 520.074219 267.21875 520.074219 C 264.195312 520.074219 261.171875 520 258.148438 519.851562 C 255.128906 519.703125 252.113281 519.484375 249.105469 519.1875 C 246.09375 518.894531 243.09375 518.523438 240.101562 518.082031 C 237.109375 517.640625 234.128906 517.128906 231.164062 516.539062 C 228.195312 515.953125 225.246094 515.292969 222.308594 514.5625 C 219.375 513.832031 216.460938 513.027344 213.566406 512.152344 C 210.667969 511.28125 207.796875 510.335938 204.949219 509.320312 C 202.097656 508.308594 199.277344 507.222656 196.480469 506.070312 C 193.683594 504.917969 190.917969 503.699219 188.179688 502.410156 C 185.441406 501.125 182.738281 499.769531 180.066406 498.351562 C 177.398438 496.933594 174.761719 495.449219 172.164062 493.898438 C 169.566406 492.351562 167.007812 490.742188 164.488281 489.066406 C 161.96875 487.394531 159.492188 485.660156 157.058594 483.867188 C 154.621094 482.070312 152.234375 480.21875 149.890625 478.308594 C 147.546875 476.394531 145.25 474.429688 143 472.40625 C 140.753906 470.382812 138.554688 468.304688 136.410156 466.175781 C 134.261719 464.042969 132.167969 461.863281 130.128906 459.628906 C 128.089844 457.394531 126.105469 455.113281 124.175781 452.785156 C 122.25 450.453125 120.378906 448.078125 118.566406 445.65625 C 116.753906 443.234375 115 440.773438 113.308594 438.265625 C 111.617188 435.757812 109.988281 433.210938 108.421875 430.625 C 106.851562 428.039062 105.351562 425.414062 103.910156 422.753906 C 102.472656 420.09375 101.097656 417.402344 99.789062 414.671875 C 98.484375 411.945312 97.242188 409.1875 96.070312 406.402344 C 94.898438 403.613281 93.792969 400.796875 92.757812 397.957031 C 91.722656 395.113281 90.757812 392.25 89.863281 389.359375 C 88.964844 386.472656 88.140625 383.5625 87.390625 380.632812 C 86.636719 377.703125 85.953125 374.757812 85.34375 371.796875 C 84.734375 368.832031 84.199219 365.859375 83.734375 362.871094 C 83.273438 359.878906 82.882812 356.882812 82.5625 353.875 C 82.246094 350.867188 82.003906 347.851562 81.832031 344.832031 C 81.664062 341.8125 81.566406 338.792969 81.542969 335.765625 Z M 81.574219 335.765625 " fill-opacity="1" fill-rule="nonzero"/><path fill="#f9bd16" d="M 296.492188 350.679688 C 298.945312 346.011719 300.1875 341.039062 300.21875 335.765625 C 300.210938 334.042969 300.070312 332.328125 299.792969 330.625 C 299.515625 328.921875 299.105469 327.25 298.566406 325.613281 C 298.023438 323.972656 297.359375 322.386719 296.570312 320.851562 C 295.78125 319.316406 294.875 317.855469 293.855469 316.460938 C 292.835938 315.070312 291.714844 313.765625 290.492188 312.550781 C 289.265625 311.332031 287.953125 310.222656 286.554688 309.210938 C 285.15625 308.203125 283.6875 307.308594 282.144531 306.527344 C 280.605469 305.75 279.015625 305.097656 277.371094 304.570312 L 277.371094 230.304688 C 277.371094 229.636719 277.308594 228.976562 277.175781 228.324219 C 277.046875 227.667969 276.855469 227.035156 276.597656 226.417969 C 276.34375 225.800781 276.03125 225.214844 275.660156 224.660156 C 275.289062 224.105469 274.867188 223.59375 274.398438 223.121094 C 273.925781 222.648438 273.410156 222.230469 272.855469 221.859375 C 272.304688 221.488281 271.71875 221.175781 271.101562 220.917969 C 270.484375 220.664062 269.847656 220.472656 269.195312 220.339844 C 268.539062 220.210938 267.878906 220.144531 267.214844 220.144531 C 266.546875 220.144531 265.886719 220.210938 265.230469 220.339844 C 264.578125 220.472656 263.941406 220.664062 263.324219 220.917969 C 262.710938 221.175781 262.125 221.488281 261.570312 221.859375 C 261.015625 222.230469 260.5 222.648438 260.03125 223.121094 C 259.558594 223.59375 259.136719 224.105469 258.765625 224.660156 C 258.394531 225.214844 258.082031 225.800781 257.828125 226.417969 C 257.570312 227.035156 257.378906 227.667969 257.25 228.324219 C 257.121094 228.976562 257.054688 229.636719 257.054688 230.304688 L 257.054688 304.570312 C 256.128906 304.867188 255.21875 305.203125 254.324219 305.582031 C 253.429688 305.960938 252.554688 306.378906 251.695312 306.835938 C 250.835938 307.289062 250 307.785156 249.1875 308.3125 C 248.371094 308.84375 247.582031 309.410156 246.820312 310.007812 C 246.054688 310.609375 245.316406 311.242188 244.609375 311.90625 C 243.902344 312.574219 243.222656 313.269531 242.578125 313.992188 C 241.929688 314.71875 241.316406 315.46875 240.738281 316.25 C 240.15625 317.03125 239.613281 317.832031 239.105469 318.660156 C 238.59375 319.488281 238.125 320.335938 237.691406 321.207031 C 237.257812 322.078125 236.863281 322.964844 236.507812 323.867188 C 236.152344 324.773438 235.835938 325.691406 235.5625 326.625 C 235.289062 327.554688 235.058594 328.5 234.867188 329.449219 C 234.675781 330.402344 234.527344 331.363281 234.421875 332.328125 C 234.316406 333.296875 234.253906 334.265625 234.234375 335.234375 C 234.214844 336.207031 234.238281 337.175781 234.304688 338.148438 C 234.371094 339.117188 234.480469 340.082031 234.632812 341.039062 C 234.785156 342 234.976562 342.953125 235.214844 343.894531 C 235.449219 344.835938 235.726562 345.765625 236.046875 346.683594 C 236.363281 347.601562 236.722656 348.503906 237.121094 349.390625 C 237.519531 350.277344 237.957031 351.144531 238.429688 351.992188 C 238.90625 352.839844 239.417969 353.664062 239.964844 354.46875 C 240.515625 355.269531 241.097656 356.046875 241.714844 356.796875 C 242.332031 357.546875 242.980469 358.269531 243.660156 358.960938 C 244.339844 359.65625 245.050781 360.316406 245.789062 360.949219 C 246.53125 361.578125 247.296875 362.175781 248.089844 362.738281 C 248.878906 363.300781 249.695312 363.828125 250.535156 364.316406 C 251.375 364.808594 252.234375 365.257812 253.113281 365.675781 C 253.992188 366.089844 254.886719 366.460938 255.796875 366.796875 C 256.710938 367.132812 257.636719 367.425781 258.574219 367.679688 C 259.511719 367.933594 260.460938 368.144531 261.417969 368.3125 C 262.375 368.480469 263.335938 368.609375 264.304688 368.691406 C 265.273438 368.777344 266.242188 368.816406 267.214844 368.816406 C 272.488281 368.78125 277.457031 367.539062 282.125 365.085938 L 318.394531 401.355469 C 318.871094 401.8125 319.382812 402.222656 319.9375 402.578125 C 320.492188 402.9375 321.074219 403.238281 321.6875 403.484375 C 322.300781 403.726562 322.929688 403.910156 323.578125 404.03125 C 324.226562 404.15625 324.882812 404.210938 325.542969 404.207031 C 326.199219 404.199219 326.855469 404.132812 327.5 404 C 328.144531 403.867188 328.773438 403.671875 329.382812 403.417969 C 329.988281 403.160156 330.566406 402.851562 331.117188 402.484375 C 331.664062 402.113281 332.171875 401.699219 332.636719 401.230469 C 333.101562 400.765625 333.519531 400.257812 333.886719 399.710938 C 334.253906 399.164062 334.566406 398.585938 334.820312 397.976562 C 335.078125 397.367188 335.269531 396.742188 335.402344 396.09375 C 335.535156 395.449219 335.605469 394.796875 335.613281 394.136719 C 335.617188 393.476562 335.558594 392.824219 335.4375 392.175781 C 335.316406 391.527344 335.132812 390.894531 334.890625 390.28125 C 334.644531 389.667969 334.34375 389.085938 333.984375 388.53125 C 333.625 387.976562 333.21875 387.464844 332.761719 386.988281 Z M 254.523438 335.765625 C 254.523438 334.933594 254.605469 334.109375 254.769531 333.292969 C 254.929688 332.476562 255.171875 331.679688 255.492188 330.910156 C 255.808594 330.140625 256.199219 329.410156 256.664062 328.71875 C 257.125 328.023438 257.652344 327.382812 258.242188 326.796875 C 258.828125 326.207031 259.472656 325.679688 260.164062 325.21875 C 260.855469 324.753906 261.585938 324.363281 262.359375 324.042969 C 263.128906 323.726562 263.921875 323.484375 264.738281 323.324219 C 265.554688 323.160156 266.378906 323.078125 267.214844 323.078125 C 268.046875 323.078125 268.871094 323.160156 269.6875 323.324219 C 270.507812 323.484375 271.300781 323.726562 272.070312 324.042969 C 272.839844 324.363281 273.570312 324.753906 274.261719 325.21875 C 274.957031 325.679688 275.597656 326.207031 276.1875 326.796875 C 276.773438 327.382812 277.300781 328.023438 277.761719 328.71875 C 278.226562 329.410156 278.617188 330.140625 278.9375 330.910156 C 279.253906 331.679688 279.496094 332.476562 279.660156 333.292969 C 279.820312 334.109375 279.902344 334.933594 279.902344 335.765625 C 279.902344 336.601562 279.820312 337.425781 279.660156 338.242188 C 279.496094 339.058594 279.253906 339.851562 278.9375 340.625 C 278.617188 341.394531 278.226562 342.125 277.761719 342.816406 C 277.300781 343.507812 276.773438 344.152344 276.1875 344.738281 C 275.597656 345.328125 274.957031 345.855469 274.261719 346.316406 C 273.570312 346.78125 272.839844 347.171875 272.070312 347.492188 C 271.300781 347.808594 270.507812 348.050781 269.6875 348.210938 C 268.871094 348.375 268.046875 348.457031 267.214844 348.457031 C 266.378906 348.453125 265.554688 348.371094 264.738281 348.207031 C 263.921875 348.046875 263.128906 347.804688 262.359375 347.484375 C 261.589844 347.164062 260.859375 346.773438 260.167969 346.3125 C 259.476562 345.847656 258.835938 345.324219 258.246094 344.734375 C 257.65625 344.144531 257.132812 343.503906 256.667969 342.8125 C 256.207031 342.121094 255.816406 341.390625 255.496094 340.621094 C 255.175781 339.851562 254.933594 339.058594 254.773438 338.242188 C 254.609375 337.425781 254.527344 336.601562 254.523438 335.765625 Z M 254.523438 335.765625 " fill-opacity="1" fill-rule="nonzero"/><path fill="#f9bd16" d="M 171.636719 225.816406 L 153.980469 208.179688 C 153.511719 207.691406 153 207.257812 152.445312 206.875 C 151.890625 206.492188 151.300781 206.167969 150.683594 205.902344 C 150.0625 205.636719 149.421875 205.433594 148.761719 205.292969 C 148.101562 205.15625 147.433594 205.082031 146.761719 205.078125 C 146.085938 205.070312 145.417969 205.132812 144.753906 205.257812 C 144.09375 205.386719 143.449219 205.578125 142.824219 205.832031 C 142.199219 206.089844 141.609375 206.402344 141.046875 206.777344 C 140.484375 207.148438 139.964844 207.574219 139.488281 208.050781 C 139.011719 208.53125 138.585938 209.046875 138.210938 209.609375 C 137.839844 210.171875 137.523438 210.765625 137.269531 211.390625 C 137.015625 212.011719 136.824219 212.65625 136.695312 213.320312 C 136.566406 213.980469 136.507812 214.648438 136.511719 215.324219 C 136.519531 216 136.589844 216.667969 136.730469 217.328125 C 136.867188 217.984375 137.070312 218.625 137.335938 219.246094 C 137.605469 219.867188 137.929688 220.453125 138.3125 221.007812 C 138.695312 221.5625 139.128906 222.074219 139.613281 222.542969 L 157.269531 240.179688 C 157.738281 240.664062 158.25 241.097656 158.804688 241.480469 C 159.363281 241.867188 159.949219 242.191406 160.570312 242.457031 C 161.1875 242.722656 161.828125 242.925781 162.488281 243.0625 C 163.148438 243.203125 163.816406 243.273438 164.488281 243.28125 C 165.164062 243.285156 165.832031 243.226562 166.496094 243.097656 C 167.15625 242.972656 167.800781 242.78125 168.425781 242.523438 C 169.050781 242.269531 169.640625 241.953125 170.203125 241.582031 C 170.765625 241.207031 171.285156 240.78125 171.761719 240.304688 C 172.238281 239.828125 172.664062 239.308594 173.039062 238.746094 C 173.410156 238.1875 173.726562 237.59375 173.980469 236.96875 C 174.238281 236.34375 174.429688 235.703125 174.554688 235.039062 C 174.683594 234.375 174.742188 233.707031 174.738281 233.035156 C 174.730469 232.359375 174.660156 231.691406 174.519531 231.03125 C 174.382812 230.371094 174.179688 229.730469 173.914062 229.113281 C 173.644531 228.492188 173.320312 227.90625 172.9375 227.351562 C 172.554688 226.796875 172.121094 226.285156 171.636719 225.816406 Z M 171.636719 225.816406 " fill-opacity="1" fill-rule="nonzero"/><path fill="#f9bd16" d="M 96.925781 325.609375 C 96.257812 325.609375 95.597656 325.671875 94.945312 325.804688 C 94.289062 325.933594 93.652344 326.125 93.039062 326.382812 C 92.421875 326.636719 91.835938 326.949219 91.28125 327.320312 C 90.726562 327.691406 90.214844 328.113281 89.742188 328.582031 C 89.269531 329.054688 88.847656 329.570312 88.476562 330.125 C 88.109375 330.679688 87.792969 331.261719 87.539062 331.878906 C 87.285156 332.496094 87.089844 333.132812 86.960938 333.785156 C 86.832031 334.441406 86.765625 335.101562 86.765625 335.765625 C 86.765625 336.433594 86.832031 337.09375 86.960938 337.75 C 87.089844 338.402344 87.285156 339.039062 87.539062 339.65625 C 87.792969 340.269531 88.109375 340.855469 88.476562 341.410156 C 88.847656 341.964844 89.269531 342.480469 89.742188 342.949219 C 90.214844 343.421875 90.726562 343.84375 91.28125 344.214844 C 91.835938 344.585938 92.421875 344.898438 93.039062 345.152344 C 93.652344 345.410156 94.289062 345.601562 94.945312 345.730469 C 95.597656 345.863281 96.257812 345.925781 96.925781 345.925781 L 121.875 345.925781 C 122.542969 345.925781 123.203125 345.863281 123.859375 345.730469 C 124.511719 345.601562 125.148438 345.410156 125.765625 345.152344 C 126.378906 344.898438 126.964844 344.585938 127.519531 344.214844 C 128.074219 343.84375 128.589844 343.421875 129.058594 342.949219 C 129.53125 342.480469 129.953125 341.964844 130.324219 341.410156 C 130.695312 340.855469 131.007812 340.269531 131.261719 339.65625 C 131.515625 339.039062 131.710938 338.402344 131.839844 337.75 C 131.96875 337.09375 132.035156 336.433594 132.035156 335.765625 C 132.035156 335.101562 131.96875 334.441406 131.839844 333.785156 C 131.710938 333.132812 131.515625 332.496094 131.261719 331.878906 C 131.007812 331.261719 130.695312 330.679688 130.324219 330.125 C 129.953125 329.570312 129.53125 329.054688 129.058594 328.582031 C 128.589844 328.113281 128.074219 327.691406 127.519531 327.320312 C 126.964844 326.949219 126.378906 326.636719 125.765625 326.382812 C 125.148438 326.125 124.511719 325.933594 123.859375 325.804688 C 123.203125 325.671875 122.542969 325.609375 121.875 325.609375 Z M 96.925781 325.609375 " fill-opacity="1" fill-rule="nonzero"/><path fill="#f9bd16" d="M 157.269531 431.355469 L 139.613281 449 C 139.128906 449.46875 138.695312 449.980469 138.3125 450.535156 C 137.929688 451.09375 137.605469 451.679688 137.335938 452.300781 C 137.070312 452.917969 136.867188 453.558594 136.730469 454.21875 C 136.589844 454.878906 136.519531 455.546875 136.511719 456.21875 C 136.507812 456.894531 136.566406 457.5625 136.695312 458.226562 C 136.824219 458.886719 137.015625 459.53125 137.269531 460.15625 C 137.523438 460.78125 137.839844 461.371094 138.214844 461.933594 C 138.585938 462.496094 139.011719 463.015625 139.488281 463.492188 C 139.964844 463.96875 140.484375 464.394531 141.046875 464.769531 C 141.609375 465.140625 142.199219 465.457031 142.824219 465.710938 C 143.449219 465.964844 144.09375 466.15625 144.753906 466.285156 C 145.417969 466.414062 146.085938 466.472656 146.761719 466.46875 C 147.433594 466.460938 148.101562 466.390625 148.761719 466.25 C 149.421875 466.113281 150.0625 465.910156 150.683594 465.644531 C 151.300781 465.375 151.890625 465.050781 152.445312 464.667969 C 153 464.285156 153.511719 463.851562 153.980469 463.367188 L 171.636719 445.71875 C 172.121094 445.25 172.554688 444.738281 172.9375 444.183594 C 173.320312 443.628906 173.644531 443.042969 173.914062 442.421875 C 174.179688 441.800781 174.382812 441.164062 174.519531 440.503906 C 174.660156 439.84375 174.730469 439.175781 174.738281 438.5 C 174.742188 437.828125 174.683594 437.15625 174.554688 436.496094 C 174.425781 435.832031 174.234375 435.191406 173.980469 434.566406 C 173.726562 433.941406 173.410156 433.347656 173.039062 432.785156 C 172.664062 432.226562 172.238281 431.707031 171.761719 431.230469 C 171.285156 430.753906 170.765625 430.328125 170.203125 429.953125 C 169.640625 429.578125 169.050781 429.265625 168.425781 429.011719 C 167.800781 428.753906 167.15625 428.5625 166.496094 428.4375 C 165.832031 428.308594 165.164062 428.25 164.488281 428.253906 C 163.816406 428.261719 163.148438 428.332031 162.488281 428.472656 C 161.828125 428.609375 161.1875 428.8125 160.570312 429.078125 C 159.949219 429.34375 159.363281 429.667969 158.804688 430.050781 C 158.25 430.433594 157.738281 430.871094 157.269531 431.355469 Z M 157.269531 431.355469 " fill-opacity="1" fill-rule="nonzero"/><path fill="#f9bd16" d="M 277.371094 506.054688 L 277.371094 481.105469 C 277.371094 480.4375 277.308594 479.777344 277.175781 479.121094 C 277.046875 478.46875 276.855469 477.832031 276.597656 477.214844 C 276.34375 476.601562 276.03125 476.015625 275.660156 475.460938 C 275.289062 474.90625 274.867188 474.390625 274.398438 473.921875 C 273.925781 473.449219 273.410156 473.027344 272.855469 472.65625 C 272.304688 472.285156 271.71875 471.972656 271.101562 471.71875 C 270.484375 471.464844 269.847656 471.269531 269.195312 471.140625 C 268.539062 471.011719 267.878906 470.945312 267.214844 470.945312 C 266.546875 470.945312 265.886719 471.011719 265.230469 471.140625 C 264.578125 471.269531 263.941406 471.464844 263.324219 471.71875 C 262.710938 471.972656 262.125 472.285156 261.570312 472.65625 C 261.015625 473.027344 260.5 473.449219 260.03125 473.921875 C 259.558594 474.390625 259.136719 474.90625 258.765625 475.460938 C 258.394531 476.015625 258.082031 476.601562 257.828125 477.214844 C 257.570312 477.832031 257.378906 478.46875 257.25 479.121094 C 257.121094 479.777344 257.054688 480.4375 257.054688 481.105469 L 257.054688 506.054688 C 257.054688 506.722656 257.121094 507.382812 257.25 508.035156 C 257.378906 508.691406 257.570312 509.328125 257.828125 509.941406 C 258.082031 510.558594 258.394531 511.144531 258.765625 511.699219 C 259.136719 512.253906 259.558594 512.765625 260.03125 513.238281 C 260.5 513.710938 261.015625 514.132812 261.570312 514.503906 C 262.125 514.871094 262.710938 515.1875 263.324219 515.441406 C 263.941406 515.695312 264.578125 515.890625 265.230469 516.019531 C 265.886719 516.148438 266.546875 516.214844 267.214844 516.214844 C 267.878906 516.214844 268.539062 516.148438 269.195312 516.019531 C 269.847656 515.890625 270.484375 515.695312 271.101562 515.441406 C 271.71875 515.1875 272.304688 514.871094 272.855469 514.503906 C 273.410156 514.132812 273.925781 513.710938 274.398438 513.238281 C 274.867188 512.765625 275.289062 512.253906 275.660156 511.699219 C 276.03125 511.144531 276.34375 510.558594 276.597656 509.941406 C 276.855469 509.328125 277.046875 508.691406 277.175781 508.035156 C 277.308594 507.382812 277.371094 506.722656 277.371094 506.054688 Z M 277.371094 506.054688 " fill-opacity="1" fill-rule="nonzero"/><path fill="#f9bd16" d="M 387.628906 466.34375 C 388.632812 466.34375 389.617188 466.195312 390.578125 465.90625 C 391.539062 465.613281 392.4375 465.1875 393.273438 464.628906 C 394.109375 464.070312 394.84375 463.40625 395.480469 462.628906 C 396.117188 461.851562 396.628906 461 397.011719 460.070312 C 397.398438 459.144531 397.640625 458.179688 397.738281 457.179688 C 397.835938 456.179688 397.789062 455.1875 397.589844 454.203125 C 397.394531 453.21875 397.0625 452.28125 396.585938 451.394531 C 396.113281 450.511719 395.523438 449.710938 394.8125 449 L 377.207031 431.355469 C 376.738281 430.871094 376.226562 430.4375 375.671875 430.050781 C 375.117188 429.667969 374.527344 429.34375 373.910156 429.078125 C 373.289062 428.8125 372.648438 428.609375 371.988281 428.472656 C 371.328125 428.332031 370.660156 428.261719 369.988281 428.253906 C 369.3125 428.25 368.644531 428.308594 367.980469 428.4375 C 367.320312 428.5625 366.675781 428.753906 366.050781 429.011719 C 365.429688 429.265625 364.835938 429.582031 364.273438 429.953125 C 363.710938 430.328125 363.191406 430.753906 362.714844 431.230469 C 362.238281 431.707031 361.8125 432.226562 361.441406 432.785156 C 361.066406 433.347656 360.753906 433.941406 360.496094 434.566406 C 360.242188 435.191406 360.050781 435.832031 359.921875 436.496094 C 359.796875 437.15625 359.734375 437.828125 359.742188 438.5 C 359.746094 439.175781 359.820312 439.84375 359.957031 440.503906 C 360.097656 441.164062 360.296875 441.800781 360.566406 442.421875 C 360.832031 443.042969 361.15625 443.628906 361.539062 444.183594 C 361.921875 444.738281 362.355469 445.25 362.839844 445.71875 L 380.488281 463.367188 C 381.433594 464.3125 382.527344 465.046875 383.765625 465.5625 C 385 466.078125 386.289062 466.335938 387.628906 466.34375 Z M 387.628906 466.34375 " fill-opacity="1" fill-rule="nonzero"/><g clip-path="url(#aaf6c0c6bb)"><path fill="#f9bd16" d="M 582.980469 126.457031 L 558.742188 126.457031 C 555.894531 113.277344 550.816406 101.019531 543.5 89.691406 L 560.660156 72.542969 C 561.132812 72.070312 561.554688 71.558594 561.921875 71.003906 C 562.292969 70.449219 562.605469 69.863281 562.863281 69.246094 C 563.117188 68.632812 563.308594 67.996094 563.441406 67.34375 C 563.570312 66.6875 563.636719 66.027344 563.636719 65.359375 C 563.636719 64.695312 563.570312 64.035156 563.441406 63.378906 C 563.308594 62.726562 563.117188 62.089844 562.863281 61.472656 C 562.605469 60.859375 562.292969 60.273438 561.921875 59.71875 C 561.554688 59.164062 561.132812 58.648438 560.660156 58.179688 L 541.875 39.414062 C 541.40625 38.941406 540.890625 38.523438 540.335938 38.152344 C 539.78125 37.78125 539.195312 37.46875 538.582031 37.214844 C 537.964844 36.957031 537.328125 36.765625 536.675781 36.636719 C 536.019531 36.503906 535.359375 36.441406 534.695312 36.441406 C 534.027344 36.441406 533.367188 36.503906 532.710938 36.636719 C 532.058594 36.765625 531.421875 36.957031 530.808594 37.214844 C 530.191406 37.46875 529.605469 37.78125 529.050781 38.152344 C 528.496094 38.523438 527.984375 38.941406 527.511719 39.414062 L 510.351562 56.554688 C 499.027344 49.234375 486.777344 44.15625 473.597656 41.3125 L 473.597656 17.0625 C 473.597656 16.398438 473.53125 15.738281 473.402344 15.082031 C 473.269531 14.429688 473.078125 13.792969 472.824219 13.175781 C 472.566406 12.558594 472.253906 11.976562 471.882812 11.421875 C 471.515625 10.867188 471.09375 10.351562 470.621094 9.878906 C 470.148438 9.410156 469.636719 8.988281 469.082031 8.617188 C 468.527344 8.246094 467.941406 7.933594 467.324219 7.679688 C 466.707031 7.421875 466.074219 7.230469 465.417969 7.101562 C 464.765625 6.96875 464.105469 6.90625 463.4375 6.90625 L 436.882812 6.90625 C 436.214844 6.90625 435.554688 6.96875 434.898438 7.101562 C 434.246094 7.230469 433.609375 7.421875 432.992188 7.679688 C 432.378906 7.933594 431.792969 8.246094 431.238281 8.617188 C 430.683594 8.988281 430.167969 9.410156 429.699219 9.878906 C 429.226562 10.351562 428.804688 10.867188 428.433594 11.421875 C 428.0625 11.976562 427.75 12.558594 427.496094 13.175781 C 427.242188 13.792969 427.046875 14.429688 426.917969 15.082031 C 426.789062 15.738281 426.722656 16.398438 426.722656 17.0625 L 426.722656 41.3125 C 413.542969 44.160156 401.292969 49.242188 389.964844 56.554688 L 372.808594 39.414062 C 372.335938 38.941406 371.824219 38.523438 371.269531 38.152344 C 370.714844 37.78125 370.128906 37.46875 369.511719 37.214844 C 368.894531 36.957031 368.261719 36.765625 367.605469 36.636719 C 366.953125 36.503906 366.292969 36.441406 365.625 36.441406 C 364.957031 36.441406 364.296875 36.503906 363.644531 36.636719 C 362.988281 36.765625 362.355469 36.957031 361.738281 37.214844 C 361.121094 37.46875 360.535156 37.78125 359.980469 38.152344 C 359.425781 38.523438 358.914062 38.941406 358.441406 39.414062 L 339.667969 58.179688 C 339.195312 58.648438 338.777344 59.164062 338.40625 59.71875 C 338.035156 60.273438 337.722656 60.859375 337.46875 61.472656 C 337.210938 62.089844 337.019531 62.726562 336.890625 63.378906 C 336.757812 64.035156 336.695312 64.695312 336.695312 65.359375 C 336.695312 66.027344 336.757812 66.6875 336.890625 67.34375 C 337.019531 67.996094 337.210938 68.632812 337.46875 69.246094 C 337.722656 69.863281 338.035156 70.449219 338.40625 71.003906 C 338.777344 71.558594 339.195312 72.070312 339.667969 72.542969 L 356.816406 89.691406 C 349.507812 101.023438 344.429688 113.277344 341.578125 126.457031 L 317.339844 126.457031 C 316.671875 126.457031 316.011719 126.523438 315.355469 126.652344 C 314.703125 126.785156 314.066406 126.976562 313.449219 127.230469 C 312.835938 127.488281 312.25 127.800781 311.695312 128.171875 C 311.140625 128.539062 310.625 128.960938 310.15625 129.433594 C 309.683594 129.90625 309.261719 130.417969 308.890625 130.972656 C 308.519531 131.527344 308.207031 132.113281 307.953125 132.730469 C 307.699219 133.347656 307.503906 133.980469 307.375 134.636719 C 307.246094 135.289062 307.179688 135.949219 307.179688 136.617188 L 307.179688 163.171875 C 307.179688 163.839844 307.246094 164.5 307.375 165.15625 C 307.503906 165.808594 307.699219 166.445312 307.953125 167.0625 C 308.207031 167.675781 308.519531 168.261719 308.890625 168.816406 C 309.261719 169.371094 309.683594 169.886719 310.15625 170.355469 C 310.625 170.828125 311.140625 171.25 311.695312 171.621094 C 312.25 171.992188 312.835938 172.304688 313.449219 172.558594 C 314.066406 172.8125 314.703125 173.007812 315.355469 173.136719 C 316.011719 173.265625 316.671875 173.332031 317.339844 173.332031 L 341.589844 173.332031 C 344.429688 186.511719 349.507812 198.761719 356.816406 210.089844 L 339.667969 227.238281 C 339.195312 227.707031 338.773438 228.222656 338.402344 228.777344 C 338.03125 229.332031 337.71875 229.917969 337.464844 230.535156 C 337.207031 231.152344 337.015625 231.785156 336.882812 232.441406 C 336.753906 233.097656 336.6875 233.757812 336.6875 234.425781 C 336.6875 235.09375 336.753906 235.753906 336.882812 236.40625 C 337.015625 237.0625 337.207031 237.699219 337.464844 238.316406 C 337.71875 238.929688 338.03125 239.515625 338.402344 240.070312 C 338.773438 240.628906 339.195312 241.140625 339.667969 241.613281 L 358.441406 260.386719 C 358.914062 260.859375 359.425781 261.277344 359.980469 261.648438 C 360.535156 262.019531 361.121094 262.332031 361.738281 262.585938 C 362.355469 262.84375 362.988281 263.035156 363.644531 263.164062 C 364.296875 263.296875 364.957031 263.359375 365.625 263.359375 C 366.292969 263.359375 366.953125 263.296875 367.605469 263.164062 C 368.261719 263.035156 368.894531 262.84375 369.511719 262.585938 C 370.128906 262.332031 370.714844 262.019531 371.269531 261.648438 C 371.824219 261.277344 372.335938 260.859375 372.808594 260.386719 L 389.964844 243.238281 C 401.292969 250.550781 413.542969 255.632812 426.722656 258.476562 L 426.722656 282.726562 C 426.722656 283.394531 426.789062 284.054688 426.917969 284.707031 C 427.046875 285.363281 427.238281 285.996094 427.496094 286.613281 C 427.75 287.230469 428.0625 287.816406 428.433594 288.371094 C 428.804688 288.925781 429.226562 289.4375 429.699219 289.910156 C 430.167969 290.382812 430.683594 290.804688 431.238281 291.171875 C 431.792969 291.542969 432.378906 291.855469 432.992188 292.113281 C 433.609375 292.367188 434.246094 292.558594 434.898438 292.691406 C 435.554688 292.820312 436.214844 292.886719 436.882812 292.886719 L 463.4375 292.886719 C 464.105469 292.886719 464.765625 292.820312 465.417969 292.691406 C 466.074219 292.558594 466.707031 292.367188 467.324219 292.113281 C 467.941406 291.855469 468.527344 291.542969 469.082031 291.171875 C 469.636719 290.804688 470.148438 290.382812 470.621094 289.910156 C 471.09375 289.4375 471.515625 288.925781 471.882812 288.371094 C 472.253906 287.816406 472.566406 287.230469 472.824219 286.613281 C 473.078125 285.996094 473.269531 285.363281 473.402344 284.707031 C 473.53125 284.054688 473.597656 283.394531 473.597656 282.726562 L 473.597656 258.464844 C 486.777344 255.621094 499.035156 250.542969 510.363281 243.226562 L 527.5625 260.386719 C 528.035156 260.859375 528.546875 261.277344 529.101562 261.648438 C 529.65625 262.019531 530.242188 262.332031 530.859375 262.585938 C 531.472656 262.84375 532.109375 263.035156 532.761719 263.164062 C 533.417969 263.296875 534.078125 263.359375 534.746094 263.359375 C 535.410156 263.359375 536.070312 263.296875 536.726562 263.164062 C 537.378906 263.035156 538.015625 262.84375 538.632812 262.585938 C 539.246094 262.332031 539.832031 262.019531 540.386719 261.648438 C 540.941406 261.277344 541.457031 260.859375 541.925781 260.386719 L 560.660156 241.582031 C 561.132812 241.109375 561.554688 240.597656 561.925781 240.042969 C 562.296875 239.488281 562.609375 238.902344 562.867188 238.285156 C 563.121094 237.667969 563.3125 237.03125 563.445312 236.378906 C 563.574219 235.722656 563.640625 235.0625 563.640625 234.394531 C 563.640625 233.726562 563.574219 233.066406 563.445312 232.410156 C 563.3125 231.757812 563.121094 231.121094 562.867188 230.503906 C 562.609375 229.886719 562.296875 229.300781 561.925781 228.746094 C 561.554688 228.191406 561.132812 227.679688 560.660156 227.207031 L 543.5 210.089844 C 550.816406 198.761719 555.894531 186.511719 558.742188 173.332031 L 582.980469 173.332031 C 583.648438 173.332031 584.308594 173.265625 584.960938 173.136719 C 585.617188 173.007812 586.25 172.8125 586.867188 172.558594 C 587.484375 172.304688 588.070312 171.992188 588.625 171.621094 C 589.179688 171.25 589.691406 170.828125 590.164062 170.355469 C 590.636719 169.886719 591.058594 169.371094 591.425781 168.816406 C 591.796875 168.261719 592.109375 167.675781 592.367188 167.0625 C 592.621094 166.445312 592.8125 165.808594 592.945312 165.15625 C 593.074219 164.5 593.140625 163.839844 593.140625 163.171875 L 593.140625 136.617188 C 593.140625 135.949219 593.074219 135.289062 592.945312 134.636719 C 592.8125 133.980469 592.621094 133.347656 592.367188 132.730469 C 592.109375 132.113281 591.796875 131.527344 591.425781 130.972656 C 591.058594 130.417969 590.636719 129.90625 590.164062 129.433594 C 589.691406 128.960938 589.179688 128.539062 588.625 128.171875 C 588.070312 127.800781 587.484375 127.488281 586.867188 127.230469 C 586.25 126.976562 585.617188 126.785156 584.960938 126.652344 C 584.308594 126.523438 583.648438 126.457031 582.980469 126.457031 Z M 572.820312 153.015625 L 550.195312 153.015625 C 549.585938 153.015625 548.980469 153.070312 548.378906 153.179688 C 547.777344 153.289062 547.191406 153.449219 546.621094 153.664062 C 546.046875 153.882812 545.5 154.144531 544.976562 154.460938 C 544.453125 154.773438 543.960938 155.132812 543.503906 155.535156 C 543.042969 155.9375 542.625 156.378906 542.242188 156.855469 C 541.863281 157.335938 541.53125 157.84375 541.242188 158.382812 C 540.953125 158.921875 540.714844 159.480469 540.53125 160.0625 C 540.34375 160.644531 540.207031 161.238281 540.128906 161.84375 C 539.085938 169.695312 537.042969 177.285156 534.007812 184.601562 C 530.972656 191.921875 527.042969 198.722656 522.21875 205.007812 C 521.847656 205.492188 521.523438 206.007812 521.242188 206.550781 C 520.964844 207.09375 520.734375 207.65625 520.558594 208.242188 C 520.382812 208.828125 520.257812 209.421875 520.1875 210.027344 C 520.117188 210.636719 520.105469 211.242188 520.144531 211.851562 C 520.183594 212.460938 520.277344 213.0625 520.425781 213.65625 C 520.574219 214.246094 520.773438 214.820312 521.027344 215.378906 C 521.277344 215.933594 521.578125 216.464844 521.925781 216.964844 C 522.269531 217.46875 522.660156 217.9375 523.09375 218.367188 L 539.101562 234.46875 L 534.695312 238.878906 L 518.683594 222.867188 C 518.25 222.4375 517.785156 222.046875 517.28125 221.699219 C 516.777344 221.347656 516.25 221.050781 515.691406 220.796875 C 515.136719 220.542969 514.5625 220.34375 513.96875 220.195312 C 513.375 220.046875 512.773438 219.949219 512.164062 219.910156 C 511.554688 219.871094 510.945312 219.882812 510.339844 219.953125 C 509.730469 220.023438 509.136719 220.148438 508.550781 220.324219 C 507.964844 220.5 507.402344 220.730469 506.855469 221.007812 C 506.3125 221.289062 505.796875 221.613281 505.3125 221.984375 C 499.023438 226.8125 492.21875 230.746094 484.894531 233.78125 C 477.570312 236.816406 469.976562 238.855469 462.117188 239.894531 C 461.511719 239.976562 460.917969 240.109375 460.335938 240.292969 C 459.753906 240.480469 459.191406 240.71875 458.652344 241.007812 C 458.113281 241.292969 457.605469 241.628906 457.125 242.007812 C 456.648438 242.386719 456.207031 242.804688 455.804688 243.265625 C 455.398438 243.726562 455.039062 244.21875 454.726562 244.742188 C 454.410156 245.265625 454.148438 245.8125 453.929688 246.382812 C 453.714844 246.957031 453.554688 247.542969 453.441406 248.144531 C 453.332031 248.746094 453.277344 249.351562 453.277344 249.964844 L 453.277344 272.597656 L 447.039062 272.597656 L 447.039062 249.921875 C 447.039062 249.3125 446.984375 248.703125 446.875 248.105469 C 446.765625 247.503906 446.601562 246.917969 446.386719 246.34375 C 446.171875 245.773438 445.90625 245.222656 445.59375 244.699219 C 445.277344 244.175781 444.917969 243.683594 444.515625 243.226562 C 444.113281 242.765625 443.671875 242.347656 443.191406 241.964844 C 442.714844 241.585938 442.203125 241.253906 441.664062 240.964844 C 441.125 240.675781 440.566406 240.441406 439.984375 240.253906 C 439.402344 240.066406 438.808594 239.933594 438.203125 239.855469 C 430.34375 238.8125 422.75 236.773438 415.425781 233.738281 C 408.101562 230.699219 401.296875 226.769531 395.003906 221.945312 C 394.519531 221.570312 394.003906 221.246094 393.460938 220.96875 C 392.917969 220.6875 392.355469 220.460938 391.769531 220.285156 C 391.183594 220.105469 390.585938 219.984375 389.980469 219.914062 C 389.371094 219.84375 388.765625 219.828125 388.15625 219.871094 C 387.542969 219.910156 386.941406 220.003906 386.351562 220.152344 C 385.757812 220.300781 385.183594 220.503906 384.625 220.753906 C 384.070312 221.007812 383.539062 221.308594 383.039062 221.65625 C 382.535156 222.003906 382.066406 222.394531 381.636719 222.828125 L 365.625 238.839844 L 361.214844 234.429688 L 377.207031 218.410156 C 377.636719 217.976562 378.027344 217.507812 378.375 217.007812 C 378.722656 216.503906 379.019531 215.976562 379.273438 215.417969 C 379.523438 214.863281 379.726562 214.289062 379.875 213.695312 C 380.019531 213.105469 380.117188 212.503906 380.15625 211.894531 C 380.195312 211.285156 380.179688 210.675781 380.109375 210.070312 C 380.039062 209.460938 379.917969 208.867188 379.738281 208.28125 C 379.5625 207.699219 379.335938 207.132812 379.054688 206.589844 C 378.777344 206.046875 378.453125 205.535156 378.082031 205.050781 C 373.257812 198.753906 369.328125 191.945312 366.292969 184.621094 C 363.253906 177.296875 361.214844 169.703125 360.167969 161.84375 C 360.089844 161.238281 359.957031 160.644531 359.769531 160.0625 C 359.582031 159.480469 359.34375 158.921875 359.054688 158.382812 C 358.769531 157.84375 358.433594 157.335938 358.054688 156.855469 C 357.675781 156.378906 357.253906 155.9375 356.796875 155.535156 C 356.335938 155.132812 355.84375 154.773438 355.320312 154.460938 C 354.796875 154.144531 354.25 153.882812 353.679688 153.664062 C 353.105469 153.449219 352.519531 153.289062 351.917969 153.179688 C 351.320312 153.070312 350.710938 153.015625 350.101562 153.015625 L 327.496094 153.015625 L 327.496094 146.777344 L 350.121094 146.777344 C 350.734375 146.777344 351.339844 146.722656 351.941406 146.613281 C 352.542969 146.5 353.128906 146.339844 353.699219 146.125 C 354.273438 145.90625 354.820312 145.644531 355.34375 145.328125 C 355.867188 145.015625 356.359375 144.65625 356.820312 144.25 C 357.277344 143.847656 357.699219 143.40625 358.078125 142.929688 C 358.457031 142.449219 358.792969 141.941406 359.078125 141.402344 C 359.367188 140.863281 359.605469 140.300781 359.789062 139.71875 C 359.976562 139.136719 360.109375 138.542969 360.191406 137.9375 C 361.234375 130.078125 363.277344 122.484375 366.3125 115.160156 C 369.347656 107.835938 373.277344 101.027344 378.101562 94.730469 C 378.472656 94.246094 378.796875 93.730469 379.074219 93.1875 C 379.351562 92.644531 379.578125 92.078125 379.753906 91.496094 C 379.933594 90.910156 380.054688 90.3125 380.125 89.707031 C 380.191406 89.101562 380.207031 88.492188 380.164062 87.882812 C 380.125 87.273438 380.03125 86.671875 379.878906 86.082031 C 379.730469 85.488281 379.53125 84.914062 379.277344 84.359375 C 379.023438 83.800781 378.726562 83.273438 378.375 82.773438 C 378.027344 82.269531 377.640625 81.804688 377.207031 81.371094 L 361.214844 65.359375 L 365.625 60.941406 L 381.636719 77.003906 C 382.066406 77.4375 382.535156 77.828125 383.039062 78.175781 C 383.539062 78.523438 384.070312 78.824219 384.625 79.074219 C 385.183594 79.328125 385.757812 79.527344 386.351562 79.679688 C 386.941406 79.828125 387.542969 79.921875 388.152344 79.960938 C 388.765625 80.003906 389.371094 79.988281 389.980469 79.917969 C 390.585938 79.847656 391.183594 79.726562 391.769531 79.546875 C 392.355469 79.371094 392.917969 79.144531 393.460938 78.863281 C 394.003906 78.585938 394.519531 78.257812 395.003906 77.886719 C 401.289062 73.058594 408.085938 69.117188 415.40625 66.074219 C 422.722656 63.027344 430.308594 60.980469 438.160156 59.925781 C 438.765625 59.847656 439.363281 59.714844 439.945312 59.527344 C 440.523438 59.339844 441.085938 59.101562 441.625 58.816406 C 442.164062 58.527344 442.671875 58.195312 443.152344 57.8125 C 443.632812 57.433594 444.070312 57.015625 444.476562 56.554688 C 444.878906 56.097656 445.238281 55.605469 445.550781 55.082031 C 445.867188 54.554688 446.132812 54.007812 446.347656 53.4375 C 446.5625 52.863281 446.726562 52.277344 446.835938 51.675781 C 446.945312 51.074219 447 50.46875 447 49.859375 L 447 27.222656 L 453.238281 27.222656 L 453.238281 49.859375 C 453.238281 50.46875 453.292969 51.074219 453.402344 51.675781 C 453.511719 52.277344 453.675781 52.863281 453.890625 53.4375 C 454.105469 54.007812 454.371094 54.554688 454.6875 55.082031 C 455 55.605469 455.359375 56.097656 455.761719 56.554688 C 456.164062 57.015625 456.605469 57.433594 457.085938 57.8125 C 457.5625 58.195312 458.074219 58.527344 458.613281 58.816406 C 459.152344 59.101562 459.710938 59.339844 460.292969 59.527344 C 460.875 59.714844 461.46875 59.847656 462.074219 59.925781 C 469.933594 60.96875 477.523438 63.007812 484.847656 66.042969 C 492.171875 69.078125 498.980469 73.003906 505.273438 77.828125 C 505.757812 78.199219 506.273438 78.523438 506.816406 78.804688 C 507.359375 79.082031 507.921875 79.3125 508.507812 79.488281 C 509.09375 79.667969 509.6875 79.789062 510.296875 79.859375 C 510.902344 79.929688 511.511719 79.945312 512.121094 79.90625 C 512.730469 79.867188 513.332031 79.773438 513.925781 79.625 C 514.519531 79.476562 515.09375 79.273438 515.652344 79.023438 C 516.207031 78.769531 516.738281 78.46875 517.238281 78.121094 C 517.742188 77.773438 518.210938 77.382812 518.640625 76.953125 L 534.671875 60.941406 L 539.09375 65.359375 L 523.09375 81.371094 C 522.660156 81.804688 522.269531 82.269531 521.925781 82.773438 C 521.578125 83.277344 521.277344 83.804688 521.027344 84.363281 C 520.773438 84.917969 520.574219 85.492188 520.425781 86.085938 C 520.277344 86.675781 520.183594 87.277344 520.144531 87.886719 C 520.105469 88.496094 520.117188 89.105469 520.1875 89.710938 C 520.257812 90.316406 520.382812 90.914062 520.558594 91.496094 C 520.734375 92.082031 520.964844 92.644531 521.242188 93.1875 C 521.523438 93.734375 521.847656 94.246094 522.21875 94.730469 C 527.046875 101.027344 530.976562 107.835938 534.011719 115.167969 C 537.046875 122.496094 539.082031 130.09375 540.117188 137.957031 C 540.199219 138.566406 540.332031 139.160156 540.519531 139.742188 C 540.707031 140.324219 540.941406 140.882812 541.230469 141.425781 C 541.519531 141.964844 541.851562 142.472656 542.234375 142.953125 C 542.613281 143.429688 543.035156 143.871094 543.492188 144.277344 C 543.953125 144.679688 544.445312 145.039062 544.96875 145.351562 C 545.496094 145.667969 546.042969 145.929688 546.617188 146.144531 C 547.1875 146.363281 547.773438 146.523438 548.375 146.632812 C 548.976562 146.742188 549.585938 146.796875 550.195312 146.796875 L 572.820312 146.796875 Z M 572.820312 153.015625 " fill-opacity="1" fill-rule="nonzero"/></g><path fill="#f9bd16" d="M 450.160156 70.53125 C 448.859375 70.53125 447.5625 70.5625 446.265625 70.628906 C 444.96875 70.691406 443.671875 70.785156 442.378906 70.914062 C 441.085938 71.042969 439.800781 71.199219 438.515625 71.390625 C 437.230469 71.582031 435.949219 71.804688 434.675781 72.058594 C 433.402344 72.308594 432.136719 72.59375 430.875 72.910156 C 429.617188 73.226562 428.363281 73.574219 427.121094 73.949219 C 425.878906 74.328125 424.644531 74.734375 423.421875 75.171875 C 422.199219 75.609375 420.988281 76.074219 419.789062 76.574219 C 418.589844 77.070312 417.402344 77.597656 416.226562 78.152344 C 415.054688 78.707031 413.894531 79.289062 412.746094 79.902344 C 411.601562 80.515625 410.472656 81.15625 409.359375 81.824219 C 408.246094 82.492188 407.148438 83.183594 406.066406 83.90625 C 404.988281 84.628906 403.925781 85.375 402.882812 86.148438 C 401.839844 86.921875 400.816406 87.722656 399.8125 88.546875 C 398.808594 89.371094 397.824219 90.21875 396.863281 91.089844 C 395.898438 91.964844 394.960938 92.859375 394.042969 93.777344 C 393.121094 94.695312 392.226562 95.636719 391.355469 96.597656 C 390.484375 97.558594 389.632812 98.542969 388.8125 99.546875 C 387.988281 100.550781 387.1875 101.574219 386.414062 102.617188 C 385.640625 103.660156 384.894531 104.722656 384.171875 105.804688 C 383.449219 106.882812 382.753906 107.980469 382.085938 109.09375 C 381.417969 110.207031 380.78125 111.339844 380.167969 112.484375 C 379.554688 113.628906 378.972656 114.789062 378.414062 115.964844 C 377.859375 117.136719 377.335938 118.324219 376.835938 119.523438 C 376.339844 120.722656 375.871094 121.9375 375.433594 123.160156 C 374.996094 124.382812 374.589844 125.613281 374.214844 126.855469 C 373.835938 128.101562 373.488281 129.351562 373.175781 130.613281 C 372.859375 131.871094 372.574219 133.136719 372.320312 134.414062 C 372.066406 135.6875 371.84375 136.964844 371.65625 138.25 C 371.464844 139.535156 371.304688 140.824219 371.179688 142.117188 C 371.050781 143.410156 370.957031 144.703125 370.890625 146 C 370.828125 147.296875 370.796875 148.597656 370.796875 149.894531 C 370.796875 151.195312 370.828125 152.492188 370.890625 153.789062 C 370.957031 155.085938 371.050781 156.382812 371.179688 157.675781 C 371.304688 158.96875 371.464844 160.253906 371.65625 161.539062 C 371.84375 162.824219 372.066406 164.105469 372.320312 165.378906 C 372.574219 166.652344 372.859375 167.917969 373.175781 169.179688 C 373.488281 170.4375 373.835938 171.691406 374.214844 172.933594 C 374.589844 174.175781 374.996094 175.410156 375.433594 176.632812 C 375.871094 177.855469 376.339844 179.066406 376.835938 180.265625 C 377.335938 181.464844 377.859375 182.652344 378.414062 183.828125 C 378.972656 185 379.554688 186.160156 380.167969 187.308594 C 380.78125 188.453125 381.417969 189.582031 382.085938 190.695312 C 382.753906 191.808594 383.449219 192.90625 384.171875 193.988281 C 384.894531 195.066406 385.640625 196.128906 386.414062 197.171875 C 387.1875 198.214844 387.988281 199.238281 388.8125 200.242188 C 389.632812 201.246094 390.484375 202.230469 391.355469 203.191406 C 392.226562 204.15625 393.121094 205.09375 394.042969 206.015625 C 394.960938 206.933594 395.898438 207.828125 396.863281 208.699219 C 397.824219 209.570312 398.808594 210.421875 399.8125 211.242188 C 400.816406 212.066406 401.839844 212.867188 402.882812 213.640625 C 403.925781 214.414062 404.988281 215.160156 406.066406 215.882812 C 407.148438 216.605469 408.246094 217.300781 409.359375 217.96875 C 410.472656 218.636719 411.601562 219.273438 412.746094 219.886719 C 413.894531 220.5 415.054688 221.082031 416.226562 221.640625 C 417.402344 222.195312 418.589844 222.71875 419.789062 223.21875 C 420.988281 223.714844 422.199219 224.183594 423.421875 224.621094 C 424.644531 225.058594 425.878906 225.464844 427.121094 225.839844 C 428.363281 226.21875 429.617188 226.566406 430.875 226.878906 C 432.136719 227.195312 433.402344 227.480469 434.675781 227.734375 C 435.949219 227.988281 437.230469 228.210938 438.515625 228.398438 C 439.800781 228.589844 441.089844 228.75 442.378906 228.875 C 443.671875 229.003906 444.96875 229.097656 446.265625 229.164062 C 447.5625 229.226562 448.859375 229.257812 450.160156 229.257812 C 451.457031 229.257812 452.757812 229.226562 454.054688 229.164062 C 455.351562 229.097656 456.644531 229.003906 457.9375 228.875 C 459.230469 228.75 460.519531 228.589844 461.804688 228.398438 C 463.089844 228.210938 464.367188 227.988281 465.640625 227.734375 C 466.917969 227.480469 468.183594 227.195312 469.441406 226.878906 C 470.703125 226.566406 471.953125 226.21875 473.199219 225.839844 C 474.441406 225.464844 475.671875 225.058594 476.894531 224.621094 C 478.117188 224.183594 479.332031 223.714844 480.53125 223.21875 C 481.730469 222.71875 482.917969 222.195312 484.089844 221.640625 C 485.265625 221.082031 486.425781 220.5 487.570312 219.886719 C 488.714844 219.273438 489.847656 218.636719 490.960938 217.96875 C 492.074219 217.300781 493.171875 216.605469 494.25 215.882812 C 495.332031 215.160156 496.394531 214.414062 497.4375 213.640625 C 498.480469 212.867188 499.503906 212.066406 500.507812 211.242188 C 501.511719 210.421875 502.496094 209.570312 503.457031 208.699219 C 504.417969 207.828125 505.359375 206.933594 506.277344 206.011719 C 507.195312 205.09375 508.089844 204.15625 508.964844 203.191406 C 509.835938 202.230469 510.683594 201.246094 511.507812 200.242188 C 512.332031 199.238281 513.132812 198.214844 513.90625 197.171875 C 514.679688 196.128906 515.425781 195.066406 516.148438 193.988281 C 516.871094 192.90625 517.5625 191.808594 518.230469 190.695312 C 518.898438 189.582031 519.539062 188.453125 520.152344 187.308594 C 520.765625 186.160156 521.347656 185 521.902344 183.828125 C 522.457031 182.652344 522.984375 181.464844 523.480469 180.265625 C 523.980469 179.066406 524.445312 177.855469 524.882812 176.632812 C 525.320312 175.410156 525.726562 174.175781 526.105469 172.933594 C 526.484375 171.691406 526.828125 170.4375 527.144531 169.179688 C 527.460938 167.917969 527.746094 166.652344 527.996094 165.378906 C 528.25 164.105469 528.472656 162.824219 528.664062 161.539062 C 528.855469 160.253906 529.011719 158.96875 529.140625 157.675781 C 529.269531 156.382812 529.363281 155.085938 529.425781 153.789062 C 529.492188 152.492188 529.523438 151.195312 529.523438 149.894531 C 529.519531 148.597656 529.488281 147.300781 529.421875 146.003906 C 529.359375 144.707031 529.261719 143.410156 529.132812 142.121094 C 529.003906 140.828125 528.84375 139.539062 528.652344 138.253906 C 528.460938 136.96875 528.238281 135.691406 527.984375 134.417969 C 527.726562 133.144531 527.441406 131.878906 527.125 130.621094 C 526.808594 129.359375 526.460938 128.109375 526.085938 126.867188 C 525.707031 125.625 525.300781 124.394531 524.859375 123.171875 C 524.421875 121.949219 523.953125 120.738281 523.457031 119.539062 C 522.960938 118.339844 522.433594 117.152344 521.878906 115.980469 C 521.320312 114.804688 520.738281 113.648438 520.125 112.5 C 519.511719 111.355469 518.871094 110.226562 518.203125 109.113281 C 517.535156 108 516.839844 106.90625 516.121094 105.824219 C 515.398438 104.746094 514.648438 103.683594 513.875 102.640625 C 513.101562 101.597656 512.304688 100.574219 511.480469 99.574219 C 510.65625 98.570312 509.808594 97.585938 508.9375 96.625 C 508.0625 95.660156 507.167969 94.722656 506.25 93.804688 C 505.332031 92.886719 504.394531 91.992188 503.429688 91.117188 C 502.46875 90.246094 501.484375 89.398438 500.484375 88.574219 C 499.480469 87.75 498.457031 86.953125 497.414062 86.179688 C 496.371094 85.40625 495.308594 84.65625 494.230469 83.933594 C 493.148438 83.214844 492.054688 82.519531 490.941406 81.851562 C 489.828125 81.183594 488.699219 80.542969 487.554688 79.929688 C 486.40625 79.316406 485.25 78.734375 484.074219 78.175781 C 482.902344 77.621094 481.714844 77.09375 480.515625 76.597656 C 479.316406 76.101562 478.105469 75.632812 476.882812 75.195312 C 475.660156 74.753906 474.429688 74.347656 473.1875 73.96875 C 471.945312 73.59375 470.695312 73.246094 469.433594 72.929688 C 468.175781 72.613281 466.910156 72.328125 465.636719 72.070312 C 464.363281 71.816406 463.085938 71.59375 461.800781 71.402344 C 460.515625 71.210938 459.226562 71.050781 457.933594 70.921875 C 456.644531 70.792969 455.347656 70.695312 454.050781 70.632812 C 452.753906 70.566406 451.457031 70.535156 450.160156 70.53125 Z M 450.160156 208.941406 C 448.226562 208.941406 446.296875 208.84375 444.371094 208.65625 C 442.449219 208.464844 440.535156 208.183594 438.640625 207.804688 C 436.742188 207.429688 434.871094 206.960938 433.019531 206.398438 C 431.167969 205.835938 429.351562 205.1875 427.5625 204.445312 C 425.777344 203.707031 424.03125 202.878906 422.324219 201.96875 C 420.621094 201.058594 418.964844 200.0625 417.355469 198.988281 C 415.746094 197.914062 414.195312 196.765625 412.703125 195.539062 C 411.207031 194.3125 409.777344 193.015625 408.410156 191.644531 C 407.039062 190.277344 405.742188 188.847656 404.515625 187.351562 C 403.289062 185.859375 402.140625 184.308594 401.066406 182.699219 C 399.992188 181.089844 398.996094 179.433594 398.085938 177.730469 C 397.175781 176.023438 396.347656 174.277344 395.609375 172.492188 C 394.867188 170.703125 394.21875 168.886719 393.65625 167.035156 C 393.09375 165.183594 392.625 163.3125 392.25 161.414062 C 391.871094 159.519531 391.589844 157.605469 391.398438 155.683594 C 391.210938 153.757812 391.113281 151.828125 391.113281 149.894531 C 391.113281 147.960938 391.210938 146.03125 391.398438 144.109375 C 391.589844 142.183594 391.871094 140.273438 392.25 138.375 C 392.625 136.480469 393.09375 134.605469 393.65625 132.753906 C 394.21875 130.90625 394.867188 129.085938 395.609375 127.300781 C 396.347656 125.511719 397.175781 123.765625 398.085938 122.0625 C 398.996094 120.355469 399.992188 118.699219 401.066406 117.089844 C 402.140625 115.484375 403.289062 113.933594 404.515625 112.4375 C 405.742188 110.941406 407.039062 109.511719 408.410156 108.144531 C 409.777344 106.777344 411.207031 105.480469 412.703125 104.253906 C 414.195312 103.027344 415.746094 101.875 417.355469 100.800781 C 418.964844 99.726562 420.621094 98.734375 422.324219 97.820312 C 424.03125 96.910156 425.777344 96.085938 427.5625 95.34375 C 429.351562 94.605469 431.167969 93.953125 433.019531 93.394531 C 434.871094 92.832031 436.742188 92.363281 438.640625 91.984375 C 440.535156 91.609375 442.449219 91.324219 444.371094 91.132812 C 446.296875 90.945312 448.226562 90.851562 450.160156 90.851562 C 452.09375 90.851562 454.023438 90.945312 455.945312 91.132812 C 457.871094 91.324219 459.78125 91.609375 461.679688 91.984375 C 463.574219 92.363281 465.449219 92.832031 467.300781 93.394531 C 469.148438 93.953125 470.96875 94.605469 472.753906 95.34375 C 474.542969 96.085938 476.289062 96.910156 477.992188 97.820312 C 479.699219 98.734375 481.355469 99.726562 482.964844 100.800781 C 484.570312 101.875 486.121094 103.027344 487.617188 104.253906 C 489.113281 105.480469 490.542969 106.777344 491.910156 108.144531 C 493.277344 109.511719 494.574219 110.941406 495.800781 112.4375 C 497.027344 113.933594 498.179688 115.484375 499.253906 117.089844 C 500.328125 118.699219 501.320312 120.355469 502.234375 122.0625 C 503.144531 123.765625 503.96875 125.511719 504.710938 127.300781 C 505.449219 129.085938 506.101562 130.90625 506.660156 132.753906 C 507.222656 134.605469 507.691406 136.480469 508.070312 138.375 C 508.445312 140.273438 508.730469 142.183594 508.921875 144.109375 C 509.109375 146.03125 509.203125 147.960938 509.203125 149.894531 C 509.203125 151.828125 509.105469 153.757812 508.914062 155.679688 C 508.722656 157.605469 508.4375 159.511719 508.054688 161.410156 C 507.675781 163.304688 507.207031 165.175781 506.644531 167.027344 C 506.082031 168.875 505.429688 170.691406 504.6875 172.476562 C 503.949219 174.265625 503.121094 176.007812 502.207031 177.714844 C 501.296875 179.417969 500.304688 181.074219 499.230469 182.679688 C 498.152344 184.285156 497.003906 185.835938 495.777344 187.332031 C 494.550781 188.824219 493.253906 190.253906 491.886719 191.621094 C 490.519531 192.988281 489.089844 194.285156 487.59375 195.511719 C 486.101562 196.738281 484.550781 197.890625 482.945312 198.964844 C 481.335938 200.039062 479.679688 201.03125 477.976562 201.945312 C 476.273438 202.855469 474.527344 203.683594 472.742188 204.425781 C 470.957031 205.164062 469.140625 205.816406 467.289062 206.378906 C 465.441406 206.941406 463.570312 207.414062 461.671875 207.792969 C 459.777344 208.171875 457.867188 208.457031 455.945312 208.648438 C 454.019531 208.839844 452.09375 208.9375 450.160156 208.941406 Z M 450.160156 208.941406 " fill-opacity="1" fill-rule="nonzero"/></svg>