<svg xmlns="http://www.w3.org/2000/svg" xmlns:xlink="http://www.w3.org/1999/xlink" width="800" zoomAndPan="magnify" viewBox="0 0 600 599.999999" height="800" preserveAspectRatio="xMidYMid meet" version="1.0"><defs><clipPath id="7e59eb759b"><path d="M 60 6.871094 L 540 6.871094 L 540 593.371094 L 60 593.371094 Z M 60 6.871094 " clip-rule="nonzero"/></clipPath></defs><g clip-path="url(#7e59eb759b)"><path fill="#f9bd16" d="M 300 6.871094 L 60.167969 113.460938 L 60.167969 273.347656 C 60.167969 482.003906 231.753906 579.425781 300 593.125 C 368.246094 579.425781 539.832031 482.003906 539.832031 273.347656 L 539.832031 113.460938 Z M 300 65.214844 L 486.535156 148.125 L 486.535156 273.347656 C 486.535156 436.808594 359.023438 519.960938 300 538.164062 C 240.976562 519.960938 113.464844 436.808594 113.464844 273.347656 L 113.464844 148.125 Z M 427.722656 187.941406 L 273.351562 342.257812 L 199.496094 268.40625 L 161.816406 306.085938 L 273.351562 417.621094 L 465.351562 225.570312 Z M 427.722656 187.941406 " fill-opacity="1" fill-rule="nonzero"/></g></svg>