<svg xmlns="http://www.w3.org/2000/svg" xmlns:xlink="http://www.w3.org/1999/xlink" width="800" zoomAndPan="magnify" viewBox="0 0 600 599.999999" height="800" preserveAspectRatio="xMidYMid meet" version="1.0"><defs><clipPath id="4902539f68"><path d="M 4.339844 4.339844 L 595.339844 4.339844 L 595.339844 595.339844 L 4.339844 595.339844 Z M 4.339844 4.339844 " clip-rule="nonzero"/></clipPath></defs><g clip-path="url(#4902539f68)"><path fill="#f9bd16" d="M 595.65625 505.792969 C 595.65625 555.351562 555.351562 595.65625 505.789062 595.65625 L 94.203125 595.65625 C 44.644531 595.65625 4.339844 555.351562 4.339844 505.792969 L 4.339844 94.203125 C 4.339844 44.644531 44.644531 4.339844 94.203125 4.339844 L 505.789062 4.339844 C 555.351562 4.339844 595.65625 44.644531 595.65625 94.203125 Z M 595.65625 505.792969 " fill-opacity="1" fill-rule="nonzero"/></g><path fill="#ffffff" d="M 509.59375 304.675781 C 509.59375 337.371094 509.59375 372.023438 502.296875 403.691406 C 497.152344 426.003906 478.953125 442.351562 456.953125 444.820312 C 405.027344 450.578125 352.382812 450.679688 300.046875 450.578125 C 247.609375 450.578125 195.171875 450.578125 143.144531 444.820312 C 121.246094 442.351562 102.941406 426.003906 97.800781 403.691406 C 90.503906 372.023438 90.503906 337.371094 90.503906 304.675781 C 90.503906 271.980469 90.605469 237.328125 97.800781 205.660156 C 102.941406 183.347656 121.140625 167 143.144531 164.53125 C 195.171875 158.671875 247.714844 158.671875 300.046875 158.671875 C 352.382812 158.671875 404.925781 158.671875 456.953125 164.53125 C 478.851562 167 497.152344 183.347656 502.296875 205.660156 C 509.59375 237.328125 509.59375 271.980469 509.59375 304.675781 Z M 509.59375 304.675781 " fill-opacity="1" fill-rule="nonzero"/><path fill="#f9bd16" d="M 255.9375 226.738281 L 255.9375 383.332031 L 377.574219 304.984375 Z M 255.9375 226.738281 " fill-opacity="1" fill-rule="nonzero"/></svg>